<svg xmlns="http://www.w3.org/2000/svg" viewBox="0 0 171.35 45.21"><switch><g><path d="M170.85 45.21a.49.49 0 0 1-.48-.38c-.08-.3-.16-.61-.25-.91a.501.501 0 0 1 .96-.28c.09.31.17.63.25.94.07.27-.09.54-.36.61-.04.02-.08.02-.12.02zm-2-5.6c-.19 0-.37-.11-.45-.29-2.02-4.36-4.99-8.31-8.83-11.74a.504.504 0 0 1-.04-.71c.18-.2.5-.22.71-.04 3.94 3.53 6.99 7.59 9.07 12.07.12.25.01.55-.24.66-.08.04-.15.05-.22.05zM40.49 33.19h-.02c-5.28-.2-10.25-1.21-14.77-3.01a.498.498 0 0 1-.28-.65c.1-.26.39-.38.65-.28 4.41 1.76 9.27 2.75 14.44 2.94.28.01.49.24.48.52-.01.26-.23.48-.5.48zm5-.05a.51.51 0 0 1-.5-.47c-.02-.28.2-.51.47-.53 4.61-.25 9.54-1.09 14.66-2.49.26-.07.54.08.61.35.07.27-.08.54-.35.61-5.18 1.42-10.18 2.26-14.86 2.52-.01.01-.02.01-.03.01zm19.55-3.95c-.21 0-.4-.13-.47-.34a.5.5 0 0 1 .32-.63c2.59-.86 5.27-1.87 7.96-3 2.01-.84 4.03-1.65 6-2.4.26-.1.55.03.64.29.1.26-.03.55-.29.65-1.96.74-3.97 1.55-5.97 2.39-2.72 1.14-5.43 2.16-8.04 3.03-.05 0-.1.01-.15.01zm-43.66-1.12c-.08 0-.17-.02-.24-.06-4.34-2.41-8.25-5.65-11.61-9.65a.493.493 0 0 1 .06-.7c.21-.18.53-.15.7.06 3.28 3.9 7.09 7.07 11.33 9.42a.495.495 0 1 1-.24.93zm134.61-3.47c-.1 0-.2-.03-.29-.09-3.9-2.74-8.36-4.92-13.28-6.5a.497.497 0 0 1-.32-.63c.08-.26.37-.41.63-.32 5.01 1.61 9.57 3.84 13.55 6.64.23.16.28.47.12.7-.1.13-.26.2-.41.2zm-72.27-2.52c-.21 0-.4-.13-.47-.34-.09-.26.05-.55.31-.64 4.91-1.7 9.77-3.11 14.45-4.2.27-.06.54.1.6.37.06.27-.1.54-.37.6-4.64 1.08-9.47 2.49-14.35 4.17-.06.03-.11.04-.17.04zm19.29-5.23a.51.51 0 0 1-.49-.41c-.05-.27.13-.53.4-.58 5.14-.98 10.17-1.59 14.95-1.79a.501.501 0 0 1 .04 1c-4.73.21-9.71.8-14.81 1.78-.03-.01-.06 0-.09 0zm34.74-.14c-.04 0-.07 0-.11-.01-4.6-1.06-9.57-1.63-14.76-1.71a.49.49 0 0 1-.49-.51.5.5 0 0 1 .5-.49h.01c5.26.08 10.3.66 14.97 1.74.27.06.44.33.38.6-.06.23-.27.38-.5.38zM6.9 14.55c-.16 0-.32-.08-.42-.22C1.69 7.22.03.69.01.62-.06.35.11.08.37.01c.27-.07.54.1.61.36.02.07 1.65 6.44 6.33 13.4.15.23.09.54-.14.69a.46.46 0 0 1-.27.09z" fill="#fff"/></g></switch></svg>