<svg xmlns="http://www.w3.org/2000/svg" viewBox="0 0 61.91 117.07"><switch><g><path d="M30.33 117.07a.49.49 0 0 1-.44-.26.506.506 0 0 1 .2-.68c.06-.03 5.7-3.13 12.06-8.75.21-.18.52-.16.71.04.18.21.16.52-.04.71-6.46 5.71-12.19 8.85-12.25 8.88-.08.04-.16.06-.24.06zm15.8-12.25a.495.495 0 0 1-.35-.85c3.7-3.73 6.77-7.67 9.15-11.7.14-.24.45-.32.68-.18.24.14.32.45.18.68-2.42 4.1-5.54 8.1-9.3 11.89a.48.48 0 0 1-.36.16zm11.53-16.23c-.07 0-.14-.01-.21-.04a.506.506 0 0 1-.25-.66c2.12-4.65 3.34-9.45 3.63-14.27.02-.27.23-.5.53-.47.28.02.49.25.47.53-.3 4.94-1.55 9.86-3.72 14.62-.07.19-.26.29-.45.29zm3.66-19.43c-.26 0-.48-.2-.5-.47-.33-4.71-1.53-9.52-3.58-14.31-.11-.25.01-.55.26-.66.25-.11.55.01.66.26 2.1 4.89 3.33 9.82 3.66 14.63.02.28-.19.51-.46.53-.02.02-.03.02-.04.02zm-5.8-18.97c-.18 0-.35-.1-.44-.26-2.18-4.05-5-8.18-8.4-12.26a.486.486 0 0 1 .07-.7c.21-.18.53-.15.7.06 3.44 4.14 6.3 8.32 8.51 12.43.13.24.04.55-.2.68-.08.03-.16.05-.24.05zM43.77 34.08a.5.5 0 0 1-.37-.16c-3.15-3.42-6.77-6.9-10.77-10.33a.505.505 0 0 1-.05-.71c.18-.21.5-.23.71-.05 4.02 3.46 7.68 6.96 10.85 10.42.19.2.17.52-.03.71-.09.08-.22.12-.34.12zM29.12 20.51a.51.51 0 0 1-.31-.11 201.44 201.44 0 0 0-12-8.93.51.51 0 0 1-.13-.7.51.51 0 0 1 .7-.13c4.31 2.98 8.36 5.99 12.05 8.97.21.17.25.49.08.7-.1.14-.24.2-.39.2zM12.95 8.76c-.09 0-.19-.03-.28-.08C8.78 6.11 4.6 3.5.25.93A.496.496 0 0 1 .07.25C.21.01.52-.07.75.07c4.37 2.58 8.57 5.19 12.48 7.78.23.15.29.46.14.69-.1.14-.25.22-.42.22z" fill="#fff"/></g></switch></svg>