<svg id="Layer_1" xmlns="http://www.w3.org/2000/svg" viewBox="0 0 519.4 555.3"><style>.st0{fill:#fff}</style><switch><g><path class="st0" d="M93.45 392.07a.5.5 0 0 0 .62-.34c1.46-4.87 2.66-9.79 3.57-14.62a.499.499 0 0 0-.98-.18c-.91 4.79-2.1 9.68-3.55 14.51-.08.27.07.55.34.63zM97.99 372.6c.24 0 .46-.18.49-.42.76-5 1.23-10.04 1.4-14.98a.502.502 0 0 0-.48-.52c-.27.01-.51.21-.52.48-.17 4.9-.64 9.91-1.39 14.87-.04.27.15.53.42.57.03-.01.05 0 .08 0zM68.48 488.81c.24 0 .45-.17.49-.42.78-4.53 1.74-9.47 2.87-14.7a.488.488 0 0 0-.38-.59c-.27-.05-.54.11-.59.38-1.13 5.24-2.09 10.2-2.87 14.74-.05.27.14.53.41.58.02.01.05.01.07.01zM98.97 337.17a.492.492 0 0 0-.56-.43c-.27.04-.47.29-.43.56.63 4.9.96 9.91.99 14.88 0 .27.23.5.5.5.28 0 .5-.23.5-.5-.03-5.02-.37-10.07-1-15.01zM94.17 317.23c-.26.08-.41.36-.34.62 1.43 4.77 2.58 9.66 3.41 14.53.04.24.25.42.49.42.03 0 .06 0 .08-.01a.5.5 0 0 0 .41-.58c-.84-4.91-1.99-9.84-3.44-14.64a.476.476 0 0 0-.61-.34zM82.21 430.45a.49.49 0 0 0 .61-.35c1.28-4.59 2.66-9.44 4.11-14.42a.501.501 0 0 0-.96-.28c-1.45 4.98-2.83 9.84-4.11 14.43-.07.27.09.55.35.62zM65.95 508.64h.03c.26 0 .48-.2.5-.47.3-4.44.87-9.44 1.69-14.85a.5.5 0 1 0-.99-.15c-.83 5.44-1.4 10.47-1.7 14.94-.01.28.19.51.47.53zM19.04 227.57a.494.494 0 0 0-.68.19c-.13.24-.05.55.19.68 4.2 2.33 8.47 4.99 12.71 7.9a.49.49 0 0 0 .69-.13.5.5 0 0 0-.13-.7c-4.25-2.92-8.55-5.59-12.78-7.94zM77.61 543.98c-4.13-2.6-7.04-6.3-8.88-11.3a.505.505 0 0 0-.64-.3c-.26.09-.39.38-.3.64 1.92 5.22 4.96 9.08 9.29 11.8.08.05.18.08.27.08.17 0 .33-.08.42-.23.14-.23.07-.54-.16-.69zM47.37 248.67c.14 0 .28-.06.38-.17.18-.21.16-.52-.05-.71a184.58 184.58 0 0 0-11.77-9.38.507.507 0 0 0-.7.11c-.16.22-.11.54.11.7 4 2.92 7.94 6.06 11.71 9.32.09.09.2.13.32.13zM61.36 262.44c.1.11.23.16.37.16a.501.501 0 0 0 .37-.84c-3.35-3.65-6.94-7.22-10.65-10.63a.505.505 0 0 0-.71.03c-.19.2-.17.52.03.71 3.69 3.39 7.25 6.94 10.59 10.57zM66.22 515.4c0-.74.01-1.49.03-2.26.01-.28-.21-.5-.49-.51a.495.495 0 0 0-.51.49c-.02.78-.03 1.54-.03 2.28 0 4.88.38 9.06 1.17 12.75.05.23.26.4.49.4.03 0 .07 0 .1-.01.27-.06.44-.32.38-.59-.76-3.63-1.14-7.73-1.14-12.55zM64.73 265.45c-.21.18-.23.5-.05.71 3.29 3.8 6.41 7.75 9.26 11.74.1.14.25.21.41.21.1 0 .2-.03.29-.09.22-.16.28-.47.12-.7-2.87-4.01-6-7.99-9.32-11.81a.498.498 0 0 0-.71-.06zM80.53 434.66c-1.38 5.03-2.68 9.91-3.86 14.5-.07.27.09.54.36.61a.49.49 0 0 0 .61-.36c1.18-4.58 2.48-9.46 3.86-14.48a.507.507 0 0 0-.35-.62.507.507 0 0 0-.62.35zM75.43 454.01c-1.29 5.13-2.46 10.04-3.49 14.6a.503.503 0 0 0 .49.61c.23 0 .44-.16.49-.39 1.03-4.55 2.2-9.45 3.48-14.57.07-.27-.1-.54-.36-.61a.502.502 0 0 0-.61.36zM14.6 225.21c-5.12-2.59-9.94-4.58-13.96-5.75a.501.501 0 0 0-.28.96c3.96 1.15 8.72 3.11 13.78 5.68.07.04.15.05.23.05.18 0 .36-.1.45-.27.13-.24.03-.54-.22-.67zM91.66 396.23a2074.2 2074.2 0 0 0-4.28 14.38c-.08.26.07.54.34.62.05.01.09.02.14.02.22 0 .42-.14.48-.36 1.36-4.63 2.79-9.42 4.28-14.37a.5.5 0 0 0-.33-.62.506.506 0 0 0-.63.33zM84.4 294.85c.09.17.26.27.44.27.08 0 .16-.02.23-.06.24-.13.34-.43.21-.67-2.29-4.37-4.88-8.72-7.68-12.94a.498.498 0 0 0-.83.55c2.79 4.19 5.36 8.51 7.63 12.85zM118.39 542.8c-3.32-.12-5.78-.77-7.33-.84-1.59-.07-6.91-.2-8.54-.55-1.37-.29-2.22.28-4.29.38-2.23.11-4.87 1.07-5.13 1.17-.17.06-.41-.02-.46-.19-.08-.29-.16-.72-.81-.78 0 0-.56-.05-2.6-.15-1.92-.09-2.21 1.58-2.48 5.81-1.72-.42-3.3-.9-4.76-1.48-.26-.1-.55.03-.65.28-.1.26.03.55.28.65 1.55.61 3.23 1.12 5.06 1.56v.04c-.3 4.81.44 6.37 1.48 6.43l2.9.17c.78.03.73-.9.89-1.21.08-.16.38-.29.62-.13 2.75 1.83 5.56 1.25 8 .94 1.96-.24 2.6-.09 3.7.25 1.27.41 2.45-.35 2.27-1.69 1.97.45 3.07-1.93 2.7-2.64l.67.01c1.5 0 2.63-3.07 1.05-3.98-1.08-.57-1.1-.79-1.87-1.02 1.42-.07 1.95.11 2.43.1 1.06-.01 2.57-.08 3.92.16.77.14.86-.13 3.1.13 2.82.35 3.01-3.31-.15-3.42zM114.61 159.35c.07 0 .14-.01.2-.04.25-.11.37-.41.26-.66a315.15 315.15 0 0 0-6.37-13.61.5.5 0 1 0-.9.44c2.3 4.64 4.44 9.2 6.35 13.57.08.19.27.3.46.3zM105.1 1.88h.06c4.67-.57 9.69-.86 14.9-.88.28 0 .5-.23.5-.5s-.22-.5-.5-.5c-5.25.01-10.31.31-15.02.88-.27.03-.47.28-.44.56.04.25.25.44.5.44zM116.38 162.99a.5.5 0 0 0-.27.65c1.98 4.75 3.77 9.46 5.33 13.99.07.21.27.34.47.34a.502.502 0 0 0 .47-.67c-1.56-4.55-3.36-9.28-5.35-14.05a.489.489 0 0 0-.65-.26zM58.79 53.28c.04 0 .08 0 .13-.02.27-.07.43-.34.36-.61-.94-3.62-1.41-7.21-1.41-10.67 0-1.35.07-2.7.22-4.01a.502.502 0 0 0-.44-.55.497.497 0 0 0-.55.44c-.15 1.34-.22 2.73-.22 4.12 0 3.55.49 7.22 1.44 10.92.04.23.24.38.47.38zM58.35 33.48c.04.01.08.02.12.02.22 0 .43-.15.48-.38 1.22-4.77 3.46-9.16 6.65-13.05.18-.21.14-.53-.07-.7a.494.494 0 0 0-.7.07c-3.28 4-5.59 8.52-6.85 13.43-.06.27.1.54.37.61zM109.88 292.42c.16 0 .31-.07.41-.21l.5-.71c2.76-3.92 5.28-7.98 7.49-12.04.13-.24.04-.55-.2-.68s-.55-.04-.68.2a121.96 121.96 0 0 1-7.43 11.94l-.5.71a.499.499 0 0 0 .41.79zM126.93 196.82c.05.23.26.39.49.39.04 0 .07 0 .11-.01.27-.06.44-.33.38-.6-1.07-4.72-2.4-9.6-3.95-14.52a.506.506 0 0 0-.63-.33c-.26.08-.41.36-.33.63 1.55 4.89 2.87 9.74 3.93 14.44zM11.45 356.53c-3.67-.98-7.27-2.48-10.7-4.44a.491.491 0 0 0-.68.18c-.14.24-.05.54.19.68 3.5 2.01 7.19 3.54 10.94 4.54.04.01.09.02.13.02a.498.498 0 0 0 .12-.98zM81.72 326.3a.504.504 0 0 0-.71.01c-3.65 3.71-7.32 7.15-10.91 10.22-.21.18-.23.49-.06.7a.493.493 0 0 0 .7.06c3.61-3.08 7.3-6.54 10.98-10.27.2-.21.19-.53 0-.72zM107.26 295.57a.507.507 0 0 0-.7.11c-3.02 4.15-6.08 8.16-9.07 11.91-.17.22-.14.53.08.7.09.07.2.11.31.11.15 0 .29-.06.39-.19 3.01-3.76 6.07-7.78 9.1-11.95.16-.21.11-.52-.11-.69zM89.41 109.95a.496.496 0 0 0-.68-.18c-.24.14-.32.45-.18.68 2.89 4.9 5.27 9.03 7.51 12.99a.5.5 0 0 0 .44.25c.08 0 .17-.02.25-.06.24-.14.33-.44.19-.68-2.25-3.96-4.64-8.09-7.53-13zM106.01 141.3c.08 0 .15-.02.23-.06.25-.13.34-.43.22-.67-2.18-4.25-4.49-8.58-7.08-13.25a.506.506 0 0 0-.68-.2c-.24.13-.33.44-.2.68 2.58 4.66 4.89 8.98 7.06 13.22.09.19.27.28.45.28zM69.24 75.39a.504.504 0 0 0-.68-.2c-.24.13-.33.44-.2.68 2.01 3.71 4.37 7.86 7.43 13.07a.495.495 0 0 0 .68.18c.24-.14.32-.45.18-.68-3.04-5.2-5.4-9.35-7.41-13.05zM85.68 6.43c.06 0 .12-.01.18-.03 4.35-1.63 9.19-2.91 14.38-3.8.27-.05.45-.31.41-.58a.506.506 0 0 0-.58-.41c-5.25.9-10.15 2.2-14.56 3.85-.26.1-.39.38-.29.64.07.21.26.33.46.33zM68.64 16.62c.12 0 .25-.04.34-.14 3.39-3.18 7.54-5.93 12.31-8.17a.504.504 0 0 0-.43-.91C76 9.69 71.77 12.5 68.3 15.75a.504.504 0 0 0 .34.87zM60.75 57.37a.501.501 0 0 0-.94.34l.1.28c1.45 3.89 3.44 8.29 6.1 13.44.09.17.26.27.44.27.08 0 .16-.02.23-.06a.49.49 0 0 0 .21-.67c-2.64-5.12-4.62-9.48-6.06-13.33l-.08-.27zM78.51 92.57c-.24.14-.32.45-.18.69 1.31 2.21 2.66 4.47 4.02 6.77 1.2 2.01 2.42 4.06 3.65 6.13a.495.495 0 0 0 .68.18c.24-.14.32-.45.18-.69l-3.65-6.14c-1.37-2.3-2.71-4.55-4.02-6.77a.482.482 0 0 0-.68-.17zM95.04 311.4a.486.486 0 0 0-.7.07c-.36.44-.73.87-1.1 1.3-1.61-4.67-3.53-9.35-5.71-13.9a.513.513 0 0 0-.67-.24c-.25.12-.35.42-.24.67 2.17 4.52 4.07 9.17 5.67 13.81.06.18.22.28.39.31-2.76 3.27-5.52 6.39-8.23 9.28-.19.2-.18.52.02.71.1.09.22.13.34.13.13 0 .27-.05.36-.16 3.27-3.49 6.6-7.28 9.92-11.28.2-.21.17-.52-.05-.7zM409.47 137.1a.486.486 0 0 0-.7.07c-.18.21-.15.53.07.7 3.8 3.15 7.65 6.41 11.46 9.69.09.08.21.12.33.12.14 0 .28-.06.38-.17.18-.21.16-.52-.05-.71-3.83-3.28-7.69-6.54-11.49-9.7zM361.92 100.43a.5.5 0 0 0-.7.12c-.16.23-.11.54.12.7a729.2 729.2 0 0 1 12.13 8.83c.09.07.19.1.3.1.15 0 .3-.07.4-.2.17-.22.12-.53-.1-.7-4.03-3-8.12-5.98-12.15-8.85zM393.92 124.49c-.22-.17-.53-.14-.7.08s-.13.53.08.7c3.91 3.09 7.84 6.26 11.68 9.41.09.08.21.11.32.11.14 0 .29-.06.39-.18.17-.21.14-.53-.07-.7-3.86-3.15-7.79-6.32-11.7-9.42zM378.07 112.26a.498.498 0 0 0-.7.1c-.17.22-.12.53.1.7 3.96 2.98 7.97 6.05 11.9 9.13.09.07.2.11.31.11a.496.496 0 0 0 .3-.89c-3.93-3.09-7.94-6.16-11.91-9.15zM324.48 75.38c-4.24-2.65-8.56-5.29-12.82-7.82a.513.513 0 0 0-.69.17c-.14.24-.06.54.17.69 4.26 2.53 8.56 5.16 12.8 7.81a.482.482 0 0 0 .68-.15c.17-.25.1-.55-.14-.7zM345.47 89.01a.505.505 0 0 0-.69.13c-.15.23-.09.54.14.69 4.11 2.77 8.27 5.64 12.35 8.51.09.06.19.09.29.09.16 0 .31-.07.41-.21.16-.23.1-.54-.12-.7-4.11-2.86-8.27-5.73-12.38-8.51zM341.31 86.23a694.74 694.74 0 0 0-12.59-8.18.5.5 0 0 0-.69.15.5.5 0 0 0 .15.69c4.2 2.67 8.43 5.42 12.58 8.17a.522.522 0 0 0 .7-.14.51.51 0 0 0-.15-.69zM454.33 177.05a.504.504 0 0 0-.71.02c-.19.2-.18.52.02.71 3.59 3.42 7.22 6.94 10.78 10.44.1.1.22.14.35.14.13 0 .26-.05.36-.15.19-.2.19-.51-.01-.71-3.57-3.51-7.19-7.03-10.79-10.45zM496.37 219.98c-.19-.2-.5-.22-.71-.03s-.22.5-.03.71c3.45 3.79 6.81 7.56 9.99 11.2.1.11.24.17.38.17.12 0 .23-.04.33-.12.21-.18.23-.5.05-.71-3.19-3.65-6.55-7.43-10.01-11.22zM482.69 205.33a.504.504 0 0 0-.71-.02c-.2.19-.21.51-.02.71 3.48 3.63 6.93 7.31 10.28 10.94.1.11.23.16.37.16a.501.501 0 0 0 .37-.84c-3.35-3.63-6.81-7.31-10.29-10.95zM519.3 246.59c-.03-.04-3.39-4.32-9.64-11.6a.504.504 0 0 0-.71-.05c-.21.18-.23.5-.05.71 6.24 7.27 9.58 11.53 9.61 11.57.1.13.25.19.39.19.11 0 .22-.03.31-.11a.51.51 0 0 0 .09-.71zM439.68 163.39a.505.505 0 0 0-.71.03c-.19.2-.17.52.03.71 3.68 3.35 7.38 6.78 11.01 10.2.1.09.22.14.34.14.13 0 .27-.05.36-.16.19-.2.18-.52-.02-.71-3.62-3.42-7.33-6.85-11.01-10.21zM31.06 357.24c-2.82.5-5.64.75-8.37.75h-.02c-2.15 0-4.29-.16-6.38-.46a.507.507 0 0 0-.57.42c-.04.27.15.53.42.57 2.13.31 4.33.47 6.52.47h.02c2.79 0 5.67-.26 8.55-.77.27-.05.45-.31.41-.58s-.31-.45-.58-.4zM424.72 150.08a.506.506 0 0 0-.71.05c-.18.21-.16.52.05.71 3.74 3.26 7.52 6.6 11.23 9.95.1.09.22.13.33.13.14 0 .27-.06.37-.17.19-.21.17-.52-.04-.71-3.7-3.35-7.48-6.7-11.23-9.96zM307.36 65.01a637.43 637.43 0 0 0-13.04-7.44.494.494 0 0 0-.68.19c-.13.24-.05.55.19.68 4.32 2.4 8.7 4.9 13.02 7.43a.495.495 0 0 0 .68-.18c.14-.23.06-.54-.17-.68zM468.67 191.03c-.2-.19-.51-.2-.71 0-.19.2-.19.51 0 .71 3.54 3.53 7.09 7.13 10.54 10.69a.508.508 0 0 0 .71.01c.2-.19.2-.51.01-.71-3.46-3.57-7-7.17-10.55-10.7zM140.07 1.18C134.91.59 129.86.22 125.08.07c-.23.02-.51.21-.51.48-.01.28.21.51.48.51 4.76.15 9.77.52 14.91 1.1h.06c.25 0 .47-.19.5-.44.02-.26-.17-.5-.45-.54zM130.15 240.89a.516.516 0 0 0-.56.43c-.63 4.95-1.61 9.87-2.91 14.62-.07.27.08.54.35.61.04.01.09.02.13.02.22 0 .42-.15.48-.37 1.31-4.8 2.3-9.77 2.94-14.76a.492.492 0 0 0-.43-.55zM289.93 55.16c-4.41-2.4-8.87-4.77-13.27-7.03a.49.49 0 0 0-.67.22c-.13.25-.03.55.22.67 4.39 2.26 8.85 4.62 13.25 7.02.08.04.16.06.24.06.18 0 .35-.09.44-.26.12-.25.03-.55-.21-.68zM130.53 216.95h.04a.51.51 0 0 0 .46-.54c-.41-4.85-1.11-9.86-2.09-14.9a.504.504 0 1 0-.99.19c.97 5 1.67 9.98 2.07 14.79.04.26.25.46.51.46zM49.68 350.64c-4.66 2.43-9.3 4.29-13.79 5.51-.27.07-.42.35-.35.61.06.22.26.37.48.37.04 0 .09-.01.13-.02 4.57-1.24 9.27-3.12 13.99-5.59a.495.495 0 1 0-.46-.88zM66.96 339.77a.496.496 0 0 0-.7-.08c-4.11 3.27-8.23 6.13-12.24 8.52a.502.502 0 1 0 .52.86c4.05-2.41 8.2-5.31 12.35-8.6.2-.17.24-.49.07-.7zM125.89 260.4a.5.5 0 0 0-.63.32c-1.52 4.68-3.4 9.33-5.59 13.83a.5.5 0 1 0 .9.44 108.4 108.4 0 0 0 5.64-13.96.493.493 0 0 0-.32-.63zM130.84 220.94c-.28.01-.49.25-.48.52.09 1.86.13 3.74.13 5.57 0 3.14-.13 6.29-.38 9.35-.02.27.18.52.46.54h.04c.26 0 .48-.2.5-.46.25-3.09.38-6.27.38-9.43 0-1.85-.04-3.74-.13-5.62a.5.5 0 0 0-.52-.47zM254.2 37.14c-4.6-2.14-9.2-4.21-13.69-6.16a.503.503 0 0 0-.66.26c-.11.25.01.55.26.66 4.48 1.95 9.07 4.02 13.66 6.15.07.03.14.05.21.05.19 0 .37-.11.45-.29.13-.26.02-.56-.23-.67zM235.92 29c-4.67-1.99-9.35-3.9-13.89-5.69-.26-.1-.55.02-.65.28-.1.26.03.55.28.65 4.54 1.78 9.2 3.69 13.87 5.68.06.03.13.04.2.04a.5.5 0 0 0 .46-.3c.1-.26-.02-.56-.27-.66zM272.22 45.86c-4.08-2.06-8.22-4.09-12.3-6.03l-1.19-.56a.504.504 0 0 0-.43.91l1.19.56c4.07 1.94 8.2 3.96 12.28 6.02a.514.514 0 0 0 .67-.22.52.52 0 0 0-.22-.68zM179.34 8.99c-4.94-1.34-9.85-2.56-14.58-3.6a.503.503 0 0 0-.22.98c4.72 1.04 9.61 2.25 14.54 3.59.04.01.09.02.13.02a.506.506 0 0 0 .13-.99zM217.36 21.5c-4.76-1.81-9.51-3.54-14.11-5.12a.51.51 0 0 0-.64.31c-.09.26.05.55.31.64 4.6 1.58 9.34 3.3 14.08 5.11.06.02.12.03.18.03a.503.503 0 0 0 .18-.97zM159.85 4.35c-5.05-1.02-10.03-1.87-14.81-2.53a.49.49 0 0 0-.56.43c-.04.27.15.53.43.56 4.76.66 9.72 1.51 14.75 2.52a.501.501 0 0 0 .59-.39.504.504 0 0 0-.4-.59zM198.5 14.78c-4.85-1.6-9.67-3.1-14.35-4.44a.514.514 0 0 0-.62.34c-.08.27.08.54.34.62 4.66 1.34 9.47 2.83 14.31 4.43a.483.483 0 0 0 .63-.31c.1-.27-.05-.55-.31-.64z"/></g></switch></svg>