<svg id="Layer_1" xmlns="http://www.w3.org/2000/svg" viewBox="0 0 419.48 389.88"><style>.st0{fill:#fff}</style><switch><g><path class="st0" d="M91.22 303.4c.15 0 .28-.11.31-.26.48-2.8 1.08-5.88 1.78-9.13a.309.309 0 0 0-.24-.37.322.322 0 0 0-.37.24c-.7 3.27-1.3 6.35-1.78 9.16-.03.17.08.33.25.36h.05zM90.41 306.11c-.52 3.38-.87 6.5-1.05 9.28-.01.17.12.32.29.33h.02c.16 0 .3-.13.31-.29.18-2.76.54-5.87 1.05-9.23a.3.3 0 0 0-.26-.35.315.315 0 0 0-.36.26zM91.48 47.34c.05 0 .1-.01.15-.04.15-.08.21-.27.12-.42-1.74-3.2-3.09-5.92-4.14-8.33a.308.308 0 0 0-.41-.16c-.16.07-.23.25-.16.41 1.05 2.42 2.41 5.16 4.16 8.38.06.1.17.16.28.16zM100.27 183.35c.05 0 .11-.01.15-.04.15-.09.2-.28.11-.42a90.277 90.277 0 0 0-5.1-7.84.306.306 0 0 0-.43-.07c-.14.1-.17.29-.07.43a90.41 90.41 0 0 1 5.06 7.78c.07.1.17.16.28.16zM101.63 185.48c-.15.08-.21.27-.13.42 1.46 2.77 2.75 5.61 3.84 8.44.05.12.17.2.29.2.04 0 .07-.01.11-.02a.31.31 0 0 0 .18-.4c-1.09-2.86-2.4-5.72-3.87-8.51a.313.313 0 0 0-.42-.13zM87.05 165.86c2.15 2.31 4.17 4.7 6.02 7.08.06.08.15.12.25.12.07 0 .13-.02.19-.07.14-.1.16-.3.05-.44-1.86-2.4-3.9-4.79-6.06-7.12a.314.314 0 0 0-.44-.02c-.12.12-.12.32-.01.45zM100.36 61.74l-.84-1.41a.312.312 0 0 0-.43-.11c-.15.09-.2.28-.11.43l.84 1.41c1.28 2.15 2.59 4.35 3.92 6.61.06.1.16.15.27.15a.302.302 0 0 0 .27-.46c-1.33-2.27-2.64-4.47-3.92-6.62zM110.86 1.62h.05c2.88-.5 5.98-.81 9.22-.93.17-.01.3-.15.3-.32a.318.318 0 0 0-.32-.3c-3.27.12-6.4.44-9.3.94-.17.03-.28.19-.25.36.02.14.15.25.3.25zM105.43 70.92c-.15.09-.2.28-.11.42 1.72 2.95 3.22 5.6 4.61 8.1.06.1.16.16.27.16a.31.31 0 0 0 .27-.46c-1.39-2.51-2.9-5.16-4.62-8.11a.316.316 0 0 0-.42-.11zM95.53 281.77c-.8 3.17-1.53 6.22-2.17 9.07-.04.17.07.33.23.37.02 0 .05.01.07.01.14 0 .27-.1.3-.24.64-2.84 1.37-5.89 2.17-9.06a.317.317 0 0 0-.23-.38c-.16-.04-.32.07-.37.23zM114.94 184.22c.1 0 .19-.04.25-.13.76-1.04 1.52-2.11 2.29-3.2a77.96 77.96 0 0 0 2.96-4.53c.09-.15.04-.34-.11-.43a.312.312 0 0 0-.43.11c-.91 1.51-1.9 3.02-2.94 4.49-.77 1.09-1.53 2.15-2.28 3.19-.1.14-.07.33.07.43.06.05.12.07.19.07zM103.17 255.19c.03.01.06.01.09.01.13 0 .26-.09.3-.22.85-2.88 1.73-5.86 2.66-8.93a.312.312 0 0 0-.21-.39.308.308 0 0 0-.39.21c-.93 3.08-1.82 6.05-2.66 8.93-.05.17.04.34.21.39zM97.01 204.91a.314.314 0 0 0-.44-.01c-2.34 2.24-4.69 4.3-6.99 6.11a.316.316 0 0 0 .19.56c.07 0 .14-.02.19-.07 2.32-1.82 4.68-3.89 7.03-6.15.13-.12.14-.32.02-.44zM102.08 257.79c-.9 3.1-1.75 6.09-2.55 8.97a.3.3 0 0 0 .22.38.31.31 0 0 0 .38-.22c.8-2.87 1.65-5.86 2.55-8.96a.3.3 0 0 0-.21-.38.316.316 0 0 0-.39.21zM105.51 195.86a.314.314 0 0 0-.44.03c-2.1 2.43-4.22 4.73-6.3 6.84-.12.12-.12.32 0 .44.06.06.14.09.22.09.08 0 .16-.03.22-.09 2.09-2.11 4.22-4.42 6.33-6.87.12-.13.1-.33-.03-.44zM84.42 23.91h.03c.16 0 .29-.12.31-.28.33-3.1 1.3-6.01 2.88-8.63.09-.15.04-.34-.11-.43a.312.312 0 0 0-.43.11c-1.63 2.7-2.63 5.69-2.97 8.89-.01.17.12.32.29.34zM1.09 129.02c.04-.17-.05-.34-.22-.38-.17-.04-.34.05-.38.22-.32 1.21-.49 2.59-.49 4.11 0 1.58.18 3.36.54 5.27.03.15.16.25.3.25.02 0 .04 0 .06-.01.17-.03.28-.19.25-.36-.35-1.88-.53-3.61-.53-5.16 0-1.45.16-2.78.47-3.94zM2.05 126.43c.1 0 .2-.05.26-.14 1.54-2.29 4.18-3.56 7.84-3.76.17-.01.3-.16.29-.33-.01-.17-.16-.31-.33-.29-3.87.21-6.66 1.57-8.32 4.03-.1.14-.06.34.08.43.06.04.12.06.18.06zM1.82 141.14c-.04-.17-.21-.26-.38-.22a.3.3 0 0 0-.22.38c.41 1.57.92 3.27 1.53 5.02.45 1.31.91 2.6 1.36 3.86.05.13.17.21.29.21.04 0 .07-.01.11-.02.16-.06.24-.24.19-.4-.46-1.26-.91-2.55-1.36-3.85a62.11 62.11 0 0 1-1.52-4.98zM15.61 175.64a.314.314 0 0 0-.42-.14c-.15.08-.22.26-.14.42 1.42 2.83 2.89 5.6 4.38 8.24.06.1.16.16.27.16a.31.31 0 0 0 .27-.46c-1.48-2.63-2.95-5.39-4.36-8.22zM99 5.21c.04 0 .09-.01.13-.03 2.61-1.23 5.55-2.22 8.75-2.96.17-.04.27-.2.23-.37a.307.307 0 0 0-.37-.23c-3.24.74-6.22 1.75-8.87 3-.16.07-.22.26-.15.41.06.11.17.18.28.18zM21.52 186.54a.302.302 0 0 0-.42-.11c-.15.09-.2.28-.11.42 1.62 2.75 3.29 5.4 4.97 7.9.06.09.16.14.26.14.06 0 .12-.02.17-.05.14-.1.18-.29.08-.43-1.67-2.49-3.34-5.13-4.95-7.87zM10.39 164.4a.308.308 0 0 0-.41-.16c-.16.07-.23.25-.16.41 1.25 2.91 2.55 5.76 3.87 8.49a.308.308 0 0 0 .41.15c.15-.07.22-.26.14-.41-1.31-2.74-2.61-5.59-3.85-8.48zM13.21 122.59c2.62.21 5.67.84 9.05 1.88.03.01.06.01.09.01.13 0 .26-.09.3-.22a.312.312 0 0 0-.21-.39c-3.42-1.04-6.51-1.68-9.18-1.9-.17-.02-.32.11-.33.28s.11.33.28.34zM89.17 12.61c.09 0 .18-.04.24-.11 1.84-2.26 4.2-4.24 7.01-5.89.15-.09.2-.28.11-.42a.302.302 0 0 0-.42-.11c-2.87 1.69-5.29 3.72-7.18 6.03-.11.13-.09.33.04.44.06.04.13.06.2.06zM115.98 90.61c.05 0 .09-.01.14-.03.15-.08.22-.26.14-.42-1.33-2.68-2.73-5.4-4.3-8.29a.313.313 0 0 0-.42-.13c-.15.08-.21.27-.13.42 1.56 2.89 2.96 5.59 4.29 8.27.06.12.17.18.28.18zM92.83 49.48a.31.31 0 0 0-.12.42c1.61 2.85 3.35 5.81 4.69 8.07.06.1.16.15.27.15.05 0 .11-.01.16-.04.15-.09.2-.28.11-.43-1.34-2.26-3.08-5.21-4.68-8.06a.32.32 0 0 0-.43-.11zM86.16 36.11c.04 0 .07-.01.11-.02a.31.31 0 0 0 .18-.4c-1.12-3.05-1.73-6.08-1.81-9 0-.17-.14-.3-.31-.3h-.01c-.17 0-.31.15-.3.32.08 2.98.7 6.08 1.85 9.2.05.12.17.2.29.2zM48.88 136.76c2.03 1.17 4.25 2.47 6.74 4 .05.03.11.05.16.05.1 0 .21-.05.26-.15.09-.15.04-.34-.1-.43-2.49-1.53-4.72-2.83-6.75-4.01-.43-.25-.87-.5-1.3-.75a.31.31 0 0 0-.3.54c.43.26.86.5 1.29.75zM75.81 155.19a.32.32 0 0 0 .44-.04c.11-.13.09-.33-.04-.44-2.33-1.96-4.8-3.91-7.34-5.79a.313.313 0 0 0-.43.06c-.1.14-.07.33.06.43 2.53 1.9 4.99 3.84 7.31 5.78zM44.88 134.51a.303.303 0 0 0 .42-.12.31.31 0 0 0-.12-.42c-2.84-1.56-5.64-3-8.3-4.28a.307.307 0 0 0-.41.15c-.07.15-.01.34.15.41 2.64 1.27 5.42 2.7 8.26 4.26zM5.76 152.88a.31.31 0 0 0-.58.22c1.1 2.94 2.25 5.86 3.42 8.68.05.12.17.19.29.19.04 0 .08-.01.12-.02a.32.32 0 0 0 .17-.41c-1.17-2.81-2.32-5.72-3.42-8.66zM343.74 123.64c.06.06.14.09.22.09.08 0 .16-.03.22-.09.12-.12.12-.32 0-.44a513.86 513.86 0 0 0-6.59-6.62.314.314 0 0 0-.44 0c-.12.12-.12.32 0 .44 2.22 2.19 4.43 4.41 6.59 6.62zM113.28 186.16c-.14-.1-.33-.08-.43.06-1.92 2.55-3.86 5.01-5.76 7.3-.11.13-.09.33.04.44a.32.32 0 0 0 .44-.04c1.91-2.3 3.86-4.77 5.78-7.33.09-.13.06-.33-.07-.43zM331.91 303.38c-.16.05-.25.23-.2.39.04.13.16.22.3.22.03 0 .06 0 .09-.01 2.88-.92 5.89-1.8 8.93-2.62.17-.04.26-.22.22-.38-.04-.17-.22-.26-.38-.22-3.05.82-6.06 1.7-8.96 2.62zM316.77 97.9c.06.05.13.08.21.08.09 0 .17-.03.23-.1.11-.13.1-.32-.02-.44a497.94 497.94 0 0 0-7.02-6.15.314.314 0 0 0-.44.03c-.11.13-.1.33.03.44 2.33 2 4.69 4.07 7.01 6.14zM347.65 292.5c.06.07.15.1.23.1.07 0 .15-.03.21-.08.13-.11.14-.31.02-.44-2-2.25-4.38-4.32-7.06-6.16a.308.308 0 0 0-.43.08c-.1.14-.06.33.08.43 2.64 1.83 4.98 3.86 6.95 6.07zM317.86 277.34c3.15.66 6.17 1.46 8.97 2.4.03.01.07.02.1.02a.3.3 0 0 0 .29-.21.306.306 0 0 0-.2-.39c-2.83-.94-5.87-1.76-9.04-2.42a.309.309 0 0 0-.37.24c-.03.16.08.32.25.36zM325.95 106.27c.06.06.14.08.21.08.08 0 .17-.03.23-.1.12-.13.11-.32-.02-.44-2.28-2.13-4.59-4.25-6.88-6.31a.324.324 0 0 0-.44.02c-.11.13-.1.32.02.44 2.29 2.07 4.61 4.19 6.88 6.31zM334.95 114.85c.06.06.14.09.22.09a.305.305 0 0 0 .21-.53c-2.21-2.16-4.48-4.33-6.74-6.46a.314.314 0 0 0-.44.01c-.12.12-.11.32.01.44 2.26 2.12 4.53 4.3 6.74 6.45zM411.21 212.15c.05.12.16.19.28.19.04 0 .08-.01.13-.03.16-.07.23-.25.16-.41-1.21-2.74-2.58-5.57-4.07-8.4a.313.313 0 0 0-.42-.13c-.15.08-.21.27-.13.42 1.48 2.82 2.84 5.64 4.05 8.36zM350.09 294.52c-.1-.14-.3-.17-.43-.06-.14.1-.17.3-.06.43.76 1.03 1.46 2.1 2.1 3.21-2.64.58-5.26 1.21-7.81 1.86a.3.3 0 0 0-.22.38.3.3 0 0 0 .38.22c2.6-.67 5.28-1.3 7.97-1.9.75 1.38 1.41 2.82 1.96 4.3.05.13.17.2.29.2.04 0 .07-.01.11-.02a.31.31 0 0 0 .18-.4 33.41 33.41 0 0 0-1.91-4.22c.15-.03.3-.07.45-.1.17-.04.27-.2.24-.37a.322.322 0 0 0-.37-.24c-.21.05-.42.09-.64.14-.68-1.18-1.42-2.33-2.24-3.43zM418.59 236.06h.04c.17-.02.29-.18.27-.35a76.81 76.81 0 0 0-1.87-9.16c-.04-.17-.22-.26-.38-.22-.17.04-.26.21-.22.38.83 3.1 1.46 6.15 1.86 9.08.01.16.15.27.3.27zM392.3 180.19c.06.08.16.13.25.13a.3.3 0 0 0 .18-.06c.14-.1.17-.29.07-.43-1.77-2.45-3.65-4.96-5.6-7.46-.1-.14-.3-.16-.44-.05-.14.1-.16.3-.05.44 1.94 2.48 3.82 4.98 5.59 7.43zM376.91 160.72a.32.32 0 0 0 .44.04c.13-.11.15-.31.03-.44-1.96-2.3-4.03-4.66-6.14-7.02a.305.305 0 0 0-.44-.02c-.13.11-.14.31-.02.44 2.1 2.35 4.17 4.71 6.13 7zM360.7 141.83c.06.07.15.1.23.1a.314.314 0 0 0 .24-.52c-2.01-2.27-4.11-4.6-6.26-6.93a.314.314 0 0 0-.44-.02c-.13.12-.13.31-.02.44 2.14 2.33 4.24 4.66 6.25 6.93zM368.79 151.29a.32.32 0 0 0 .44.04c.13-.11.15-.3.04-.44-1.23-1.5-3.28-3.96-6.05-7.13a.314.314 0 0 0-.44-.03c-.13.11-.14.31-.03.44 2.76 3.16 4.81 5.62 6.04 7.12zM352.33 132.63c.06.07.14.1.23.1.08 0 .15-.03.21-.08.13-.12.13-.31.02-.44-2.1-2.25-4.26-4.52-6.43-6.77-.12-.12-.32-.13-.44-.01-.12.12-.13.32-.01.44 2.17 2.24 4.33 4.51 6.42 6.76zM106.72 243.29c.03.01.06.01.09.01.13 0 .26-.09.3-.22.91-3.04 1.65-6.1 2.21-9.08a.308.308 0 0 0-.25-.36.308.308 0 0 0-.36.25c-.55 2.97-1.29 6-2.19 9.02-.05.15.04.33.2.38zM117.21 92.82c-.15.07-.22.26-.15.41 1.38 2.9 2.66 5.76 3.8 8.5.05.12.17.19.29.19.04 0 .08-.01.12-.02a.32.32 0 0 0 .17-.41 179.51 179.51 0 0 0-3.81-8.53.326.326 0 0 0-.42-.14zM125.42 113.6c.03 0 .06 0 .09-.01.16-.05.25-.23.2-.39-.9-2.85-1.95-5.82-3.12-8.81a.31.31 0 0 0-.58.22 132.7 132.7 0 0 1 3.1 8.77c.06.13.18.22.31.22zM314.87 276.76c.15 0 .28-.11.31-.26a.308.308 0 0 0-.25-.36c-3.02-.53-6.14-.92-9.29-1.18-.16 0-.32.11-.33.28-.01.17.11.32.28.33 3.13.25 6.23.65 9.23 1.17.01.02.03.02.05.02zM109.89 209.17c-.03-.17-.19-.29-.35-.26-.17.03-.29.18-.26.35.45 3.03.71 6.14.76 9.23 0 .17.14.3.31.3h.01a.3.3 0 0 0 .3-.32c-.06-3.11-.32-6.25-.77-9.3zM109.53 231.18c.15 0 .28-.11.31-.27.46-3.12.73-6.25.81-9.32 0-.17-.13-.31-.3-.32-.17-.01-.31.13-.32.3-.08 3.04-.35 6.15-.8 9.24-.02.17.09.33.26.35.01.02.02.02.04.02zM253.93 361.53c.04.02.08.02.12.02.12 0 .24-.07.29-.19 1.05-2.58 2.54-5.31 4.43-8.11.1-.14.06-.33-.08-.43a.308.308 0 0 0-.43.08c-1.91 2.84-3.42 5.6-4.49 8.22-.08.16 0 .34.16.41zM109.05 206.46c.02 0 .04 0 .06-.01.17-.03.28-.2.25-.36-.59-3.03-1.4-6.07-2.39-9.04a.319.319 0 0 0-.39-.2c-.16.05-.25.23-.2.39.99 2.94 1.78 5.95 2.37 8.96.03.16.16.26.3.26zM268.06 59.38a.3.3 0 0 0 .18.06c.1 0 .19-.05.26-.13.1-.14.06-.33-.08-.43-2.55-1.77-5.15-3.54-7.72-5.25-.14-.09-.34-.06-.43.09-.09.14-.06.34.09.43 2.56 1.69 5.15 3.46 7.7 5.23zM305.94 313.79c-2.81 1.4-5.58 2.88-8.23 4.41-.15.08-.2.27-.11.42.06.1.16.16.27.16.05 0 .11-.01.15-.04 2.64-1.52 5.4-3 8.2-4.39.15-.08.22-.26.14-.42a.308.308 0 0 0-.42-.14zM297.84 81.79c.06.05.13.07.2.07.09 0 .18-.04.24-.12.11-.13.09-.33-.05-.44-2.41-1.96-4.86-3.91-7.3-5.82a.325.325 0 0 0-.44.05c-.11.14-.08.33.05.44 2.44 1.91 4.9 3.86 7.3 5.82zM307.4 89.73c.06.05.13.07.2.07.09 0 .17-.04.24-.11.11-.13.1-.33-.04-.44-2.38-2.02-4.79-4.04-7.16-5.99a.315.315 0 0 0-.44.04c-.11.13-.09.33.04.44 2.38 1.96 4.78 3.97 7.16 5.99zM268.2 341.37c.06.06.14.09.22.09.08 0 .16-.03.22-.09.6-.62 1.23-1.24 1.87-1.87 1.57-1.54 3.21-3.07 4.86-4.54.13-.11.14-.31.03-.44a.314.314 0 0 0-.44-.03c-1.66 1.47-3.31 3.01-4.88 4.56-.65.63-1.27 1.26-1.88 1.88-.12.12-.12.32 0 .44zM278.17 66.6c.06.04.12.06.18.06.1 0 .19-.04.25-.13.1-.14.07-.33-.07-.43-2.51-1.84-5.06-3.67-7.58-5.45a.308.308 0 0 0-.43.08c-.1.14-.06.33.08.43 2.52 1.77 5.07 3.6 7.57 5.44zM288.1 74.07c.06.04.12.06.19.06.09 0 .18-.04.25-.12.1-.14.08-.33-.06-.44-2.46-1.9-4.96-3.79-7.44-5.64a.313.313 0 0 0-.43.06c-.1.14-.07.33.06.43 2.48 1.86 4.98 3.76 7.43 5.65zM257.93 52.48c.1 0 .2-.05.26-.14.09-.14.05-.34-.09-.43-2.6-1.71-5.25-3.4-7.86-5.03a.309.309 0 0 0-.43.1c-.09.15-.05.34.1.43 2.6 1.63 5.25 3.32 7.85 5.03.06.02.12.04.17.04zM328.96 304.34c-2.98 1-5.93 2.06-8.78 3.17a.31.31 0 0 0-.18.4c.05.12.17.2.29.2.04 0 .08-.01.11-.02 2.84-1.1 5.78-2.17 8.75-3.16.16-.05.25-.23.2-.39a.319.319 0 0 0-.39-.2zM317.45 377.63a99.175 99.175 0 0 1-8.21 4.36c-.15.07-.22.26-.15.41a.308.308 0 0 0 .41.15c2.8-1.33 5.58-2.8 8.26-4.39.15-.09.2-.28.11-.42a.309.309 0 0 0-.42-.11zM338.26 284.83c.11 0 .21-.05.27-.15.09-.15.04-.34-.11-.42-2.55-1.51-5.4-2.87-8.45-4.05a.31.31 0 0 0-.22.58c3.02 1.16 5.83 2.51 8.35 4 .05.02.11.04.16.04zM327.68 370.65c-2.4 1.88-4.96 3.68-7.59 5.36-.14.09-.19.28-.1.43.06.09.16.14.26.14.06 0 .11-.02.17-.05 2.65-1.68 5.22-3.5 7.64-5.39.13-.11.16-.3.05-.44-.1-.13-.3-.15-.43-.05zM350.74 342.02a67.71 67.71 0 0 1-4.35 8.18c-.09.15-.05.34.1.43.05.03.11.05.16.05.1 0 .21-.05.26-.15a67.49 67.49 0 0 0 4.39-8.25c.07-.16 0-.34-.16-.41-.15-.08-.33-.01-.4.15zM336.87 362.36c-2.1 2.19-4.38 4.32-6.78 6.34-.13.11-.15.31-.04.44a.32.32 0 0 0 .44.04c2.42-2.03 4.72-4.18 6.83-6.38.12-.12.11-.32-.01-.44a.314.314 0 0 0-.44 0zM344.69 352.79c-1.72 2.5-3.64 4.96-5.72 7.3a.315.315 0 0 0 .47.42c2.1-2.37 4.04-4.84 5.77-7.36.1-.14.06-.33-.08-.43a.307.307 0 0 0-.44.07zM306.42 383.28c-2.9 1.26-5.82 2.36-8.7 3.27-.16.05-.25.23-.2.39.04.13.16.22.3.22.03 0 .06 0 .09-.01 2.9-.92 5.84-2.03 8.76-3.3.16-.07.23-.25.16-.41-.07-.16-.26-.23-.41-.16zM284.66 326.67c-2.52 1.84-4.99 3.78-7.35 5.78-.13.11-.15.31-.04.44a.32.32 0 0 0 .44.04c2.35-1.98 4.81-3.92 7.31-5.75.14-.1.17-.29.07-.43a.284.284 0 0 0-.43-.08zM282.59 389.5h-.01c-.42.02-.83.02-1.24.02-2.72 0-5.4-.22-7.99-.65a.308.308 0 0 0-.36.25c-.03.17.09.33.25.36 2.62.44 5.34.66 8.09.66.41 0 .83-.01 1.26-.02.17-.01.3-.15.3-.32a.3.3 0 0 0-.3-.3zM317.69 308.83a.31.31 0 0 0-.4-.17 175.76 175.76 0 0 0-8.54 3.76c-.15.07-.22.26-.15.41a.308.308 0 0 0 .41.15c2.74-1.3 5.61-2.56 8.51-3.75.16-.06.23-.24.17-.4zM270.33 388.26c-3.23-.78-6.12-1.89-8.6-3.3a.31.31 0 0 0-.3.54c2.53 1.44 5.48 2.57 8.76 3.36.02.01.05.01.07.01.14 0 .27-.1.3-.24a.302.302 0 0 0-.23-.37zM294.75 387.43c-3.22.88-6.28 1.5-9.09 1.83-.17.02-.29.17-.27.34.02.16.15.27.31.27h.04c2.85-.33 5.94-.95 9.19-1.84.17-.04.26-.22.22-.38s-.23-.27-.4-.22zM355.01 330.09a.324.324 0 0 0-.37.23c-.68 3-1.6 5.97-2.72 8.85-.06.16.02.34.18.4.04.01.07.02.11.02.12 0 .24-.08.29-.2a63.61 63.61 0 0 0 2.74-8.94c.05-.16-.06-.32-.23-.36zM295.03 319.77c-2.67 1.61-5.31 3.32-7.83 5.08-.14.1-.18.29-.08.43a.3.3 0 0 0 .25.13c.06 0 .12-.02.18-.06 2.52-1.75 5.14-3.46 7.8-5.06a.32.32 0 0 0 .11-.43.325.325 0 0 0-.43-.09zM385.04 170.42c.07 0 .14-.02.19-.07.13-.11.16-.3.05-.44a326.55 326.55 0 0 0-5.9-7.23.315.315 0 0 0-.44-.04c-.13.11-.15.31-.04.44 2.04 2.43 4.02 4.86 5.89 7.21.07.09.16.13.25.13zM408.36 273.36c-1.92 2.29-4.14 4.48-6.58 6.51-.13.11-.15.3-.04.44a.32.32 0 0 0 .44.04c2.47-2.05 4.71-4.27 6.66-6.59.11-.13.09-.33-.04-.44-.13-.11-.32-.09-.44.04zM405.96 201.22a.31.31 0 0 0 .27-.46c-1.45-2.63-3.04-5.34-4.73-8.05a.309.309 0 0 0-.43-.1c-.15.09-.19.28-.1.43 1.68 2.7 3.27 5.4 4.71 8.02.06.1.17.16.28.16zM414.93 262.97a44.128 44.128 0 0 1-4.66 7.97c-.1.14-.07.33.07.43.06.04.12.06.18.06.1 0 .19-.04.25-.13 1.87-2.54 3.46-5.26 4.72-8.08.07-.16 0-.34-.16-.41-.15-.06-.33 0-.4.16zM416.16 223.56c-.88-2.85-1.94-5.81-3.16-8.79a.313.313 0 0 0-.4-.17.32.32 0 0 0-.17.41c1.22 2.96 2.27 5.9 3.14 8.74.04.13.16.22.3.22.03 0 .06 0 .09-.01a.33.33 0 0 0 .2-.4zM394.61 182.35a.306.306 0 0 0-.43-.07c-.14.1-.17.29-.07.43 1.82 2.58 3.57 5.18 5.21 7.71.06.09.16.14.26.14.06 0 .12-.02.17-.05.14-.09.19-.29.09-.43-1.65-2.53-3.4-5.14-5.23-7.73zM419.25 238.81a.307.307 0 0 0-.34-.28c-.17.01-.3.17-.28.34.15 1.7.23 3.4.23 5.04 0 1.42-.06 2.83-.17 4.2-.01.17.11.32.28.33h.03c.16 0 .3-.12.31-.29.11-1.39.17-2.82.17-4.25 0-1.65-.08-3.37-.23-5.09zM418.69 250.91a.3.3 0 0 0-.35.26c-.45 3.09-1.21 6.1-2.25 8.95-.06.16.02.34.18.4.04.01.07.02.11.02.13 0 .25-.08.29-.2 1.06-2.88 1.82-5.94 2.28-9.07a.31.31 0 0 0-.26-.36zM399.36 281.78c-2.4 1.79-5.03 3.47-7.82 5-.15.08-.21.27-.12.42.06.1.16.16.27.16.05 0 .1-.01.15-.04 2.81-1.54 5.47-3.24 7.89-5.04.14-.1.17-.3.06-.43-.1-.14-.3-.17-.43-.07zM356.21 318.14c-.11 3.09-.43 6.17-.96 9.16-.03.17.08.33.25.36h.05c.15 0 .28-.11.31-.26.53-3.01.86-6.12.97-9.29l-.31-.02-.31.05zM365.17 295.47c-3.1.52-6.19 1.1-9.17 1.71-.17.03-.28.2-.24.37.03.15.16.25.3.25.02 0 .04 0 .06-.01 2.98-.61 6.06-1.18 9.15-1.7.17-.03.28-.19.25-.36-.02-.17-.17-.28-.35-.26zM355.12 305.51c-.17.04-.26.22-.22.38.77 2.84 1.22 5.91 1.32 9.11.01.17.14.3.31.3h.01c.17-.01.31-.15.3-.32-.1-3.25-.55-6.36-1.34-9.25a.316.316 0 0 0-.38-.22zM377.29 292.84c-3.9 1.24-6.48 1.73-6.57 1.75-.83.12-1.65.25-2.47.38-.17.03-.28.19-.26.36.02.15.16.26.31.26h.05c.82-.13 1.64-.26 2.48-.38.11-.02 2.73-.52 6.66-1.77.16-.05.25-.23.2-.39a.323.323 0 0 0-.4-.21zM266.49 343.17a.305.305 0 0 0-.44.02c-2.26 2.44-4.28 4.85-6 7.17-.1.14-.07.33.06.43.06.04.12.06.19.06a.3.3 0 0 0 .25-.13c1.71-2.3 3.72-4.69 5.96-7.12.12-.12.11-.31-.02-.43zM388.79 288.21a81.725 81.725 0 0 1-8.56 3.63c-.16.06-.25.24-.19.4.05.13.17.21.29.21.03 0 .07-.01.1-.02 2.97-1.07 5.87-2.3 8.62-3.66.15-.08.22-.26.14-.42-.06-.15-.24-.21-.4-.14zM144.9 2.11a139 139 0 0 0-9.24-1.38c-.17-.03-.32.1-.34.27-.02.17.1.32.27.34 2.96.34 6.05.8 9.2 1.37.02 0 .04.01.06.01.15 0 .28-.1.3-.25.03-.16-.09-.32-.25-.36zM87.11 212.88c-2.64 1.92-5.29 3.56-7.87 4.88-.15.08-.21.27-.13.42.05.11.16.17.28.17.05 0 .1-.01.14-.03 2.6-1.34 5.28-3 7.95-4.93.14-.1.17-.29.07-.43a.31.31 0 0 0-.44-.08zM253.53 376.22a.31.31 0 0 0-.4-.17.31.31 0 0 0-.17.4c1.14 2.8 3.11 5.26 5.84 7.32.06.04.12.06.19.06.09 0 .19-.04.25-.12.1-.14.08-.33-.06-.43-2.65-1.99-4.55-4.36-5.65-7.06zM99.08 269.54a.3.3 0 0 0-.38.22c-.86 3.12-1.66 6.15-2.4 9.01-.04.17.06.33.22.38.03.01.05.01.08.01.14 0 .26-.09.3-.23.74-2.86 1.54-5.88 2.4-9 .04-.18-.05-.35-.22-.39zM91.41 330.66a.31.31 0 0 0-.58.22c1.21 3.23 3.11 5.62 5.83 7.3.05.03.11.05.16.05.1 0 .21-.05.26-.15.09-.15.05-.34-.1-.43-2.59-1.61-4.41-3.9-5.57-6.99zM129.63 137.65c.01.17.14.3.31.3h.01c.17-.01.3-.15.3-.32a84.2 84.2 0 0 0-.94-9.3c-.03-.17-.19-.29-.35-.26-.17.03-.29.19-.26.35.49 3.12.81 6.23.93 9.23zM126.23 115.96c-.17.05-.26.22-.21.38.87 3.06 1.6 6.1 2.16 9.03.03.15.16.25.3.25.02 0 .04 0 .06-.01.17-.03.28-.19.25-.36-.56-2.95-1.3-6.01-2.17-9.09a.323.323 0 0 0-.39-.2zM125.75 164.77a.31.31 0 0 0-.4.18c-1.09 2.84-2.4 5.67-3.9 8.41a.31.31 0 0 0 .54.3c1.51-2.76 2.83-5.62 3.93-8.49.07-.16-.01-.33-.17-.4zM64.59 222.1c-3.05.2-6.19-.12-9.12-.95-.17-.04-.34.05-.38.21-.05.16.05.34.21.38a27.689 27.689 0 0 0 9.32.97c.17-.01.3-.16.29-.33 0-.16-.15-.3-.32-.28zM84.91 163.61c.06.06.14.09.22.09.08 0 .16-.03.22-.09.12-.12.12-.32 0-.44-2.13-2.17-4.41-4.33-6.79-6.43a.315.315 0 0 0-.44.03c-.11.13-.1.32.03.44 2.37 2.09 4.65 4.24 6.76 6.4zM35.9 206.69a.314.314 0 0 0-.44-.03c-.13.11-.14.31-.03.44 2.18 2.47 4.39 4.72 6.55 6.67.06.05.13.08.21.08.08 0 .17-.04.23-.1.12-.13.1-.32-.02-.44-2.15-1.93-4.34-4.16-6.5-6.62zM25.4 124.85a.316.316 0 0 0-.4.19c-.06.16.03.34.19.4 2.68.94 5.58 2.12 8.61 3.5a.308.308 0 0 0 .41-.15c.07-.16 0-.34-.15-.41-3.05-1.4-5.97-2.59-8.66-3.53zM52.57 220.15c-1.14-.47-2.28-1.02-3.38-1.65h-.01c-.07-.04-1.72-.95-4.44-3.16a.315.315 0 0 0-.44.04c-.11.13-.09.33.04.44 2.72 2.22 4.36 3.13 4.53 3.22 1.12.64 2.28 1.21 3.45 1.69.04.02.08.02.12.02.12 0 .24-.07.29-.19.07-.16 0-.34-.16-.41zM76.46 219.08c-2.99 1.3-5.96 2.2-8.82 2.67-.17.03-.28.19-.26.36.02.15.16.26.31.26h.05c2.91-.48 5.93-1.39 8.97-2.71.16-.07.23-.25.16-.41s-.25-.23-.41-.17zM129.01 152.8c-.17-.02-.33.08-.36.25a65.72 65.72 0 0 1-2.27 8.99c-.05.16.04.34.2.39.03.01.06.02.1.02a.3.3 0 0 0 .29-.21c.97-2.95 1.74-6 2.29-9.07a.313.313 0 0 0-.25-.37zM58.59 141.88a.309.309 0 0 0-.43.1c-.09.14-.05.34.1.43 2.67 1.7 5.27 3.45 7.73 5.2a.3.3 0 0 0 .18.06c.1 0 .19-.05.25-.13.1-.14.07-.33-.07-.43-2.47-1.77-5.08-3.52-7.76-5.23zM89.84 318.52c0-.17-.13-.31-.3-.32-.19 0-.31.13-.32.3-.01.46-.02.9-.02 1.34 0 3.07.24 5.69.75 8 .03.15.16.25.3.25.02 0 .04 0 .07-.01.17-.04.27-.2.24-.37-.49-2.27-.73-4.84-.73-7.87-.01-.42 0-.87.01-1.32zM210.03 24.72c-1.16-.55-2.31-1.09-3.45-1.63a.307.307 0 0 0-.41.15c-.07.16 0 .34.15.41a377.506 377.506 0 0 1 8.4 4.02.32.32 0 0 0 .42-.14c.08-.15.01-.34-.14-.42-1.66-.8-3.31-1.6-4.97-2.39zM195.22 18.03a.316.316 0 0 0-.41.16c-.07.16.01.34.16.41 2.8 1.19 5.66 2.45 8.52 3.76a.308.308 0 0 0 .41-.15c.07-.16 0-.34-.15-.41a339.06 339.06 0 0 0-8.53-3.77zM217.77 28.51a.308.308 0 0 0-.42.14c-.08.15-.02.34.14.42 2.76 1.39 5.54 2.84 8.26 4.3.05.02.1.04.15.04.11 0 .22-.06.27-.16.08-.15.02-.34-.13-.42-2.73-1.47-5.51-2.92-8.27-4.32zM130.02 140.43c-.17 0-.31.14-.31.31v.15c0 3.08-.2 6.14-.58 9.11-.02.17.1.33.27.35h.04c.15 0 .29-.11.31-.27.39-2.99.59-6.08.59-9.19v-.15a.327.327 0 0 0-.32-.31zM253.32 364.25a.3.3 0 0 0-.21-.38.3.3 0 0 0-.38.21c-.63 2.15-.94 4.24-.95 6.2 0 1.08.1 2.14.29 3.15.03.15.16.25.3.25.02 0 .04 0 .06-.01.17-.03.28-.19.25-.36-.18-.97-.28-2-.28-3.04 0-1.9.31-3.92.92-6.02zM239.61 40.43a.298.298 0 0 0-.42.11c-.09.15-.04.34.11.42 2.65 1.55 5.34 3.17 7.99 4.8.05.03.11.05.16.05.1 0 .21-.05.26-.15.09-.15.04-.34-.1-.43-2.66-1.63-5.35-3.25-8-4.8zM183.68 13.37a.31.31 0 0 0-.22.58c2.82 1.08 5.73 2.24 8.65 3.45.04.02.08.02.12.02.12 0 .24-.07.29-.19a.312.312 0 0 0-.17-.41c-2.92-1.21-5.84-2.37-8.67-3.45zM228.78 34.3a.31.31 0 0 0-.3.54c2.7 1.47 5.43 3.01 8.13 4.56.05.03.1.04.15.04.11 0 .21-.06.27-.16.09-.15.03-.34-.11-.42-2.7-1.55-5.44-3.08-8.14-4.56zM157.05 4.79c-3.09-.79-6.15-1.49-9.1-2.09-.17-.03-.33.07-.37.24s.07.33.24.37c2.94.59 5.99 1.29 9.07 2.08.03.01.05.01.08.01.14 0 .26-.09.3-.23a.3.3 0 0 0-.22-.38zM28.24 196.96c-.1-.14-.29-.18-.43-.07-.14.1-.17.29-.07.43 1.86 2.63 3.77 5.12 5.67 7.42a.32.32 0 0 0 .44.04c.13-.11.15-.3.04-.44-1.91-2.28-3.81-4.77-5.65-7.38zM180.77 12.28c-2.97-1.1-5.93-2.14-8.8-3.09a.295.295 0 0 0-.39.2c-.05.16.03.34.2.39 2.87.95 5.82 1.99 8.78 3.08.04.01.07.02.11.02.13 0 .24-.08.29-.2a.32.32 0 0 0-.19-.4zM132.56.42c-3.15-.28-6.23-.42-9.15-.42h-.19c-.17 0-.31.14-.31.31s.14.31.31.31h.19c2.9 0 5.95.14 9.09.42h.03c.16 0 .29-.12.31-.28a.313.313 0 0 0-.28-.34zM169.01 8.23c-3.03-.96-6.04-1.85-8.95-2.64-.17-.04-.34.05-.38.22-.04.17.05.34.22.38 2.9.79 5.9 1.68 8.93 2.64.03.01.06.01.09.01.13 0 .25-.08.3-.22a.33.33 0 0 0-.21-.39zM122.2 336.85c-2.06-.07-3.59-.48-4.55-.52-.99-.04-4.29-.13-5.3-.35-.85-.18-1.38.18-2.66.24-1.39.06-3.02.66-3.19.72-.11.04-.26-.01-.29-.12-.05-.18-.1-.45-.5-.48 0 0-.35-.03-1.61-.09-1.19-.06-1.37 1-1.54 3.61-1.03-.25-1.97-.54-2.85-.87a.31.31 0 0 0-.22.58c.93.36 1.94.66 3.03.93v.02c-.19 2.98.27 3.95.92 3.99l1.8.11c.48.02.45-.56.55-.75.05-.1.24-.18.38-.08 1.71 1.14 3.45.77 4.96.59 1.22-.15 1.62-.06 2.29.16.79.25 1.52-.22 1.41-1.05 1.22.28 1.91-1.2 1.67-1.64l.41.01c.93 0 1.63-1.91.65-2.47-.67-.36-.69-.49-1.16-.63.88-.04 1.21.07 1.51.07.66-.01 1.6-.05 2.43.1.48.09.53-.08 1.92.09 1.78.17 1.9-2.1-.06-2.17zM299.48 275.26c.81.02 1.77.05 2.83.1h.02c.16 0 .3-.13.31-.29a.312.312 0 0 0-.29-.33c-1.08-.06-2.04-.09-2.86-.1-.14-.83-.86-1.45-1.73-1.45-.97.01-1.74.8-1.74 1.76.01.97.8 1.74 1.76 1.74.85 0 1.55-.61 1.7-1.43z"/></g></switch></svg>