<svg id="Layer_1" xmlns="http://www.w3.org/2000/svg" viewBox="0 0 101.51 15.38"><style>.st0{fill:#000000}</style><switch><g><path class="st0" d="M25.22 4.71c.01.07.02.13.04.17.07.1.28.14.61.1.16-.02.34-.02.56-.02l.28.01.28.01c.04-.01.1-.05.16-.12.07-.07.12-.15.15-.24.08-.22-.03-.34-.3-.34h-.17l-.11-.01-.12-.01c-.21-.01-.38-.01-.52-.01-.45.02-.74.1-.88.25l.01.11v.1z"/><path class="st0" d="M45.12 6.47c-.25 1.52-.62 2.67-1.09 3.44-.2.32-.39.52-.57.6-.19.07-.33.02-.44-.16-.21-.46-.3-1.13-.28-2.01.01-.28.03-.62.06-1.02l.02-.24.02-.21c.01-.15.01-.27.02-.36-.01-.14-.12-.31-.34-.52-.19-.19-.36-.31-.5-.36l-.08-.03-.08-.02c-.06-.01-.11.01-.16.06-.1.13-.16.49-.18 1.08.04.46-.06.94-.28 1.46-.27.6-.61.9-1.03.9a.496.496 0 0 1-.05-.18c-.03-.14-.04-.34-.04-.61 0-.71.1-1.76.29-3.16-.01-.13-.09-.32-.25-.56-.23-.2-.46-.28-.68-.25-.23.04-.4.19-.49.47-.02.1-.04.21-.07.35-.03.16-.06.34-.08.52-.04.26-.05.49-.07.73h-.01c-.45 2.21-.98 3.74-1.6 4.58-.22.31-.45.5-.66.59-.17.07-.31.06-.41-.01-.12-.2-.11-1.04.02-2.51.1-1.2.24-2.31.4-3.35.04-.46-.14-.87-.54-1.22s-.74-.39-1.02-.12c-.23.27-.57.86-1.01 1.78-.17.34-.31.65-.44.94-.12.28-.18.43-.18.45-.01-.01-.01-.14.01-.38.01-.14.03-.26.03-.36.01-.15.01-.29.01-.41-.02-.76-.25-1.26-.72-1.48-.05-.06-.14-.09-.25-.09-.13 0-.24.05-.34.15l-.11.12-.12.15c-.09.11-.18.23-.27.36-.22.31-.46.75-.74 1.3 0-.02.01-.1.02-.22.01-.13.02-.29.04-.46.05-.43.1-.76.13-.98.12-.32-.03-.6-.44-.83-.4-.29-.65-.23-.76.18-.16.52-.23 1.16-.22 1.9h-.02c-.25 1.52-.62 2.67-1.09 3.44-.2.32-.39.52-.57.6-.19.07-.33.02-.44-.16-.21-.46-.3-1.13-.28-2.01.01-.28.03-.62.06-1.02l.02-.24.02-.21c.01-.15.01-.27.02-.36.02-.13-.09-.3-.31-.5-.19-.19-.36-.31-.5-.36l-.08-.03-.08-.02c-.06-.01-.11.01-.16.06-.1.13-.16.49-.18 1.08.04.46-.06.94-.28 1.46-.27.6-.61.9-1.03.9a.5.5 0 0 1-.07-.2c-.03-.14-.04-.34-.04-.61 0-.71.1-1.76.29-3.16-.01-.13-.09-.32-.25-.56-.23-.2-.46-.28-.68-.25-.23.04-.4.19-.49.47-.02.1-.04.21-.07.35-.03.16-.06.34-.08.52-.04.27-.05.51-.07.76h-.01c-.4 1.23-.88 2.09-1.46 2.57-.2.17-.4.28-.61.34-.15.04-.27.05-.36.01a.407.407 0 0 1-.11-.06l-.13-.04a.703.703 0 0 1-.29-.21c-.23-.25-.36-.76-.38-1.51.13.02.28 0 .46-.06.21-.07.4-.17.58-.31.46-.36.68-.85.66-1.47-.04-.36-.21-.6-.5-.72-.1-.04-.23-.06-.38-.08l-.19-.01-.17-.01c-.88 0-1.46.51-1.75 1.51-.03.01-.07.03-.1.07-.37.48-.7.81-.99.99-.1.05-.21.1-.32.15l-.13.04-.12.06c.01-.07.03-.14.04-.21.01-.09.02-.18.02-.28.02-.25.02-.5-.02-.73-.1-.65-.41-1.14-.91-1.47-.51-.28-.98-.34-1.42-.19-.45.16-.79.51-1.03 1.06.03-.28.03-.57 0-.85-.06-.19-.16-.36-.29-.49-.16-.16-.32-.2-.49-.16-.08-.1-.17-.06-.26.11-.16.29-.26.98-.31 2.01-.39 1.2-.87 2.03-1.43 2.5-.2.17-.4.28-.61.34-.15.04-.27.05-.36.01-.03-.01-.06-.03-.11-.05l-.13-.04a.825.825 0 0 1-.29-.22c-.24-.25-.36-.76-.39-1.51.13.02.28 0 .46-.06.21-.07.4-.17.58-.31.46-.36.68-.85.66-1.47-.04-.36-.21-.6-.5-.72-.1-.04-.23-.06-.38-.08l-.19-.01-.17-.01c-.9 0-1.49.53-1.77 1.57 0 .01 0 .02-.01.03 0 .03-.01.05-.02.07-.01.05-.01.08-.02.13-.4 1.8-.84 3.13-1.3 3.94-.17.28-.34.52-.53.69l-.11.1-.1.09c-.07.07-.13.12-.16.15-.11.12-.2-.09-.26-.62-.05-.47-.07-1.17-.04-2.08.02-1.16.1-2.64.25-4.45.05-.52-.09-1.05-.43-1.58-.4-.61-.85-.75-1.37-.41-.32.31-.75.86-1.3 1.66-.19.28-.38.56-.55.83l-.26.43c.01-.09.02-.25.03-.49.01-.13.01-.23.01-.3l.02-.34c.05-.57.08-1.09.1-1.58 0-.4-.15-.78-.44-1.14-.31-.38-.65-.53-1.02-.44-.03.03-.03.2-.02.52l.01.11v.12c.01.1.01.2.01.29.01.23 0 .46-.01.69-.14 2.6-.15 4.91-.02 6.93.02.3.09.61.21.92.13.34.26.53.4.58.39.16.6-.77.63-2.77.01-.02.02-.06.02-.12l.01-.08.01-.1c.03-.17.06-.33.09-.48.09-.48.21-.94.36-1.39.45-1.36 1.13-2.5 2.05-3.41.14-.13.18.38.12 1.52-.02.38-.06.86-.1 1.44l-.03.34-.03.33c-.02.24-.03.42-.04.52-.1 1.4-.06 2.69.11 3.87.03.16.1.34.2.54.13.25.29.44.46.58.49.39.99.26 1.52-.39.58-.77 1.06-1.78 1.42-3.04.03-.06.04-.13.06-.19.05.25.12.49.22.73.13.24.38.43.77.57.44.16.88.2 1.35.11 1.02-.19 1.78-.93 2.3-2.18-.02.5-.03 1.17-.04 2.05-.01 1.29 0 2.6.01 3.96.01.36.11.68.3.96.19.28.43.45.7.5.29.07.56-.03.82-.28.29-.28.52-.75.68-1.39.12-.55.06-1.15-.18-1.79-.22-.59-.52-1.04-.9-1.34l.03-.33c.12.07.29.12.53.12.28.01.57-.04.85-.13.79-.28 1.4-.92 1.82-1.89.04-.01.09-.03.16-.06l.08-.03.1-.03c.17-.07.32-.14.46-.21.3-.17.57-.43.83-.73-.1.76-.02 1.47.26 2.12.13.24.38.43.77.57.43.16.88.2 1.34.11 1.05-.2 1.82-.96 2.34-2.28.02.86.16 1.48.44 1.83.26.3.63.38 1.12.25.55-.16.99-.59 1.32-1.3v.12c.01.04.01.09.01.13 0 .05 0 .1.01.16.02.31.07.59.13.84.19.81.55 1.27 1.05 1.38h.02l.07.02.08.01c.08 0 .16 0 .25-.01.24-.04.47-.17.71-.37.57-.52 1.03-1.5 1.37-2.94.09.4.23.71.42.9.13.07.26.06.39-.03.16-.12.27-.36.33-.72.05-.4.28-.93.67-1.59.38-.67.65-.98.79-.94.04.03-.02.49-.17 1.37-.08.44-.13.8-.17 1.07-.04.39-.06.69-.03.9 0 .19.08.39.24.58.12.14.28.29.49.45.22.19.39.1.49-.25 0-.07.01-.14.03-.21.02-.09.06-.16.1-.21.04-.1.13-.31.25-.63l.08-.22.08-.24c.07-.19.14-.37.19-.53.37-.96.72-1.77 1.06-2.41l.04-.04.04-.07c.04-.06.08-.1.1-.11.08-.07.1.01.07.22-.01.04-.03.21-.08.49-.02.13-.04.26-.06.37-.02.15-.04.3-.07.44-.12.8-.21 1.52-.26 2.15-.16 1.99-.01 3.18.45 3.59l.09.06c.04.03.09.05.13.07.12.06.24.1.36.11.34.05.68-.03 1-.26.78-.54 1.42-1.82 1.94-3.81.06.54.19.96.4 1.22.26.3.63.38 1.12.25.55-.16.99-.59 1.32-1.3v.12c.01.04.01.09.01.13 0 .05 0 .1.01.16.02.31.07.59.13.84.19.81.55 1.27 1.05 1.38h.02l.07.01.08.01c.08 0 .16 0 .25-.01.24-.04.47-.17.71-.37.69-.63 1.22-1.93 1.57-3.9a.429.429 0 0 0-.08-.24c-.04-.04-.12-.04-.27-.02zM9.49 5.34c.12-.09.25-.1.38-.03.17.08.25.27.27.56-.06.48-.21.81-.46 1-.17.12-.43.2-.77.22.1-.81.29-1.4.58-1.75zm4.21 5.68c.05.09.1.17.13.25.06.1.11.19.16.29.28.59.39 1.15.32 1.67-.05.49-.18.85-.39 1.06-.11.11-.2.18-.29.19-.33-.19-.35-1.42-.08-3.71 0 .02.05.1.15.25zm.06-1.31c-.02-.35.11-.62.39-.82.12-.07.28-.15.47-.22l.27-.1.29-.09c-.29.77-.77 1.18-1.42 1.23zM15.38 8c-.04.02-.09.03-.16.06l-.1.03-.12.04c-.21.07-.38.14-.53.2-.46.2-.75.43-.87.68 0-.07.01-.44.04-1.1.01-.32.03-.56.03-.71.01-.23.01-.38.01-.46.03-.36.12-.65.27-.89.08-.13.24-.31.47-.52.43-.28.77-.34 1.02-.17.22.14.32.41.31.81 0 .73-.13 1.41-.37 2.03zm5.05-2.66c.12-.09.25-.1.38-.03.17.08.25.27.27.56-.06.48-.21.81-.46 1-.17.13-.43.21-.77.24.1-.83.29-1.42.58-1.77zM54.57 6.4c-.25.91-.59 1.58-1.04 2.02-.15.15-.31.26-.47.34-.06.02-.12.05-.17.06l-.06.02-.04.01c.01-.47-.15-.84-.46-1.1-.28-.22-.6-.33-.96-.31-.26.01-.76.29-1.5.84.43-.4.89-.94 1.38-1.65.98-1.42 1.62-2.92 1.92-4.49C53.35.7 52.83-.01 51.6 0l-.13.03-.15.04c-.12.03-.22.06-.3.09-.24.1-.46.24-.65.43-.52.49-1 1.42-1.42 2.79-.09.3-.18.71-.28 1.22-.12.64-.21 1.29-.28 1.94-.18 1.82-.12 3.34.19 4.58.08.16.18.26.3.31.17.07.39.03.66-.1 0 .2.03.33.09.39.14.16.38.22.73.18.35-.03.7-.15 1.05-.36.92-.54 1.39-1.33 1.41-2.39l.07-.02.1-.03c.07-.02.15-.05.24-.09.21-.1.4-.24.58-.39.52-.46.86-1.09 1.01-1.92.04-.12.02-.22-.07-.29l-.18-.01zm-5.01 1.28l.01-.11.01-.12c0-.1 0-.19.01-.28.04-.52.1-1 .16-1.47.19-1.44.48-2.67.88-3.68.08-.23.19-.47.31-.71.16-.27.31-.49.47-.65.43-.42.8-.38 1.12.1.53.84.31 2.19-.65 4.04-.37.7-.79 1.37-1.27 2.01-.44.59-.8.99-1.09 1.2.03-.06.03-.17.04-.33zm1.23 3.58c-.35.34-.68.42-.97.26-.11-.16.08-.51.58-1.05.5-.55.89-.82 1.17-.81-.14.7-.39 1.24-.78 1.6zm.81-2c-.42.14-.78.33-1.08.57-.25.19-.45.4-.62.64-.18.28-.29.53-.32.75-.07-.54-.08-1.01-.04-1.42.05-.55.19-.96.43-1.21.34-.36.71-.59 1.11-.71.2-.05.35.09.46.41.09.32.11.64.06.97zM101.44 6.48c-.01-.02-.08-.03-.22-.06-.52 2.27-1.01 3.73-1.45 4.37-.16.23-.32.35-.46.36-.05.01-.1 0-.15-.03-.04-.02-.07-.05-.11-.09-.01-.02-.03-.04-.04-.07-.02-.04-.04-.09-.06-.15-.04-.15-.08-.33-.1-.54-.08-.61-.03-1.37.12-2.26l.03-.25.04-.27c.03-.22.05-.41.07-.58.04-.47.05-.89.01-1.27-.07-.37-.31-.68-.72-.91-.27.16-.45.57-.55 1.21-.02.13-.05.3-.09.49l-.02.12c-.04.02-.08.04-.11.06-.73.33-1.33.53-1.79.62.01-.13.02-.3.04-.52.04-.38.07-.67.11-.86a.61.61 0 0 0-.17-.56c-.06-.07-.15-.13-.26-.2L95.41 5l-.16-.09c-.06-.05-.15-.05-.27 0-.13.04-.19.12-.19.21-.11.47-.18.91-.22 1.33h-.03c-.25 1.52-.62 2.67-1.09 3.44-.2.32-.39.52-.57.6-.19.07-.33.02-.44-.16-.21-.46-.3-1.13-.28-2.01.01-.28.03-.62.06-1.02l.02-.24.02-.21c.01-.15.01-.27.02-.36-.01-.14-.12-.31-.34-.52-.19-.19-.36-.31-.5-.36l-.04.01-.08-.02c-.06-.01-.11.01-.16.06-.1.13-.16.49-.18 1.08.04.46-.06.94-.28 1.46-.27.6-.61.9-1.03.9-.02-.04-.05-.1-.06-.2-.03-.14-.04-.34-.04-.61 0-.71.1-1.76.29-3.16-.01-.13-.1-.32-.25-.56-.23-.2-.46-.28-.68-.25-.23.04-.4.19-.49.47-.02.1-.04.21-.07.35-.03.16-.06.34-.08.52-.04.26-.05.49-.07.74-.02.02-.04.02-.05.05-.38.62-.86 1.14-1.44 1.57-.19.14-.41.29-.67.45l-.15.09-.15.09c-.1.06-.19.11-.26.16-.34-.23-.62-.32-.82-.28.01-.01.03-.03.07-.06l.07-.03.08-.06c.07-.04.13-.09.19-.13.07-.06.15-.12.22-.19.4-.37.69-.81.85-1.32.09-.29.01-.55-.25-.77-.24-.19-.5-.29-.8-.29-.37 0-.84.06-1.41.19-.61.13-.95.26-1.03.39 0 .12.01.21.02.3-.22.88-.51 1.67-.89 2.35-.36.64-.71 1.07-1.06 1.28l-.06.02c-.03.01-.06.02-.08.01-.07-.01-.12-.06-.16-.15-.11-.26-.1-.82.01-1.68.1-.31-.03-.61-.4-.89-.11-.12-.23-.12-.35 0-.14.14-.25.43-.34.86-.04.25-.17.51-.38.77-.22.27-.42.41-.61.41-.08-.01-.13-.17-.16-.49-.01-.33.01-.71.08-1.15.17-1.15.53-1.99 1.06-2.52.08-.06.16-.04.25.06.08.08.14.22.19.43.07.25.11.59.13 1.01l.28-.13c.02-.11.01-.29-.04-.54a2.79 2.79 0 0 0-.29-.75c-.37-.63-.88-.8-1.52-.5-.29.13-.57.46-.83.99-.24.5-.41 1.06-.52 1.67-.04.27-.06.51-.07.75-.34 1.23-.67 2.07-.98 2.52-.16.23-.32.35-.46.36-.05.01-.1 0-.15-.03-.04-.02-.07-.05-.11-.09-.01-.02-.03-.04-.04-.07-.02-.04-.04-.09-.06-.15-.04-.15-.08-.33-.1-.54-.03-.65.01-1.4.17-2.3l.03-.25.04-.27c.03-.22.05-.41.07-.58.04-.47.05-.89.01-1.27-.07-.37-.31-.68-.72-.91-.43-.24-.77-.23-1.02.02-.12.12-.22.24-.31.35-.14.16-.27.34-.39.53-.14.21-.26.44-.38.68-.07-.1-.15-.09-.25.03-.22.94-.53 1.77-.93 2.49-.36.64-.71 1.07-1.06 1.28l-.06.02c-.03.01-.06.02-.08.01-.07-.01-.12-.06-.16-.15-.11-.26-.1-.82.01-1.68.1-.31-.03-.61-.4-.89-.11-.12-.23-.12-.35 0-.14.15-.25.44-.33.87-.04.25-.17.51-.38.77-.22.27-.42.41-.61.41-.08-.01-.13-.17-.16-.49-.01-.33.01-.71.08-1.15.17-1.15.53-1.99 1.06-2.52.08-.06.16-.04.25.06.08.08.14.22.19.43.07.25.11.59.13 1.01l.28-.13c.02-.11.01-.29-.04-.54a2.79 2.79 0 0 0-.29-.75c-.37-.63-.88-.8-1.52-.5-.29.13-.57.46-.83.99-.24.5-.41 1.06-.52 1.67-.04.23-.05.43-.06.63-.2.68-.43 1.26-.7 1.7-.2.32-.39.52-.57.6-.19.07-.33.02-.44-.16-.21-.46-.3-1.13-.28-2.01.01-.28.04-1.05.11-2.3l.02-.24.02-.21c.01-.15.01-.27.02-.36-.01-.14-.12-.31-.34-.52-.19-.19-.36-.31-.5-.36l-.08-.03-.08-.02c-.06-.01-.11.01-.16.06-.1.13-.16.49-.18 1.08.04.46-.07 1.37-.34 2.73-.27.6-.61.9-1.03.9-.03-.01-.05-.07-.07-.18-.03-.14-.04-.34-.04-.61-.01 0-.02 0-.03.01.01-.31.04-1.06.11-2.26l.02-.24.02-.21c.01-.15.01-.27.02-.36-.01-.14-.12-.31-.34-.52-.19-.19-.36-.31-.5-.36l-.08-.03-.08-.02c-.06-.01-.11.01-.16.06-.1.13-.16.49-.18 1.08.04.46-.08 1.37-.34 2.73-.27.6-.61.9-1.03.9.02-.03-.01-.09-.02-.19-.03-.14-.04-.34-.04-.61l.22-1.83c-.01-.13-.09-.32-.25-.56-.23-.2-.46-.28-.68-.25-.23.04-.4.19-.49.47-.02.1-.04.21-.07.35-.03.16-.06.34-.08.52-.09 1.17.04 1.98.38 2.41.26.3.63.38 1.12.25.55-.16.99-.59 1.32-1.3v.12c.01.04.01.09.01.13 0 .05 0 .1.01.16.22.79.63 1.1 1.21.92.04-.01.08-.02.11-.02.55-.16.99-.59 1.32-1.3v.12c.01.04.01.09.01.13 0 .05 0 .1.01.16.02.31.07.59.13.84.19.81.54 1.27 1.05 1.38h.02l.03.01.08.01c.08 0 .16 0 .25-.01.24-.04.47-.17.71-.37.34-.31.64-.79.9-1.43.11.48.34.75.69.8a.7.7 0 0 0 .24.06c.13.01.26-.01.39-.04.35-.09.68-.32.99-.68.01.02.03.07.04.15l.02.11.02.12c.06.24.12.43.19.57.22.47.58.6 1.05.39a.61.61 0 0 1 .16-.11l.1-.07.12-.08c.22-.14.43-.32.61-.53.41-.46.77-1.15 1.07-2.02.01.02.01.04.02.06.06-.16.12-.31.17-.44.07-.18.15-.35.22-.52.43-.93.83-1.57 1.21-1.91.25-.17.31.14.19.93.01.15-.02.32-.05.51l-.04.26-.04.24c-.07.37-.1.62-.1.74-.02.22-.03.5-.02.84.01.4.04.78.09 1.14.14.99.4 1.67.76 2.04.1.16.25.25.45.27.25.03.52-.08.79-.33.45-.42.86-1.2 1.22-2.33.12.37.33.59.64.64a.7.7 0 0 0 .24.06c.13.01.26-.01.39-.04.35-.09.68-.32.99-.68.01.02.03.07.04.15l.02.11.02.12c.06.24.12.43.19.57.22.47.58.6 1.05.39a.61.61 0 0 1 .16-.11l.1-.07.12-.08c.22-.14.43-.32.61-.53.57-.64 1.03-1.67 1.4-3.09.04-.02.08-.02.14-.06.06-.02.13-.06.21-.1l.25-.11c.21-.1.38-.18.5-.22.41-.16.68-.2.82-.1.05.11-.12.46-.53 1.05-.15.21-.32.44-.52.71-.08.1-.15.2-.24.3-.07.08-.13.16-.19.25-.1.1-.13.21-.07.33l.04.07.06.08c.04.06.07.11.09.15.08.15.24.16.46.04.03-.03.08-.06.13-.08.07-.03.15-.04.24-.04.23-.01.44.06.63.22-1.54 1.79-2.35 3.26-2.44 4.43-.01.26.06.53.21.81.16.28.38.5.66.66.7.39 1.45.22 2.26-.49l.08-.08c.03-.04.06-.08.1-.12.1-.11.19-.23.27-.35.25-.37.43-.75.54-1.15.34-1.21.06-2.45-.86-3.73.04-.04.18-.14.4-.29.1-.07.19-.14.27-.19.11-.08.22-.17.33-.26.46-.38.87-.87 1.25-1.42-.04 1.12.11 1.9.44 2.32.26.3.63.38 1.12.25.55-.16.99-.59 1.32-1.3v.12c.01.04.01.09.01.13 0 .05 0 .1.01.16.02.31.07.59.13.84.19.81.55 1.27 1.05 1.38h.02l.04-.02.08.01c.08 0 .16 0 .25-.01.24-.04.47-.17.71-.37.52-.47.94-1.31 1.26-2.51.02.16.04.32.07.47l.03.12.04.13c.04.1.09.19.15.26.16.18.42.24.8.18.05-.01.09-.03.12-.06.04-.03.08-.07.1-.13.06-.15.04-.39-.04-.72l-.02-.76c.04-.01.09-.01.13-.02.22-.03.43-.07.65-.13.34-.1.68-.22 1.03-.38-.05.3-.08.5-.08.61-.02.22-.03.5-.02.84.01.4.04.78.09 1.14.14.99.4 1.67.76 2.04.1.16.25.25.45.27.25.03.52-.08.79-.32.75-.7 1.37-2.34 1.86-4.94a.61.61 0 0 0-.08-.24zm-16.01 6.34c-.16.67-.38 1.18-.67 1.51-.35.39-.77.5-1.24.32-.07-.04-.12-.08-.17-.12a.87.87 0 0 1-.17-.21c-.12-.2-.15-.47-.1-.8.13-.9.87-2.2 2.24-3.89.17.27.26.71.28 1.33.02.64-.04 1.26-.17 1.86z"/></g></switch></svg>
