<svg id="Layer_1" xmlns="http://www.w3.org/2000/svg" viewBox="0 0 192.23 188.44"><style>.st0{fill:#fff}</style><switch><g><path class="st0" d="M3.27 144.28c1.48-4.19 3.71-8.64 6.62-13.22a.5.5 0 0 0-.15-.69.5.5 0 0 0-.69.15c-2.95 4.65-5.22 9.16-6.72 13.42-.09.26.04.55.31.64a.493.493 0 0 0 .63-.3zM1 156.43c0-2.37.3-4.87.89-7.43a.503.503 0 0 0-.98-.22c-.6 2.62-.91 5.2-.91 7.65 0 2.56.34 5.03 1 7.36.06.22.26.36.48.36.04 0 .09-.01.14-.02.27-.08.42-.35.34-.62-.64-2.24-.96-4.62-.96-7.08zM12.25 127.16c.16 0 .31-.07.41-.21 2.65-3.73 5.79-7.63 9.33-11.58.18-.21.17-.52-.04-.71a.505.505 0 0 0-.71.04c-3.57 3.98-6.73 7.9-9.4 11.67a.499.499 0 0 0 .41.79zM31.91 185.85c-5.17-1.09-9.88-2.69-13.98-4.76a.505.505 0 0 0-.67.22c-.12.25-.03.55.22.67 4.18 2.11 8.97 3.74 14.23 4.84a.501.501 0 0 0 .59-.39.502.502 0 0 0-.39-.58zM3.76 168.03a.498.498 0 0 0-.67-.21.49.49 0 0 0-.21.67c2.21 4.23 5.65 7.92 10.25 10.97a.522.522 0 0 0 .7-.14c.15-.23.09-.54-.14-.69-4.47-2.96-7.81-6.52-9.93-10.6zM35.33 100.57c-1.98 1.8-3.95 3.67-5.85 5.53-1.67 1.64-3.3 3.3-4.85 4.93a.504.504 0 0 0 .36.85c.13 0 .26-.05.36-.16 1.54-1.62 3.16-3.27 4.82-4.91 1.89-1.86 3.85-3.71 5.82-5.51.2-.19.22-.5.03-.71-.17-.19-.48-.2-.69-.02zM39.38 98.14c.12 0 .23-.04.33-.12 3.72-3.22 7.61-6.37 11.59-9.36.22-.17.27-.48.1-.7a.496.496 0 0 0-.7-.1c-3.99 3-7.91 6.17-11.64 9.41-.21.18-.23.5-.05.71.09.1.23.16.37.16zM106.05 6.58c5.04 1.04 9.88 2.31 14.4 3.79.05.02.1.02.16.02.21 0 .41-.13.48-.34a.5.5 0 0 0-.32-.63c-4.55-1.49-9.43-2.78-14.51-3.82a.502.502 0 0 0-.59.39c-.07.27.11.53.38.59zM159.61 40.43c-4.92 1.11-9.8 2.3-14.53 3.56-.27.07-.42.35-.35.61.06.22.26.37.48.37.04 0 .09-.01.13-.02 4.71-1.25 9.58-2.45 14.49-3.55.27-.06.44-.33.38-.6a.505.505 0 0 0-.6-.37zM153.99 30.55c.1.11.23.16.37.16a.501.501 0 0 0 .37-.84c-3.26-3.55-7.1-6.83-11.42-9.74a.498.498 0 0 0-.55.83c4.24 2.87 8.03 6.1 11.23 9.59zM164.36 47.17c.08.2.27.32.47.32.06 0 .12-.01.18-.03.26-.1.38-.39.28-.65a53.252 53.252 0 0 0-7.34-13.08c-.17-.22-.48-.26-.7-.09s-.26.48-.09.7c2.99 3.91 5.41 8.23 7.2 12.83zM51.59 187.29c-1.37.1-2.7.15-3.95.15-3.66 0-7.31-.25-10.85-.74a.49.49 0 0 0-.56.43c-.04.27.15.53.43.56 3.59.5 7.28.75 10.99.75 1.28 0 2.63-.05 4.02-.15.28-.02.48-.26.46-.54a.516.516 0 0 0-.54-.46zM106.95 57.12c.08.19.27.31.46.31.06 0 .13-.01.19-.04 4.53-1.82 9.23-3.57 13.97-5.21.26-.09.4-.38.31-.64a.506.506 0 0 0-.64-.31c-4.76 1.64-9.47 3.4-14.02 5.23-.25.11-.37.4-.27.66zM88.76 65.22c.09.18.26.28.45.28.07 0 .15-.02.22-.05 4.38-2.14 8.94-4.21 13.57-6.17.25-.11.37-.4.27-.65a.509.509 0 0 0-.65-.27c-4.64 1.96-9.23 4.04-13.62 6.19-.26.13-.36.42-.24.67zM86.37 3.82c5.02.4 10 1.02 14.8 1.84.03 0 .06.01.08.01.24 0 .45-.17.49-.42a.506.506 0 0 0-.41-.58c-4.83-.83-9.84-1.45-14.88-1.85-.28-.02-.52.18-.54.46s.19.52.46.54zM85.21 67a.502.502 0 0 0-.67-.22c-4.47 2.29-8.88 4.72-13.1 7.22a.505.505 0 0 0 .25.94c.09 0 .17-.02.25-.07 4.21-2.49 8.6-4.91 13.05-7.19a.52.52 0 0 0 .22-.68zM160.6 109.54a.507.507 0 0 0-.66.26c-1.94 4.49-4.23 8.92-6.82 13.19-.14.24-.07.54.17.69.08.05.17.07.26.07.17 0 .33-.08.43-.24 2.62-4.3 4.93-8.78 6.89-13.31.1-.26-.02-.55-.27-.66zM140.28 45.3c-4.85 1.36-9.66 2.82-14.31 4.35a.5.5 0 0 0-.32.63c.07.21.26.34.48.34.05 0 .1-.01.16-.02 4.64-1.52 9.44-2.98 14.27-4.34.27-.07.42-.35.35-.62a.53.53 0 0 0-.63-.34zM166.59 90.59a.488.488 0 0 0-.59.38c-1.04 4.82-2.46 9.6-4.19 14.23a.488.488 0 0 0 .47.67c.2 0 .39-.12.47-.32 1.76-4.67 3.18-9.51 4.24-14.37a.528.528 0 0 0-.4-.59zM150.45 127.16c-2.71 4.04-5.75 8.01-9.04 11.8-.18.21-.16.52.05.71.09.08.21.12.33.12.14 0 .28-.06.38-.17 3.32-3.82 6.38-7.83 9.11-11.9.15-.23.09-.54-.14-.69a.49.49 0 0 0-.69.13zM168.76 66.88h.02c.28-.01.49-.25.48-.52-.23-5.2-1.03-10.18-2.36-14.8a.497.497 0 0 0-.62-.34c-.27.08-.42.35-.34.62 1.31 4.54 2.09 9.45 2.32 14.57.01.26.23.47.5.47zM179.16 36.51c-4.95.88-9.89 1.84-14.68 2.85-.27.06-.44.32-.39.59.05.23.26.4.49.4.04 0 .07 0 .1-.01 4.78-1.01 9.7-1.97 14.64-2.85.27-.05.45-.31.41-.58a.489.489 0 0 0-.57-.4zM67.85 76.76a.501.501 0 0 0-.69-.16c-4.26 2.64-8.44 5.44-12.45 8.31-.22.16-.28.47-.11.7.1.14.25.21.41.21.1 0 .2-.03.29-.09 3.98-2.86 8.15-5.64 12.39-8.27.24-.16.31-.47.16-.7zM168.82 70.86c-.28.01-.5.21-.51.49l-.03 1.07c-.16 4.61-.61 9.22-1.36 13.7-.05.27.14.53.41.58.03 0 .06.01.08.01.24 0 .45-.17.49-.42.75-4.52 1.21-9.17 1.37-13.83l.03-1.08c.02-.29-.2-.52-.48-.52zM107.23 167.44a162.13 162.13 0 0 1-13.08 7.13.5.5 0 1 0 .44.9c4.48-2.18 8.91-4.59 13.16-7.17.24-.14.31-.45.17-.69a.498.498 0 0 0-.69-.17zM89.65 176.67c-4.61 2.07-9.28 3.89-13.88 5.42a.51.51 0 0 0-.32.63c.07.21.27.34.47.34.05 0 .11-.01.16-.03 4.63-1.54 9.33-3.37 13.97-5.45.25-.11.36-.41.25-.66a.48.48 0 0 0-.65-.25zM123.51 156.08c-3.82 3.06-7.89 5.99-12.08 8.71a.5.5 0 0 0 .27.92c.09 0 .19-.03.27-.08 4.22-2.74 8.31-5.69 12.15-8.77a.496.496 0 0 0-.61-.78zM138.1 142.64c-3.33 3.55-6.95 7-10.76 10.27-.21.18-.23.5-.05.71.1.12.24.17.38.17.11 0 .23-.04.32-.12 3.84-3.29 7.49-6.77 10.84-10.35.19-.2.18-.52-.02-.71a.514.514 0 0 0-.71.03zM138.8 18.41c.17 0 .34-.09.43-.25.14-.24.06-.54-.18-.68-4.11-2.39-8.68-4.54-13.58-6.39a.503.503 0 1 0-.36.94c4.85 1.84 9.36 3.96 13.43 6.32.09.04.18.06.26.06zM71.03 183.56c-5.1 1.48-9.98 2.56-14.52 3.2-.27.04-.46.29-.43.57.04.25.25.43.49.43h.07c4.59-.65 9.52-1.73 14.66-3.23a.504.504 0 0 0-.27-.97zM191.65 34.47c-2.5.37-4.97.77-7.42 1.17-.27.04-.46.3-.41.58.04.24.25.42.49.42.03 0 .05 0 .08-.01 2.44-.41 4.91-.79 7.4-1.17.27-.04.46-.3.42-.57a.483.483 0 0 0-.56-.42zM74.11 5.64a2.82 2.82 0 0 0 2.75-2.31c1.31.03 2.84.08 4.55.17h.03a.494.494 0 1 0 .03-.99c-1.74-.09-3.29-.14-4.61-.17A2.81 2.81 0 0 0 74.07 0a2.817 2.817 0 0 0-2.8 2.84 2.83 2.83 0 0 0 2.84 2.8z"/></g></switch></svg>