<svg xmlns="http://www.w3.org/2000/svg" viewBox="0 0 87.55 48.17"><path d="M48.71 34.87c-.69 0-1.3.58-1.3 1.38v10.46h2.6V36.26c0-.83-.59-1.39-1.3-1.39m0-1.37c.82 0 1.47-.65 1.47-1.46 0-.8-.65-1.46-1.47-1.46-.81 0-1.46.66-1.46 1.46 0 .8.65 1.46 1.46 1.46m26.3.98c-.76 0-1.2.59-1.3 1.32-.37-.39-1-.93-2.13-.93-2.54 0-4.32 2.38-4.32 5.93 0 3.61 1.67 5.92 4.32 5.92 1.06 0 1.75-.6 2.21-1.19v1.19h2.58V35.8c-.01-.64-.44-1.32-1.36-1.32m-3.09 9.93c-1.25 0-2.09-1.31-2.09-3.62s.8-3.62 2.09-3.62c1.14 0 1.99 1.14 1.99 3.62 0 2.49-1.01 3.62-1.99 3.62m-7.75-13.82c-.7 0-1.3.58-1.3 1.38v14.75h2.6V31.97c0-.83-.59-1.38-1.3-1.38m20.77 4.54s-2.19 5.05-2.3 5.5h-.06c-.11-.43-2.01-5.54-2.01-5.54h-2.91l3.48 8.61c.09.21.12.33.12.43 0 .11-.06.24-.15.37-.25.41-.68.82-1.08 1.03-.38.21-.77.36-1.09.42-.59.1-1.04.55-1.04 1.09 0 .61.58 1.11 1.29 1.11.09 0 .17-.01.26-.02.66-.07 1.63-.36 2.53-1.13.96-.83 1.77-2.14 2.98-5.43l2.6-6.47-2.62.03zm-43.76 9.45V30.66l-2.6 1.54v14.48h7.54v-2.1zm19.05-12.59c-.87-.92-2.19-1.38-3.92-1.38-1.18 0-2.25.1-3.29.3l-.33.06V46.7h2.55v-5.98c.31.04.56.05.87.05 1.81 0 3.33-.64 4.26-1.8.73-.88 1.1-2.06 1.1-3.51.01-1.42-.44-2.65-1.24-3.47m-4.07 6.37c-.4 0-.64-.02-.91-.07v-5.2c.27-.04.59-.08 1.1-.08 1.22 0 2.67.44 2.67 2.54-.01 1.81-1.02 2.81-2.86 2.81m-38.18-3.03c0 .68-.5 1.21-1.28 1.21-.75 0-1.24-.53-1.24-1.21 0-.69.51-1.23 1.26-1.23.76 0 1.24.53 1.26 1.23m-2.4 2.48h2.27v8.9h-2.27v-8.9zm4.68 2.65c0-1.02-.02-1.88-.07-2.65h1.98l.11 1.34h.06c.38-.69 1.35-1.54 2.83-1.54 1.55 0 3.16 1.01 3.16 3.82v5.28h-2.25v-5.03c0-1.28-.48-2.25-1.7-2.25-.9 0-1.52.64-1.75 1.32-.07.2-.09.48-.09.73v5.23h-2.27v-6.25zm12.85-5.13c0 .68-.49 1.21-1.28 1.21-.75 0-1.24-.53-1.24-1.21 0-.69.51-1.23 1.26-1.23.77 0 1.25.53 1.26 1.23m-2.39 2.48h2.27v8.9h-2.27v-8.9zM.07 40.46c0-1.02-.02-1.88-.07-2.65h1.94l.09 1.32h.05c.44-.69 1.24-1.52 2.74-1.52 1.17 0 2.08.66 2.47 1.65h.04c.31-.49.68-.86 1.1-1.11.49-.35 1.06-.53 1.79-.53 1.48 0 2.98 1.01 2.98 3.86v5.25h-2.19V41.8c0-1.48-.51-2.36-1.59-2.36-.77 0-1.33.55-1.57 1.19-.06.22-.11.49-.11.75v5.34h-2.2v-5.16c0-1.24-.49-2.12-1.54-2.12-.84 0-1.41.66-1.61 1.28-.09.22-.13.48-.13.73v5.27H.07v-6.26zM18.21 7.88c-2.19 0-3.82 1.32-4.78 2.88V6.69L9.01 9.42v17.32c0 .94.54 2.38 2.31 2.38.97 0 2.1-.92 2.1-2.38V14.83l5.18-3.13v16.98h4.41V12.47c.01-3.04-2.05-4.59-4.8-4.59M2.6 7.64C1.36 7.64.29 8.67.29 10.1v18.58h4.62V10.1c0-1.47-1.05-2.46-2.31-2.46M2.59 5.2c1.45 0 2.61-1.16 2.61-2.6C5.2 1.17 4.04 0 2.59 0 1.16 0 0 1.17 0 2.59 0 4.04 1.16 5.2 2.59 5.2m31.68 11.51c-2.77-1.16-3.56-1.93-3.56-3.05 0-1.11.99-2.08 2.35-2.08 1.48 0 2.61.66 3.38 1.42l1.85-3.37c-1.42-1.11-3.08-1.94-5.73-1.94-3.38 0-6.43 2.43-6.43 6.01 0 3 2.16 4.97 5.33 6.15 2.53.94 3.2 1.66 3.2 3.16 0 1.06-.8 2.04-2.29 2.04-1.33 0-2.29-.85-3.08-1.6-.88-.83-2.43-.84-3.14-.05-.61.67-.84 1.82.06 3.03.84 1.12 2.96 2.69 6.16 2.69 3.46 0 6.79-2.28 6.79-6.35 0-3.36-1.59-4.68-4.89-6.06m14.05-8.68V2.76L43.69 5.5v2.53h-2.32c-1.1 0-1.98.82-1.98 1.9 0 1.03.85 1.84 1.98 1.84h2.32v16.91h4.63V11.77h3.7V8.03h-3.7zm18.47-1.09c-1.35 0-2.14 1.04-2.32 2.35-.65-.68-1.77-1.66-3.79-1.66-4.51 0-7.67 4.23-7.67 10.53 0 6.42 2.97 10.52 7.67 10.52 1.89 0 3.11-1.06 3.93-2.11v2.11h4.58V9.3c0-1.15-.77-2.36-2.4-2.36M61.3 24.59c-2.22 0-3.71-2.33-3.71-6.43s1.42-6.44 3.71-6.44c2.03 0 3.54 2.03 3.54 6.44-.01 4.42-1.8 6.43-3.54 6.43m21.29-6.71l4.96-9.86h-4.98L79.56 14l-3-5.98h-4.99l4.96 9.86-5.43 10.8h4.98l3.48-6.9 3.1 6.16c.65 1.14 1.93 1.56 3.07.92s1.4-2.08.76-3.23l-3.9-7.75z"/></svg>