<svg xmlns="http://www.w3.org/2000/svg" viewBox="0 0 421.76 97.18"><path d="M25.73 22.45v-.19c-.28-.09-.19.57 0 .19zM4.67 62.24c0 .28-.19.37-.19.56.38.18.29-.56.19-.56zm.1.93c-.04.24-.02.47.03.68 0-.27.1-.61-.03-.68z"/><path d="M4.86 64.1v-.06c-.02-.06-.05-.13-.06-.2-.01.11.01.21.06.26zm8.48-43.98c0 .19.09.47.28.47 0-.09.09-.56-.28-.47zm-9.6 29.54c-.47 0-.09.09-.19.28.19 0 .28-.09.37-.19-.18 0-.18 0-.18-.09zm-2.7-6.71h.09c0-.09-.09 0-.09 0zm3.45 18.36l.19.56c.09.74.09-1.03-.19-.56z"/><path d="M29.92 37.92c-.09 0-.09.19-.37.09 0-.47 0-.19-.19-.09 0-.09.09-.28.09-.37-.47-.09-.75-.19-1.02-.56 1.12-4.1 2.52-10.34 3.26-15.37-.19-2.52-2.61-3.63-4.47-3.73 0 1.21-1.21 2.42-1.21 3.73 0-.19.09 0 .09 0-.09.19-.09.65-.37.84 0 .56-.37.09-.28.65.28.19-.37 1.3-.47 1.68 0 .47 0 .84-.19 1.02 0-.19 0-.28-.19-.28.19.28-.19.37.19.56-.19.19-.37-.19-.28.19 0 .09.09-.09.09.09-.65 1.77-.84 4.01-1.68 6.06-.09.93-.19 1.77-.65 2.42.09 1.12-.65 1.4-.47 2.24-1.3.28-3.45.19-4.84.75 0-.28.19-.28 0-.37-.47.56-.93.19-1.68.47.28-.37-.19-.28-.19-.37.93-4.56 1.58-8.66 2.61-12.95-.19-.09-.19.09-.37 0 .19-.56.28-.93.47-1.12.28-1.58-.47-2.89-1.77-2.8.09-.19-.09-.09-.09-.37-.37.19-1.02-.09-1.49-.19.09 0 .09-.09.09-.09-.19.19-.28.28-.75.09-.09.09.09.56-.19.47-1.4 4.19-2.79 8.94-3.82 13.7.09.19.19.28.09.56-.37-.09-.19.28-.47.28-.28 1.68-.56 3.63-1.3 5.03-.26-.12-.54.26-1.1.44 0-.19.09-.28.09-.37-.56 0-.37.37-.56.47 0-.09 0-.28-.09-.28-.37.84-1.21.56-1.77 1.12.09 0 .09-.09.09-.28-.84.19-1.03.65-1.68.75-.09.09.09.28 0 .28-.28 0-.37-.19-.47-.19 0 .28 0 .47-.19.37 0 0 .19-.37 0-.37-.28.28 0 .37-.28.47-.19-.19-.09.28-.47.28.19-.19.19-.28 0-.37-.28 0-.28.47-.56.47 0 .09 0 .28-.09.28v-.28c-.28.47-.56.47-1.02.65-.09.47.28.47.37.65-.56.09 0 .56-.37.93.37.47.56.84.93 1.21h.75c1.86-1.12 3.82-2.05 5.96-2.7-.09.28 0 .28.09.56-.09-.09-.09 0-.19 0-.28 1.68-.84 3.07-.93 4.75-.65.28-1.3.65-2.14.75.19-.09.28-.37-.09-.19 0 .56-1.21.84-1.68.93 0-.28.65-.19.84-.56-.75-.09-.93.75-1.4.28.37 1.77.93 3.45 2.52 3.91 0 .09-.19.19-.28.28.47.19.47-.09.93-.19 0 .37-.37.19-.28.47.28.09.37-.47.56-.09-.65 2.87-.74 6.11-.74 9.45.48 1.28 2.44 1.89 3.45 1.27v.28c.37 0 .09-.56.47-.56v.28c.75-1.02 1.21-2.52 1.3-4.29.19 0 .19-.09.28-.09.56-3.26 1.12-5.96 1.68-8.76 1.58-.56 2.89-.65 4.01-1.21.75.47 1.68-.47 2.7-.09-.28 0-.09.19-.28.19-.09 0 0-.19-.19-.19.09.56.19.93-.09 1.21.56.28-.56 1.4-.28 1.49 0-.09.19-.09.19 0h-.19c-.19.75-.09 1.3-.28 1.86.19.65-.37.93-.28 1.12.28 0-.09.56-.19.65.37.28-.56.75-.19 1.12.09-.09 0-.19.09-.19 0 .09 0 .19-.09.19.09.56-.28.84-.47 1.49 0 .19.47 0 .28.37-.09.19-.09-.19-.28.09.56.65-.65 1.68 0 1.86 0 .37-.28 0-.37.47.37.93 0 1.58-.09 2.79-.09-.09-.19 0-.19.19 0 .28.19-.19.19.19 0 .09.09.28 0 .28s-.09-.19-.19-.19c.09.47-.28.75 0 1.02.19-.19 0-.56.19-.56-.09.56-.09 1.21-.19 1.68 0-1.96-.19-.19-.28.65-.09 1.77 0 4.1.09 6.24.28 2.14.28 4.29 1.3 5.13.09-.19.28.09.37.09.28-.28.93.37 1.3-.28 0-.37-.28-.37-.19-.65.28.09.28.28.37.37.09-.19 0-.75.37-.84.09.19.19-.28.37.19 0-.28-.19-.28-.09-.65.37-.65 1.12-1.03.93-2.24.09-.09.09.09.28.09.28-1.96.93-4.01.75-6.15.09 0 .09.09.19.09.75-7.08 2.61-13.42 3.91-20.4.37-.37 1.3-.09 1.58-.56-.09.56.47.09.65.09 0-.19.09-.37.19-.47.56 0 .84 0 1.49-.19-.19-.09-.56.09-.65-.28.84-.19 1.03-.75 2.14-.65-.19-.56 1.3-.19.75-.65h.47c-.09-.37.19-.19.47-.19.09-.37-.28-.37-.28-.56.28 0 .09-.28.28-.28.19-.09.19.09.37.09.19-.19-.09-.19 0-.37-.19-.19-.19.09-.28.09-.93-.84-1.96-.28-2.52-.84-.19.37-.84.19-1.21 0 0 .56-.28-.28-.47.28-.09-.09-.28-.56-.37-.28 0 .19.19 0 .19.28-.37 0-.37-.28-.65 0 .09-.28.19-.37 0-.47-.28.19-.56.19-.93 0 .09-1.12.65-2.24.56-3.26.65.09.37-.28.37-.28 1.86 0 3.54.28 4.66 1.21 0 .28-.28.19-.19.56.28-.28.19.19.28.47.28.09.93.28 1.03.37.37-.09.37-.37.56-.56-.07-3.05-2.49-4.17-4.08-5.29zm-21.05.65v-.09c.46 0-.28.56 0 .09zm2.23-9.04c0 .47-.28.1 0 0-.09-.46.28-.09 0 0zm4.57 40.35c.28.37.19 1.86.19 2.7-.29-.37-.01-1.96-.19-2.7zm.18 3.35c-.18 0 0-.09 0 0 .19 0-.18.37 0 0zm1.68-16.4c.09 0 .19.09.19.19-.19 0-.19-.09-.19-.19zm-3.73-9.41c.09-.28.19-.28.47-.28-.09.19-.28.19-.47.28zm.94-.28c0-.09.09-.09.09-.09 0 .09-.09.09-.09.09zm1.77-.37c.09-.19.47-.19.56-.28.09.37-.38.09-.56.28zm.74-.19c0-.06.04-.04.07-.05-.03.04-.07.05-.07.05zm.84-.09c0-.09.09-.09.19-.09 0 .09-.1 0-.19.09zm1.12-.18c0-.28.37-.37.56-.28-.19.28-.38.28-.56.28zm1.49-4.85c-.09.84-.19 1.96-.56 2.8-.09-.09-.09-.19-.09-.28-.09 0 0 .28 0 .37.09 0 .09.28.09.37.37-.19.19.56 0 0-.09.47-.37.75-.56 1.12-1.96.19-4.29.75-6.43 1.12-.09-1.21.47-3.54 1.03-5.03.93-.47 2.42-.56 3.35-.75v.28c.28-.09.75-.09.84-.28.51.26 1.95-.57 2.48.01-.14.03-.15.19-.15.27.19 0 0 .09 0 0zm.19-.21c.03.04.07.07.09.12-.07 0-.08-.06-.09-.12zm1.95-7.24c-.09 0 0-.09 0-.28.28.18 0 .18 0 .28zm2.17-8.15c.03-.04.07-.05.07-.05 0 .06-.04.04-.07.05zm6.31 21.1c0 .09-.19 0-.28 0 0-.1.19 0 .28 0zm-3.63 2.14c0 .09-.09 0-.28.09 0-.09.18-.09.28-.09z"/><path d="M31.88 45.19c.19 0 .19.19.28 0 0 0-.28-.1-.28 0zm-11.83-.84c-.19.19-.19.37-.19.56.09-.1.19-.28.19-.56zm-4.1 20.03c0 .09-.09.47.09.37.09-.28 0-.37-.09-.37zm-2.33-17.8c.09 0 .19.19.28.19v-.28c-.19-.09-.28 0-.28.09zm2.23-.27h.19v-.28h-.19v.28zm24.04 18.72c0 .19 0 .19-.19.19v.09h.28c.09-.09.09-.09-.09-.28z"/><path d="M63.65 65.96c-.28.47-1.58 1.02-2.14 1.02-.19.19-.56.84-.93.47-.28.93-1.58.84-1.96 1.77-.28-.09-.28 0-.56 0-1.03 1.21-1.86 1.3-3.08 2.42-1.4.47-2.05 1.4-3.26 1.77 0 .28 0 .37-.09.37-1.49.09-2.7 1.58-4.66 1.58.19-.28-.09-.28-.09-.37.09-.09.09-.56.09-.75 0-.28-.37-.09-.19-.47.19-3.17.65-5.78 1.21-8.76.37-1.4.47-3.07.84-4.29 0-.75.37-1.12.28-1.68.37 0 .09-.75.37-.37.09-.19-.09-.19-.09-.47 2.33-10.25 4.66-20.68 7.55-31.03.28-1.49.56-2.79 1.12-4.19.28-2.98 1.77-6.15 1.96-9.04-.19-.56-.47-1.3-.37-2.05-.19-.09-.09.47-.37.28 0-.84-1.12-.56-1.3-1.21-.19 0-.19.19-.37.19-.65-.75-1.4-.19-2.42-.65-.37.47-1.12.19-1.68.28 0 .84.09 1.12-.19 1.96 0 .09-.19 0 0 0 0-.09.09-.56-.19-.56 0 .28-.09.56-.09 1.02.28 0 .28-.19.37.09-.28.09-.37.47-.47.56-.09 1.68-1.12 2.79-1.12 4.75-.09 0-.19.19-.19.28-.19.56.19.56.19.84-.09.19-.37.19-.65.19.09.37-.47.84.09.84.19-.19-.09-.65.37-.56-.19.09.09.47-.37.56.19.56-.37.56-.56 1.12.37.09.09-.47.47-.28-.09.56-.09.84-.28 1.12-.19 0 .19-.75-.19-.56-.09.37-.56 1.49-.65 2.05.19 0 .19.28.28.28.19-.37-.28-.93.28-1.02-.09 1.02-.28 2.05-.65 2.79.19-.37.09-.56-.19-.75 0 .28 0 .75.28.93-.47 1.12-.65 2.98-1.4 4.1-.28 1.86-.56 3.35-1.21 4.75.28 0 .09.37.09.65h-.19c-.47 2.24-1.02 4.19-1.77 6.34.19-.37-.09-.75.09-1.3-.37.37-.37 1.3 0 1.4-.37.56 0 1.3-.65 1.12-.09.28.28 0 .28.19-.19.56-.19 1.58-.56 1.77 0 .28.19 1.12-.28 1.3.47.37-.56 1.12-.28 1.68-.09-.19-.09.09-.28.09-.09.19.19.19.19.28h-.28c-.49 2.46-1.09 4.95-1.68 7.45v-.37h-.37c.09.09 0 .37.37.37-.53 2.23-1.05 4.47-1.49 6.71-.09-.28-.19.09-.19-.19-.19-.19.19-.65 0-.75 0 .37-.47.93-.28 1.3.09-.28.09.19.28.19.09-.19.09-.28.19-.37.09.37-.19.37-.19.65.28.28.37.47.19.65-.37-.09 0-.28-.19-.37-.28.19-.28.28 0 .65-.28 0-.37.09-.47.19.19.28.19-.09.28.09-.19.37-.28.56-.19 1.02-.53.19-.56.56-.55.92.08-.14.4-.26.17-.26.19-.19.28 0 .28 0 0 .28-.09.28 0 .47-.27.09-.11-.08-.45-.09.02.3.04.58-.21.74.09 0 .09 0 .09.19.09-.28.56-.19.47.19-.37 0-.37-.19-.47-.19-.09.28-.28 1.21 0 1.49-.09.19-.09 0-.37 0 .09.37 0 .37.28.75-.47 1.21.19 2.61.37 3.63.28 0 .28-.09.37-.09.19 1.02.65 1.58 1.49 1.77.65.84 1.3 1.49 2.05 1.96a9.68 9.68 0 0 0 6.15 2.79c3.26 0 6.06-1.68 8.29-2.79 0 0 .09 0 .09-.19-.09 0-.09-.19 0-.28 0 .09.19.09 0 .19h.37c.19-.09.09-.19.19-.47 1.58-1.21 3.35-2.33 4.84-3.73 1.49-.56 2.42-1.68 3.54-2.7 0 .09-.09.28 0 .28.47-.75 1.4-1.21 2.42-1.49 0-.28-.19-.84.09-.93 0-.09-.09-.47.19-.37 0 .28 0 .37-.19.37v.19c.09 0 .19.19.28.19-.09-.56.56-.37.56-.75-.09 0-.37.28-.56 0 .75-.28 1.3-.56 1.86-.75.09-.19-.19-.19.09-.56.84-.09 1.12-.93 1.86-1.02 0-.28-.09-.28 0-.75-3.3-1.19-7.3.3-10 1.23zM52 17.89c.28.09 0 .37 0 .47-.28-.1.19-.28 0-.47zm-1.3 5.12c.19 0 .09.37 0 .47-.1-.09 0-.19 0-.47zm-.47 3.26h.28v.37h-.28v-.37zm-.65 3.36c.09.09 0 .19 0 .37-.1-.19 0-.28 0-.37zm-.19.93c.19 0 .09.75-.19.75.19-.38 0-.66.19-.75zm-.28 1.4c0 .09-.19.09-.28.09 0 0 .1 0 .28-.09zm-2.14 6.71h.28v.28h-.28v-.28zm-7.55 32.98c-.09-.19-.09-.56-.09-1.02.37.18.09.74.09 1.02zm.28-1.4h-.28v-.28h.28v.28zm0-1.3c-.19 0-.19-.19-.19-.37.47-.19.38.27.19.37zm.37-1.77c0-.09.09-.09.19-.09 0 .09-.09.09-.19.09zm.1-1.31c.28-.09.09.19.28.28-.19 0-.28-.09-.28-.28zm.37-.37h-.09v-.19h.09v.19zm1.02-3.64h-.28v-.37h.28v.37zm.28-4.19c.28 0 .28.28.37.28-.09.28-.37 0-.37-.28zm.28.84c0-.19.19-.19.19 0-.09.09-.09 0-.19 0zm.1-1.02v-.09c.09-.19.19 0 .19.09h-.19zm1.21-4.2c-.19 0-.09-.37 0-.56.18.19-.09.38 0 .56zm0-.65c0-.09.19-.09.19 0-.1.09-.1 0-.19 0zm.65-1.86h-.19v-.28h.19v.28zm.09-1.03c-.19 0 0-.47 0-.56.38.1 0 .47 0 .56zm.38-.65c-.37 0-.09-.47 0-.56.18.09 0 .56 0 .56zm.55-2.89s.09 0 .19-.19c0 .19-.09.19-.19.19zm.47-1.58c0-.09.09-.09.09-.09 0 .09-.09.09-.09.09zm.47-1.4c0 .19.09.19 0 .28-.19 0-.19-.09-.19-.28h.19c-.19-.56.18 0 0 0zm.37-2.33h-.19v-.19h.19v.19z"/><path d="M48.65 30.56c0-.28 0-.56-.19-.75-.19.28.09.56.19.75zm-9.14 36.52h.02c0-.04 0-.07-.01-.11-.01.04-.02.08-.01.11zm13.51-53.57c-.09 0-.19 0-.19.09.1 0 .19 0 .19-.09zM47.9 32.8c-.09 0-.19 0-.19.09.1 0 .19 0 .19-.09zm.19-.28c0-.09 0-.19-.19-.19.09.09 0 .19 0 .19h.19zm-.38.46c0 .19-.28.65 0 .75.1-.1.19-.65 0-.75zm-1.11 4.47s-.19 0-.19.09c0 .01.19.01.19-.09zm-.19.75c.19 0 .19.19.19 0s-.19-.19-.19 0zm1.96-6.52h-.28v.19h.28v-.19zm-.94 2.98c.09.19.37-.09.09-.19-.09.28 0-.47-.09-.37-.19.37-.19.75-.28 1.12.28 0 .19-.37.28-.56zm-6.8 26.74c.09 0 .19 0 .19-.09-.09 0-.19 0-.19.09zm9.41-36.9c0 .19-.09.28-.28.75.47.09.38-.65.28-.75zm-.56 2.24c-.09.19-.09.65-.28 1.02h.19c0-.27.28-.83.09-1.02zm1.68-7.64v.37c.28.19.28-.37 0-.37zm-2.89 11.83l.09.47c.19-.09-.09-.65-.09-.47zm-1.95 6.62v.47h.09c.19-.1.19-.38-.09-.47zm2.61-9.13c0 .09-.28.47 0 .47.18-.01.27-.47 0-.47zm.46-.47c-.28 0-.47.09-.47.19.28.18.28-.1.47-.19zm-.56 1.68c.09 0 .28-.65-.19-.56.19.19-.27.56.19.56zm-6.52 24.78c-.09-.19.19-.37-.09-.37-.09.28 0 .28-.37.65.37.09.37-.28.46-.28zm.09-1.12c0 .19 0 .19-.09.28.19.19.37-.28.09-.28zm-.56 2.05v.09h.37c.01-.09-.09-.09-.37-.09zm-1.21 5.69c.09 0 .19-.47 0-.47.1.28-.18.47 0 .47zm5.59-22.55c0 .09-.09.09-.19.19.19.09.38-.19.19-.19zm-4.66 18.91c-.19 0-.19-.19-.28-.19.01.29.28.47.28.19zm-.37 2.33c.09-.09-.09-.09.09-.37-.27 0-.27.37-.09.37zm1.49-6.8c0-.28.19-.47-.19-.56.19.28-.18.37.19.56zm3.36-12.58c0-.09-.28-.09-.28 0 .09 0 .09.28.28 0zm-.75 1.96c-.09.09-.19.09-.19.09.1 0 .19 0 .19-.09zm.84-2.24c.09 0 .09 0 .09-.19-.19.19.19-.28-.19-.19.09.09 0 .37 0 .37h.1zm-2.7 9.04c-.09 0-.37.56-.09.65 0-.37.18-.37.09-.65zm1.3-4.19c-.09-.37.37-.65-.09-.75 0 .19-.19.65.09.75zm-1.86 6.43c-.09.09-.19.56-.09.65.09-.19.18-.37.09-.65zM67 29.72c.37.09.09-.19.37-.09.28.37 1.12-.09 1.3-.37.09 0 .28.19.47.28 0-.28.09-.28 0-.56 1.49-.84 2.14-2.52 2.33-4.19-.28-1.96-2.42-3.07-4.57-2.24-.46 2.05-2.88 6.15.1 7.17zm-4.57 28.32c0 .65.37 1.02.19 1.68.84 1.86 1.96 3.54 3.82 4.47.56-.37 1.4.09 1.68-.47.09 0 .09.09.28.09-.37-.56.09-.75.37-1.02-.09-.28-.56-1.21-.09-1.49-.47-1.02-.47-2.24-.47-3.35.28-3.26.37-6.61 1.4-10.06.28-3.07 1.12-5.59 1.4-8.39 0-.75-.09-1.12-.28-1.68-.37-.37-.65-.56-1.02-.93-2.24-.56-3.54.19-5.59.19-.09.37-.09.84.09 1.3-.75 6.43-2.8 12.68-1.78 19.66zm1.68-17.14c.37.28-.09.56 0 .93-.37 0 0-.56 0-.93zm11.83 11.28s-.09 0-.09.19c0-.01.09-.01.09-.19zm17.89-4.01c-.19-.09-.19.09-.47.09 0 .28.37.28.47.28-.09-.28 0-.28 0-.37zm-.65.46s.09 0 .09-.09c0 0-.09 0-.09.09zm1.02-.65c.09 0 .19-.09.19-.28-.09 0-.19.19-.19.28zm-4 2.33c0-.09.19-.19 0-.19 0 .01-.19.1 0 .19zm22.54-19.19c.09 0 .09 0 .09-.19-.09 0-.09 0-.09.19zM95.41 46.96v.19h.19c.19-.19 0-.19-.19-.19zm-3.54 2.42c.28-.09.56-.28.75-.37-.19-.19-.65.09-.75.37zm-8.01-19.29c-.19 0-.09.19-.19.28.19 0 .38-.09.19-.28zm-2.89 14.82c-.28-.09-.28.28-.09.37 0-.09.09-.19.09-.37zm39.51-13.05s.09-.09.09-.19h-.09c-.1.01-.1.19 0 .19z"/><path d="M121.13 30.28c1.12-4.01 2.33-8.39.65-12.86-1.96-5.22-5.87-8.48-11.27-10.53-1.12 0-1.86 0-2.79-.19-.37-.09-.37.19-.47.19-.75-.37-1.58.19-2.42 0 0 .19 0 .28-.09.28-.19 0-.19-.28-.37-.28-.65.19-1.77.37-2.61.47-2.89 1.02-5.96 1.77-8.11 3.26-.56-.09-1.12.65-1.68.56-.37-1.3-2.24-1.12-2.89-1.21-.19.09-.37.19-.47.28-1.03-.28-1.68.37-2.7.37-.09.75-.56 1.77-.75 2.42.19.28.28-.19.28 0-.75.75-.84 1.96-1.03 2.98 0 0 0-.19-.09-.19 0 .84-.56 1.49-1.12 1.86-1.21.84-2.42 2.42-3.91 3.45 0 .28 0 .47-.19.56h-.37v.28c-1.12.75-1.3 1.96-2.33 2.7v1.02c.75.75 1.12 2.05 1.77 2.79.65.47 1.12.65 2.14.75 0-.09.19-.09.37-.09-.28-.28-.19-.28 0-.65-.28-.37-.19-.56-.37-.75.75-1.58 2.05-2.7 2.89-4.29.28-.09.09 0 .37 0 .28-.75 1.12-1.3 1.77-1.86 0 .65-.37.84 0 1.3-.56.47-.47 1.58-.65 2.24.19.09.28-.47.28 0 0 .09-.19 0-.28.09 0 .56-.37.93 0 1.49-.47.28-.47 1.02-.28 1.4-.09.28-.37.37-.56.56.37 0 .47 0 .47.28h-.47c-.09.19.47 0 .37.28 0 .47-.47-.09-.37.47 0 0 0 .09.19.09 0-.56.56-.09 0 0 .19.37.19.84-.37.84.19.28-.09.28-.19.65.09.09.37.09.37.37-.19 0-.28 0-.37-.19 0 .75-.28 1.4.09 1.96.09 0 .19 0 .19.09-.19.19 0 1.12-.47 1.21.19-.28.28-.84.28-1.3-.28.19 0-.09-.37-.09-.09.28.28.28.28.56-.19.09-.47 0-.47.19 0 .37.47 0 .28.47-.37-.09-.19.09-.19.28-.47 0-.19.56-.47.93.37.09.09-.56.37-.47.09.65-.65 1.12-.28 1.49 0 .09-.09.09-.19.09-.09.19.19 0 .09.37-.56.37-.09 1.21-.56 1.96.09.09.37-.28.37 0-.37.28-.37.56-.37.93 0 0 0-.28-.09-.28-.37.28.09.56-.37.75.56 0 .28.37-.09.56.65 0 .37.65 0 .84 0-.09.09-.47 0-.47-.09.28-.47.84-.09.93.19 0-.09-.47.19-.37 0 .84-.65 1.4-.37 1.96 0 0 .09-.09.09 0h-.09c.09.56-.37.65 0 .84.19-.19 0-.75.28-.84-.09.47 0 1.21-.28 1.4 0-.56-.37.19-.56.19 0 .84-.28 1.4-.37 2.33.37-.09.09.28.37.19.19-.28-.19-.56.19-.65.09-.65-.09-1.58.47-1.86-.28.75-.09 1.21-.47 1.86 0 .19.09.56-.19.65.09.65 0 1.96-.47 2.33.09-.65.19-1.4.47-2.24-.37.28-.28-.09-.47-.09-.47.93.09 1.49-.56 1.96.28.84-.47 1.12 0 1.77.09.28-.47 1.02-.56 1.58-1.12 0-2.24-.47-3.35-1.02-.09.56.65.56.28 1.12.75.28.93 1.02 1.68 1.3-.09.09-.09.09-.09.37.47.09.65.28.93.56-.37.19.09.65-.09.84.19 0 .19-.19.28 0-.28.47-.65.84-.28 1.58-.28-.09-.28.09-.37.28 0 .09.09.09.09.19.28.19-.09.37-.19.47.09.09.19.19.19.47h-.28c0 .28.09.37.19.75-.65.19-.56 1.58-.37 2.05-.19.19-.28-.28-.28 0 0 .6-.17 1.13-.09 1.51.07.35-.37.27-.37.54.19 0 .37 0 .47.19-.56.37-.56 1.49-.28 1.86-.28 0-.19.09 0 .47-.19-.09-.28-.28-.56-.37.28 1.02-.09 2.05.19 2.79h-.37c0 .65-.09 1.21.19 1.02 0 .19-.19.19-.19.47.19.09.19.47.37.75-.19 0-.37-.09-.37 0 .09.09.09.47.19.56-.19 1.12.19 2.33.37 3.73.65 1.02.75 1.86 1.77 2.33.93.47 2.14.47 2.89 1.21 0-.19.28-.28.37-.28.93.09 1.3-.37 1.77-1.02-.19-.65-.75-1.4-.65-2.24 0-.09-.09 0-.09-.09-.37-4.75.84-10.53 1.4-14.53.47-1.3.47-1.96.93-2.98-.19-.28-.19-.84.09-.93.47.19.56.09 1.21.09-.28.47.56.09.75.47.09-.47-.19-.47-.19-.84.28.09.37.37.47.56 1.49-.47 3.35-.75 5.03-1.02.56-.37 1.21-.84 2.05-.75-.09-.19 0-.37.09-.37.09.19.09.28.37.28 5.22-3.17 10.71-6.24 14.81-10.53.09 0 .09.09.28.09 3.45-3.45 6.89-7.55 9.22-11.93.55-1.43.83-2.36 1.58-3.2zM84.89 15c-.19 0-.09-.28 0-.47.09 0 0 .38 0 .47zm-6.15 41.09c.09 0 0 .19 0 .28-.19 0 0-.1 0-.28zm-.84 4.84c.19 0 .09.47-.19.47.19-.09.19-.28.19-.47zm-.51 3.14c.02.04.02.09.05.13-.05-.01-.05-.07-.05-.13zm-.42 6.18c.37.09.19.19.19.37-.29 0-.01-.28-.19-.37zm0 .65c.19.09.37.28.37.56-.47 0-.37-.46-.37-.56zm.18-1.58c.19 0 .28.56 0 .56 0 .09-.19.09 0 0 .19-.19-.19-.19-.19-.56h.19c-.19-.56.19-1.12.19-1.58.18.37 0 1.21-.19 1.58zm.28-1.86c-.28-.19 0-.37 0-.56.28 0 0 .18 0 .56zm.09-.75c-.37-.37.09-.84 0-1.4.38.19-.09.84 0 1.4zm0-1.49c.19-.47-.09-.75.37-.84-.27.09.01.93-.37.84zm.38-1.31c-.28-.09-.19-.56 0-.65.18.1 0 .56 0 .65zm.09-1.11h-.09v-.19h.09v.19zm.09-.56c-.37-.09 0-.28-.09-.56.19.18.09.28.09.56zm.1-1.31c.09.09.09.65-.19.65 0-.28.19-.28.09-.65h.1c0-.37-.09-1.02.28-1.02-.28.09.09.93-.28 1.02zm.28-1.21c-.19-.65.09-1.21.19-2.05.18.37-.1 1.49-.19 2.05zm.37 3.36h-.09v-.28h.09v.28zm-.09-5.59c.09.09-.1 0 0 0-.19-.38.37-.28 0 0zm.09-.38c-.09-.09 0-.47.28-.47 0 .38-.28.29-.28.47zm.28-.65c-.09 0-.09-.19-.09-.19.09-.19.19 0 .19.09-.1.01-.1.01-.1.1zm.19 2.98v-.09c.55-.09-.47.56 0 .09zm0-.18c0-.09.28-.09.37-.09 0 .09-.1.09-.37.09zm.46-6.34c.09-.47.09-1.49.47-1.86-.1.37-.1 1.39-.47 1.86.09.09-.09.09 0 0zm.19-2.05c0-.19.28-.19.28 0-.1.09-.1 0-.28 0zm.93 1.77c-.19-.09-.09-.56 0-.65.19.19-.09.46 0 .65zm.37-1.96c0-.18.1 0 0 0 .1.38-.28 0 0 0zm.1-.37c-.28-.09 0-.56.09-.65.09.09-.09.56-.09.65zm.65-2.79c-.47-.09.09-.19 0-.37.18-.01 0 .27 0 .37zm.09-.66c-.19-.09 0-.37 0-.47.37.1 0 .19 0 .47zm.28-5.68h-.19c.19.37 0 .75-.09.93-.09.37 0 1.02-.47 1.12.37.19 0 .28 0 .56-.19-.19 0-.28-.09-.56h.09c-.09-.28.28-.65.37-1.12h.09c-.19-.19 0-.56 0-.93h.09v-.47h.19c0-.28-.19-.65.19-.84-.09.37 0 .47-.19.84.2.1.01.19.01.47zm.19-1.49c-.09-.19 0-1.02.19-1.21 0-.37 0-1.21.37-1.4-.09.47-.09 1.02-.37 1.4.18.19-.19.74-.19 1.21zm.74 1.12h-.19v-.09h.19v.09zm.19-5.59c-.19.75-.19.93-.37 1.68-.1-.47.09-1.31.37-1.68-.37-.19.18-.09 0 0zm1.3-9.51h.09v.19h-.09v-.19zm-1.21 6.34h.19v.28h-.19v-.28zm.28.75c0 .19 0 .28-.19.28v-.19c.09 0 .09 0 .09-.09h.1c-.09-.38.37 0 0 0zm.19-1.03c-.28-.09.19-.37 0-.56.37 0 0 .28 0 .56zm.28-.84c-.28-.19 0-.37 0-.56.28 0 .09.47 0 .56zm.46-2.42c-.37-.37 0-.65.09-1.12.29.19-.09.75-.09 1.12zm.1-1.3c-.19-.19.09-.37 0-.56.37 0 .09.37 0 .56zm.09-1.03v-.28c.19 0 .19 0 .19-.09.18 0 .09.46-.19.37zM99.23 8.39c0-.1.1 0 0 0 0 .18-.09.18 0 0zm-11.27 49.1c0-.09.09-.09.19-.09 0 .09-.1.09-.19.09zm5.31-7.83h-.09v-.09h.09v.09zm6.62-5.31c0-.09 0-.28.19-.28-.01.19-.1.28-.19.28zm3.35-2.61v-.28c.09 0 .09 0 .09-.19.28 0 .1.56-.09.47zm.4 1.26c.03-.04.07-.05.07-.05 0 .06-.05.04-.07.05zm.62-2.28c.09-.28 0-.28.19-.47.37.09.09.56-.19.47zm5.04-4.85c-.09.09-.28.28-.47.28.09.09-.09.09 0 0 0-.28.19-.28.47-.28-.1-.47.18 0 0 0zm.83-1.12c0-.09.19-.09.19-.09h.09c.1.09-.09.09-.28.09zm.38-.28c0-.28.09-.28.19-.28-.01.28-.1.28-.19.28zm6.71-12.3c-1.21 3.45-2.42 6.15-4.38 8.76.28 0 0 .37 0 .37-.09 0-.09-.09-.09-.19-.65.37-.93 1.3-1.58 1.68 0 .19.37.37 0 .37.09.37-.09.37-.09.56-.19.19 0-.37-.19-.28-.75 1.02-1.49 1.86-2.24 2.52.09 1.02-.93 1.58-1.68 2.14 0 .09-.19.09 0 .28-.19 0-.28 0-.28-.19-.19 0-.28.19-.28.37.09 0 .09-.09.19-.09-.09.47-.56.65-.75 1.12-.19-.37.37-.65.56-1.02-.84.37-1.3 1.02-1.68 1.49.28 0 0 .28 0 0-.75.37-1.3 1.12-2.05 1.68 0 .19 0 .19.09.28 0-.28.56.09 0 0 0 .09-.09.09-.09.28h-.19c.09.28-.47.19-.47.09-.09 0-.37.19 0 .19-.37 0-.56 0-.84.37 0 .19.37 0 .37 0 0-.09.19-.09.19 0s-.09 0-.19 0c-.09.56-.47 0-.65.19 0 .28.28 0 .19.37-.19.28-.28 0-.47-.09-.65.09-.75.75-1.3.93 0 .19.09.28.09.37-.09-.09-.65-.19-.56.09.28.09-.28.93-.84.93-.19.47-.75.09-.75.75-.09 0-.19-.09-.28-.09.09.37-.28.19-.37.19 0-.09.09-.19.37-.19.19-.19.47-.65 1.03-.65 0-.28.09-.28 0-.37-.56.37-1.12.93-1.86 1.12 0 .28.19.28.37.28-.09.28-.37 0-.75.09.19.09.37.09.28.47-.28 0-.65-.19-.84.19v-.19c-.37.28-.93.56-.84 1.21-.09 0-.09-.28-.09-.37-.19 0-.19.37-.37.47-.09 0-.09-.09-.09-.09-.19.19-.56.47-1.02.56 0-.28.28-.28 0-.37 0 .37-.37.37-.37.93-.56-.37-.75.47-1.49.28-1.21 1.02-2.89 1.68-4.57 2.05 1.02-.56 2.7-.75 3.54-1.68-.75.19-2.24.93-3.07 1.3-.56-.75.28-1.49.09-2.42 1.03-4.1 1.68-7.92 2.42-11.93.09-.19.09-.37.28-.37.75-7.17 2.89-14.16 3.08-20.78 3.26-2.33 6.43-3.63 10.53-4.38.19 0 .19.09.37.19.09 0 .09-.19.09-.28 1.12.19 2.52-.47 3.63-.47.37-.09.47.09.56.09 4.19-.19 7.83.65 9.88 3.82.19 2.6-.09 4.47-.55 7.07z"/><path d="M108.36 36.34c0 .09-.09.19 0 .19.1-.1.28-.19 0-.19zm-.83 1.02c-.19.19-1.02.56-.56.75 0-.47.56-.28.56-.75zm-5.22 4.66c0 .28-.28.09-.28.37.09-.28.19.09.47-.09-.01-.19-.01-.28-.19-.28zm-4.01 3.26c.28-.09.47-.19.56-.47-.18.1-.56.1-.56.47zm-6.8 4.29c-.19 0-.75.19-1.12.56 0 .09.47-.19.56-.19.09-.19.56-.19.56-.37zm16.4-12.58c-.19.09-.19.28-.37.37.28 0 .37-.09.37-.37zm.37-.19c-.19 0-.37.09-.37.19.28 0 .28-.09.37-.19zm11.37-3.35h-.09v.19c.09-.01.09-.1.09-.19zm-8.48-.28h-.09c0 .28 0 .18.09 0zm14.9-16.49s.09 0 .09.09c.01-.09.01-.09-.09-.09zm-4.19 14.07c.07-.07.19-.09.25-.09-.16 0-.25 0-.25.09zm-1.58 43.13c.19-.09.28.09.28 0 0-.18-.28-.18-.28 0zm7.08-63.63c0 .28 0 .37.19.37-.01-.18-.1-.37-.19-.37zm-9.32 51.43c.19-.09.28-.09.28-.09-.09 0-.28 0-.28.09zm.19-5.87c.09-.09.19.09.19 0-.01-.28-.19-.28-.19 0zm-.19 4.38c.19-.19.28-.19.28-.19-.09 0-.28 0-.28.19zm2.05-19.29c-.09 0-.19 0-.19.09.1-.09.19-.09.19-.09zm2.02-10.25zm4.87-20.68c-.09.65-.28 1.12-.37 1.86.56-.28.65-1.58.37-1.86zm.38-.93h-.09c-.09.37 0 .37-.09.65.27 0 .36-.56.18-.65zm-.93 2.89c-.09 1.02-.37 1.86-.65 2.79.65-.65.37-1.77 1.02-2.42 0-.37-.09-.47-.37-.37zM127.55 8.48c-.37-.09-.19.28-.19.56.38-.19.1-.28.19-.56zm-3.72 14.81c0-.28.37-.75 0-.56.09.19-.38.38 0 .56zm4.19-14.53c0-.28 0-.37-.19-.28 0 .09 0 .28.09.37.01-.09.01-.28.1-.09zm-3.91 12.67s0 .19-.09.19v.19c.37.09.37-.47.09-.38zm.46-1.68s-.19.37 0 .47c-.09-.19.37-.47 0-.47zm.19-.56c0-.37.47-.84.19-1.12.09.38-.38.84-.19 1.12zm.84-3.72c.47.09.47-.84.09-.37.37-.01-.09.09-.09.37zm38.75 36.98c0 .09 0 .65.09.47.01-.28.01-.84-.09-.47zm-1.11-17.6c.37 0 .28-.19.09-.28-.09 0-.09.18-.09.28z"/><path d="M170.32 63.73c-.09-.37.28-.19.19-.56-.65-5.59-.19-13.42.28-20.59 0-.75.09-1.68.09-2.42.09-2.05.47-3.82.28-5.59-.28-.09-.56-.09-.65-.56-1.3-.37-3.35-.56-4.38.19-.28-.19-.56-.65-.75-1.02-1.02-1.21-4.01-1.21-5.5-.84 0 .09 0 .28-.09.28h-1.58c-.09.37-.28.56-.56.84-.19-.09.28-.37-.19-.37-.09.65-.65.56-1.03 1.02.37 0 .09.47-.09.37-.18.12-.37.25-.55.38.15.05.13.35-.11.27v-.19c-1.33 1.03-2.54 2.53-3.65 4.04.01-.07.01-.14.02-.21-.47-.09-.19.75-.56.37.09-.37.37-.56.37-.93-.09-.28-.37-.56-.84-.56 0 .47 0 .84-.28 1.02 0-.19.28-.56 0-.65-1.23 3.14-2.51 6.49-3.65 9.73a.161.161 0 0 0-.07-.04c.06.18-.07.36-.1.54-.12.35-.23.69-.35 1.04h-.01c0 .03-.01.07-.03.13-.21.61-.42 1.23-.62 1.83-.09-.19-.19 0-.28.09.09.56-.47.75-.28 1.21-.75 1.02-1.21 2.33-1.68 3.91-3.35 7.08-6.8 13.98-11.46 19.75-.75-.09-.93 1.02-1.96 1.02-1.68-1.21-2.33-3.45-3.07-5.59-1.68-9.6-.47-19.19.93-29.26 1.86-8.11 2.98-15.75 5.31-23.39-.09-.93.56-1.86.19-2.61 1.21-3.07 1.58-7.27 1.77-10.34-.56 0-.56-.56-.65-.93-.47.28-.47.09-.75-.09-1.68.19-3.26.75-4.38 2.05-.75-.19-.65.56-1.49.37.19.37-.19.28-.19.75.19-.19.47 0 .47.19-.37.37-.09 1.86-.93 1.58-.09.19.56.47.09.65-.09.37-.09.47 0 .93-.09 0-.19-.19-.28-.19-.28 1.86-1.49 3.73-1.12 5.4-.28 0-.37.37-.47.56-.09.37.37 0 .19.47-.28-.09-.19-.09-.37.09-.19.37.37.09.28.56-.09.09-.47 0-.28.37.09 0 .19 0 .19.09-.09-.09-.19-.09-.19-.09-.28.84-.37 1.3-.75 2.05.37 0 .28.75 0 .93.19-.37 0-.47-.28-.37 0 .75-.09.93-.28 1.4.28 0 .47-.09.47.09-.09.09 0 .47-.28.56 0-.19.09-.47-.19-.47-.19.28.19.37.19.84-.19-.19-.19-.28-.37-.19-1.02 4.75-2.33 8.85-2.89 14.44.19 0 .09.56-.28.47 0 .19.37.19.37.56-.37 0-.19-.47-.56-.09.19.65-.47 1.68-.19 2.42.28-.47.28.56.09.65-.09-.28.09-.28-.09-.65-.56 1.49-.47 2.7-.84 4.29.28 0 .37-.28.37 0 0 .09.09.28-.09.47-.19-.19-.19-.28-.28-.28 0 2.05-.84 4.85-.75 6.99 0 .09.19.28.19.56 0 0-.28 0-.28.09-.37.84.19 1.77-.19 2.79 0 .09.28 0 .28.19-.37 1.58-.47 3.35 0 4.84h-.37c.28 2.98.09 5.22 1.12 8.57-.09.09-.09.28-.09.56.56 2.24 1.58 4.01 2.61 5.96 1.49 1.86 4.66 2.42 6.71 4.01 2.8.47 5.22 0 7.08-1.03.19-.28-.28-.56 0-.56.19 0 .19.28.37.28 0-.28.09-.28.09-.37-.09 0 0-.19 0 0 .37-.09.56-.09.56-.47-.47.47-.28-.28 0 0h.28c0-.09.09-1.12.28-.47.28-.09.37-.19.37-.28-.09 0-.28-.09-.28-.09 2.61-2.98 4.66-6.34 6.61-9.69.28-.09.37-.28.56-.28.96-2.21 2.05-4.37 3.11-6.57.44.4.9.76 1.36 1.08.56.09 1.12.09 1.49.47 1.4.09 3.26 0 4.19-1.02 3.26-2.05 5.59-4.94 7.27-8.57.93-1.02 1.4-2.98 2.42-3.63-.19 4.57.09 8.94 1.12 12.86-.28-.47-.28-1.12-.56-1.4.75 2.89 2.24 5.03 5.13 5.59.47-.19 1.02-.28 1.21-.37.48-1.3-1.29-1.02-1.19-2.23zM132.49 5.4h.28v.19h-.28V5.4zm-6.05 14.91c0 .19-.1 0 0 0 0-.19.28-.09 0 0zm.37-1.12c-.09-.09-.09-.19-.09-.28.19-.09.19 0 .19.19-.1-.09-.1 0-.1.09zm.56-2.33c0 .1-.1 0 0 0 0-.18.18-.09 0 0zm1.02-7.17c0 .19-.09 0 0 0-.09-.65.28-.19 0 0zm0 3.35s-.09 0-.28.19c0-.19.19-.19.28-.19zm-1.02.38c.09-1.02.37-1.86.75-2.42-.19.75-.56 1.4-.65 2.42h-.1c-.19 1.49-.47 2.89-1.12 4.01.47-1.31.65-2.9 1.12-4.01zm-1.03 1.86c.47-.09.09.56-.09.56-.09-.28.19-.28.09-.56zm-.18.84h.19v.19h-.19v-.19zm0 1.86c.28 0 0 .37 0 .56-.28-.09 0-.56 0-.56zm-.56 2.33c.19-.37-.09-.65.19-.75 0-.47 0-.75.37-.75-.09.19-.09.56-.37.75.09.1.09.66-.19.75.09.19.09.28 0 .47-.09-.09-.09-.28-.09-.47h.09zm-.84 3.08c.28-.09.28.56-.09.47 0-.38.09-.38.09-.47zm-.19.65c.37.37-.19 1.68-.37 2.42-.19-1.12.28-1.4.37-2.42zm-.37 2.7c.19.19-.37.19-.28 0 0-.28.28-.09.28 0zm-.28-1.49c.28.09-.09.37 0 .65-.28-.09-.09-.65 0-.65zm0 1.77c.28.19 0 .56 0 .84-.37-.28-.09-.56 0-.84zm-.56.37c.47 0 0 .47 0 .93-.37-.28.09-.56 0-.93zm-.09 2.33h.09c0-.75.19-1.21.28-1.68.28.37-.09 1.21-.28 1.68.09.65-.28 1.4-.47 2.14-.18-.65.38-1.49.38-2.14zm-.56 1.4c-.19-.19-.19-.37-.19-.47.47-.09.28.28.19.47zm-.37.65h.19v.19h-.19v-.19zm.09 1.58h.09c-.09-.47.19-.56.19-.93h.09c-.09-.65.28-.19 0 0-.28.37.19.65-.28.93 0 .37.19 1.21-.37 1.68.19-.56.19-1.12.28-1.68zm-.47 1.96c.19 0 .19-.09.19-.09.19-.09.19.47-.19.37v-.28zm-.37.28h.19v.37h-.19v-.37zm0 1.21c-.37-.09 0-.37-.19-.65.38 0 .38.37.19.65zm-.28.28c.28 0 0 .19 0 .37-.18-.09 0-.18 0-.37zm-.46 2.61c.28 0 .19.47 0 .56-.28-.09.18-.47 0-.56zm-.28 1.49c-.09-.37.19-.37.09-.56.19-.18.19.65-.09.56zm0 3.73c.28-3.07.75-6.34 1.68-9.13-.56 2.89-1.12 5.68-1.58 9.13h-.1v.84h-.09v.47c-.28-.19-.28-.37-.19-.47h.19c-.19-.28-.19-.65 0-.84h.09zm.56-.28v.19h-.28v-.19h.28zm-.84 4.56c0-.09.19-.09.28-.09 0 0-.1 0-.28.09zm0 1.21c-.19-.19 0-.75 0-.84.28.19 0 .66 0 .84zm.28-3.35c.28 0 0 .37 0 .47-.38-.1.09-.38 0-.47zm-.28-4.1v-.09c.56-.19-.56.65 0 .09zm.18.56c0 .09-.19.19-.37.19.09-.19.09-.28.37-.19zm-.37.47c.37 0 .09.56 0 .84-.19-.19.09-.56 0-.84zm.09 2.33c.37 1.02-.19 2.98-.28 4.57-.28-1.5.28-3.36.28-4.57zm0 11.36c-.47.28 0-.84-.19-1.02.57-.1.01 1.02.19 1.02zm-.56-.09c.28.09.28.47.28.75-.37-.01-.28-.75-.28-.75zm.47 2.05c0 .09-.09-.19-.19 0 0-.28.19-.28.19 0zm-.47 1.4c.28 0 .56-.19.47.28-.09-.19-.09-.19-.19-.19-.19 0-.19.19-.19.37-.27-.09-.09-.18-.09-.46zm.47-5.22c.19 0 .19.28.19.56-.38 0-.19-.37-.19-.56zm-.09-9.04c-.09.19 0 .65-.28.84 0-.19-.19-.84.28-.84zm-.28 1.77c0 .19-.09.28-.28.28.09-.09 0-.37.28-.28zm-.19 1.31s-.09 0-.19.09c0-.09.1-.09.19-.09zm0 .37s-.09 0-.19.09c0-.09.1-.09.19-.09zm.09.84c.28-.09.28 0 .09.19-.28 4.47-.28 8.01-.37 11.27-.37-4.38 0-7.64.28-11.46zm-.65 4.19c-.09-.37 0-.65-.09-1.12.28 0 .19.65.09 1.12zm-.18.84v-.19c.09 0 .09-.09.09-.09.19 0 .19.09.09.28h-.18zm0 1.4v-.28h.19v.28h-.19zm0 5.03c.56 0 .09.75.28.84-.47.18-.19-.38-.28-.84zm.18 2.89c.09 0 .19.09.19.37-.09-.19-.19-.28-.19-.37zm.19-1.77c.19-.37.19-.56 0-.65.28-.57.46.74 0 .65zm.37.27v.47h-.19v-.47h.19zm-.19.75c.19-.19.37.65 0 .65 0-.46.1-.37 0-.65zm.1 1.4c.09-.47.47.28.19.37-.1-.09-.01-.37-.19-.37zm.18 1.95v-.37c.38-.18.38.47 0 .37zm.28-1.11c0-.28.19-.28.19 0 0 .09-.09-.19-.19 0zm.19-1.4v-.19c.09 0 .09-.09.09-.09.28-.19.28.37-.09.28zm.19-11.93c0-.28.28-.09 0 0 .28.19-.09.28.19.56-.29.19-.47-.46-.19-.56zm.28-2.23c0-.84 0-1.77.19-2.52.27.93-.01 1.58-.19 2.52.28.28-.38.09 0 0zm.28-2.89c-.19-.28.19-.56 0-.93.46-.1 0 .65 0 .93zm0-1.31c0-.56.28-.75.28-1.12.18.19.09 1.03-.28 1.12zm.28-1.3v-.37c.27-.19.27.46 0 .37zm.27-.47c-.19-.09-.19-.19-.19-.47.38-.18.19.29.19.47zm-.09-.65c0-.09.09-.09.25-.09-.06 0-.18.02-.25.09zm0-.46c.09-.56.28-1.02-.09-1.4.47-.19 0-1.02.65-.84-.47.65.09 1.58-.56 2.24zm.37-2.43c.09-.28-.09-.65.09-.56h.19c-.18 0 .19.56-.28.56zm.1-.84c.09-.09.09-.28.09-.37.37 0 .37.37-.09.37zm.37-.65h-.28v-.19h.28v.19zm.09-.28c-.28-.47-.09-.93 0-1.3.56 0-.09.74 0 1.3zm.19-1.58c-.28-.28.09-.65 0-.93.28 0 .09.65 0 .93zm.37-1.49h-.28v-.19h.28v.19zm-.09-.47c0-.65.37-1.86.28-2.42.46.47-.1 1.86-.28 2.42zm.37-2.51c.19-.37.19-.65.28-.84.09 0 .09.84-.28.84zm.75-2.05h-.19c0 .28 0 .37-.09.56-.19-.09 0-.56.09-.56-.19-.28-.09-1.21.28-1.21.09.46-.09.65-.09 1.21zm.37-1.59c-.56 0-.19-.75.19-.65-.19.28-.28.37-.19.65zm-.09-.84c0-.09.09-.09.25-.09-.06.01-.18.03-.25.09zm0-.46c0-.37.47-.75 0-.75.37-.19.84-1.49.47-1.96.47-.19.47-.65.37-1.12.56-.19.09-.56.37-.84-.1 1.22-.28 3.46-1.21 4.67zm.93-5.96c-.28-.28.19-.84.09-1.21.47.09 0 .93-.09 1.21zm.56 1.02c-.28-.09-.09-.75 0-.75.18.01.09.66 0 .75zm.18-.84c-.09-.19-.09-.28-.09-.37.19-.09.19 0 .19.19-.1-.1-.1 0-.1.18zm.1-.56c-.28-.28.19-.56 0-.84.46-.09 0 .56 0 .84zm.46-1.86h-.19v-.19h.19v.19zm8.2 53.11c-.37-.28.19-.56.28-.75.37.19-.19.47-.28.75zm.84-1.4c0 .28-.09.47-.37.56 0-.37.18-.47.37-.56 0-.37.19-.47.37-.37 0 .09-.09.28-.37.37zm18.35-35.31c.28.09-.19.19-.19.37-.37-.19.19-.28.19-.37zm-.84 1.12v-.28c.19-.1.19.37 0 .28-.19.19-.28.37-.47.37.01-.19.1-.37.47-.37zm-.74.65c.19.09 0 .19 0 .28-.09-.1 0-.19 0-.28zm-1.77 2.51s-.09 0-.19.19c0-.19.1-.19.19-.19zm-14.07 29.91c-.19-.09 0-.65.37-.56-.18.1-.28.19-.37.56zm7.64-13.23h-.28v-.19h.28v.19zm-4.84 8.39s0 .09-.09.28c0 .09-.09.19-.28.28-.19.65-.56 1.4-1.12 1.96 0 .09-.09.19-.19.28-.19.47-.19 1.02-.75 1.21.19-.56.37-.93.75-1.21 0-.19.09-.28.09-.28h.09c.19-.93.84-1.3 1.02-1.96h.09c0-.19.19-.28.19-.28h.09c.01-.19.01-.28.11-.28 2.45-4.79 4.71-9.8 6.78-14.88-.05.24-.22.47.02.63 0-.37.28-.37.09-.75h-.07c.01-.03.02-.06.03-.08.02.03.03.05.03.08h.19c-.14-.07-.08-.23-.14-.28.01-.03.03-.06.04-.1.11-.02.12-.16.11-.27l.06-.15c.06-.06.1-.16.11-.28.84-2.1 1.64-4.21 2.41-6.32.01.01.01.03.01.04.15-.07.23-.31.13-.41.43-1.2.86-2.4 1.27-3.59h.09c-.09-.56.37-.56.19-1.02.47 0 0 .84-.19 1.02-.45 1.51-.94 2.99-1.44 4.45-.58 1.19-1.11 2.52-1.54 4.12-.53.77-.76 1.68-.96 2.62-.19.47-.39.94-.58 1.41-.01-.08-.02-.15-.04-.21-.28.28-.09.65-.28.93.01 0 .02-.01.03-.01-1.92 4.53-4.05 8.86-6.35 13.05zm7.87-16.8c-.04-.03-.05-.09-.05-.16.08-.08.09-.02.09.06-.01.03-.02.06-.04.1zm7.41 5.52h-.09c0 .09-.09 0 0 0 0-.09.09-.19.09-.19.18.01.18.1 0 .19zm.74-1.02c-.19 0 0-.09 0-.19.19 0 .09.1 0 .19zm.56-.65h-.19c.19.19-.09.09-.09.37-.19-.19.09-.37.09-.37 0-.19.19-.19.19-.37.19-.01.09.27 0 .37zm.28-.47c-.19-.09-.09-.19 0-.28 0-.19.28 0 0 0 .09.09 0 .19 0 .28zm.37-.65c0 .09 0 .09-.09.09 0 .09-.19 0 0 0 0-.09 0-.09.09-.09 0-.37.28-.56.47-.75.09.19-.38.56-.47.75zm1.03-1.49h-.19c0 .28 0 .37-.19.37 0 .09 0 .19-.09.19v-.09c0-.09.09-.09 0-.09h.09v-.19c.09 0 .09 0 .09-.19h.09c.01 0 .01-.1.2 0 0-.37.09-.65.37-.65-.19.09-.19.55-.37.65zm.84-1.4c0 .19-.19.19-.28.28 0 .19 0 .37-.19.28v-.09s.19 0 0-.19h.19c0-.19.19-.19.19-.28h.09c.56-1.21 1.21-2.52 2.14-3.45-.65 1.12-1.31 2.33-2.14 3.45zm2.6-4.19c-.37-.28.28-.37.19-.75.47.09-.19.56-.19.75zm1.22-2.33c0-.09 0-.28.19-.28-.01.09-.01.28-.19.28zm1.02-2.15c-.93.84-1.02 2.14-1.96 2.98 0 .09.19.09.19.28-.37 0-.47.37-.47.84-.28.09-.28-.19-.37.09-.56 1.68-1.77 2.52-2.33 4.1h-.37v.47c-1.86 2.79-3.63 5.78-6.15 8.29-.19 0-.56.09-.84.28-.56-1.77.19-3.35.65-4.75-.09-.09-.09-.28-.19-.28.28-1.12.84-2.05.93-3.35 1.4-2.89 2.98-5.59 4.47-8.2 1.12-1.3 2.05-2.7 3.35-3.73.84-.93 1.12-2.14 1.96-2.79-.28-.65.28-1.21 1.21-1.12 0 .19.19.19.19.47.37.09.37 0 .75 0 0 .09-.19.19-.28.19.47.28 1.21-.19 1.68-.09-.65 2.23-1.67 4.09-2.42 6.32zm2.8-6.7h-.28v-.19h.28v.19z"/><path d="M170.78 64.19c-.19-.09 0-.56-.37-.56 0 .28.09.47.37.56zm-15.09-29.34v.09c.03-.03.07-.05.11-.07-.04-.02-.06-.04-.11-.02zm2.33-2.24c-.28-.09-.37 0-.37.19.09.09.09.09.37.09v-.28zm24.59 60.37c-.09.28.28.47.47.28-.28 0-.19-.37-.47-.28zm-9.41-41.64c-.09 1.58-.37 3.26.37 4.66-.37-1.58-.19-3.45-.28-4.66h-.09zm.1 0c.37-.56.09-1.12.37-1.77-.47.18-.47.93-.37 1.77zm9.87 25.99c.47-1.68 1.21-4.1 1.4-5.68-.65 1.77-1.21 3.82-1.4 5.68zM181.22 86c-.09.09-.19.19-.09.47.37.18.37-.47.09-.47zm3.35-14.63c.19 0 .28 0 .28-.19-.09 0-.28 0-.28.19zm-1.4 5.96c-.37.84-.84 1.96-.47 2.52.1-.93.38-1.4.47-2.52zm7.27-23.29c-.09.19-.47.56-.09.75 0-.19.28-.66.09-.75zm-3.91-5.59c.02-.03.04-.06.07-.1-.03.02-.05.05-.07.1zm-1.59 22.45c.37-1.58 1.02-2.89 1.3-4.84-.55 1.58-1.3 3.35-1.3 4.84zm6.52-19c0-.37.28-.37.19-.84-.09.28-.56.56-.19.84zm.66-10.16h.09c0-.37-.09-.28-.09 0zm-3.73 17.52c0 .19-.28.56 0 .65-.09-.28.56-.65 0-.65zm.93-2.43c0 .84-.93 1.77-.56 2.24.1-.75 1.03-2.05.56-2.24zm.65-1.67c0 .19-.19.19-.09.56.09-.19.19-.37.19-.56h-.1zM188.2 60c-.28.84-.84 1.86-.65 2.52.09-.84.75-1.68.65-2.52zm-1.11 3.36c-.37.93-.65 1.68-.84 2.7.37-.75.93-1.87.84-2.7z"/><path d="M191.74 50.78c-.09.09-.09.19-.09.28h.09c0-.1.1-.28 0-.28zm-1.02 2.89c.19-.19.37-.37 0-.47.19.28-.28.37 0 .47zm-1.21 2.6c.37 0 .37-.28.37-.56-.28.1-.28.29-.37.56zm.28-11.55c-.19 0-.28 0-.28.09.09 0 .28 0 .28-.09zm-7.55 37.36c.37-.84.09-1.4.47-2.05-.56.47-.56 1.21-.47 2.05zm8.11-38.85c0 .19-.28.28 0 .37 0-.09.18-.18 0-.37zm-8.2 40.06c.09-.37.09-.75.09-1.21-.28.1-.47 1.21-.09 1.21zm15.84-49.84h-.19v.19h.19v-.19zm3.54-4.19c0-.28.56-.56.28-.75-.1.09-.84.65-.28.75zm-15.94 20.31c-.09 0-.09 0-.09.09 0 0 .09 0 .09-.09z"/><path d="M210.56 29.26c.09-.93-.65-1.21-.84-1.96-.28-.09-.75-.28-.93-.65-.37-.19-.56.09-.84.09 0 .09-.19.09 0 0 .09-.56-.19-.09-.47 0-.93-.56-2.61-1.02-3.63-.56-.09-.47-.56 0-.84-.37-.37.37-.19.56-.37.93-.19-.28.09-.65-.28-.56-.19.75.56 1.12.09 1.68 0 .28-.09.47-.28.28.09-.09 0-.37.28-.28 0-.09 0-.37-.09-.37-.28.47-.65.65-.09 1.02-.56 1.02-2.14 1.58-2.05 2.89-.28-.09-.19.37-.37.37-.19-.28.28-.37 0-.47-.19.09-.28.19-.37.19v.28c.09 0 .19.19.09.19-.09 0-.09-.09-.09-.19-.47.09 0 .47-.37.75 0-.19 0-.47-.09-.47 0 .37-.47.28-.19.75-.37-.37-.37.28-.65.28.19.56-.19 1.02-.37 1.4 0-.28.09-.56-.19-.47-.47 1.68-1.68 2.42-2.42 3.91-.19 0-.19-.28-.28-.28-.09.28.28.47 0 .56 0-.19-.28-.19-.28-.09.28 0 .28.65-.09.47.09.47-.19.56-.28.19-.28.19.19.56-.19.84-.19 0-.09-.37-.19-.37-.19.28 0 .84-.37.37-.09.56-.75.84-.65 1.3-.09-.09-.19-.09-.28-.09-.19.19-.19.37-.19.93h-.19c0 .09-.09.09-.09 0-.28 0-.28.19-.37.19.09.65-.47.75-.56 1.21 0-.09 0-.19-.09-.19 0 .19 0 .47-.09.47s-.09-.19-.09-.28c-.75.28-.28 1.02-.84 1.21.37-.19.09-.56-.09-.75.09.75-.09 1.58-.75 2.05-.28-.19-.37-.37-.56-.19.28.56-.37.47-.37.93.09 0 .19-.19.19.09-.09 0-.19 0-.19-.09-.19.19-.09.56-.56.37-.09.37 0 .37-.09.75-.43-.17-.78.45-1.05.84.14-.12.2.38.12.38-.19 0-.09-.19-.19-.28-.28.09-.37.19-.47.28.37-.09.19.28.19.47-.19 0-.19.19-.28.19 0-.28-.09-.37-.28-.56-.19.28 0 .37-.09.75.09 0 .09.19 0 .19s-.09 0-.09-.09h-.19c-.37.47-.84 1.3-1.12 1.12 0 .47-.56.47-.28 1.02-.19 0-.19-.28-.28-.28-.47.65-1.3.93-1.3 1.96 0-.28-.09-.37-.19-.37-.09.37-.47.56-.19.93-.28 0-.28-.37-.56-.28 0 .09-.19.09-.19.28.19 0 .19.19 0 .19v-.19c-.37.75-1.3 1.49-2.05 1.68 0-1.02.28-2.14 0-2.98.09-.09.28-.19.28-.37.28-2.05.56-4.1 1.12-5.78.37-2.61 1.12-5.12 1.4-7.92-.28 0-.37-.09-.37-.19.19-1.21-.65-2.7-1.3-3.63-.47.19-1.12-.84-1.86-.28-.09-.28.19-.56-.28-.65 0 .37-.47.28-.65.19-.28.19-.19.37-.28.47-.28 0-.19-.37-.65-.28-.19.28-.19.28-.56.19-.09.19.37.28 0 .37-.37.19-.19-.19-.47-.19-.09.19.28.19.09.56.37-.09.37-.09.47.19-.47 2.79-1.12 4.66-1.4 7.55.75-1.96.65-4.75 1.68-6.61-1.12 7.27-2.98 11.93-2.79 19.66.93 2.52 2.89 4.01 5.78 4.57.19 0 .19-.19.56-.09.19 0 .19.09.47.09 5.12-2.05 7.83-6.8 11.46-10.44-.09.19 0 .28.28.28.09-1.12 1.02-2.14 1.68-2.33-2.14 4.47-3.63 8.85-5.4 13.6-.19.84-.47 2.05-1.12 2.98.09.93-.65 2.79-1.12 3.63.09 0 .28.09.28.37-.28.09-.56.19-.56.56.28.19-.19 1.96-.56 1.77-.19.37.19.19.19.47-.93 1.02-.47 2.98-1.49 4.19.19 1.3-.37 1.58-.19 2.52h-.37c.28 1.3-.56 1.96-.37 3.54-.28 0-.37 0-.37.09.37.75-.37 1.96-.09 3.08-.65 1.68 0 4.01 0 5.78-.84-1.86-.56-4.57-.84-6.24-.37 2.7.28 5.68.93 7.83-.09-.19.09-.37.19-.09 0 .19-.09.19-.19.09 1.02 2.14 2.98 2.7 4.47 4.47.19-.09.47-.19.65.09.09-.28.84 0 1.12.37-.09-.65.47-.47.93-.56 0-.37-.28-.37.09-.47.19 0 .19.19.56.19 0-.37.09-.75.19-1.3-1.86-4.01-.28-9.13 0-13.23.75-.84.75-2.24.84-3.17.09 0 .19-.19.28-.28-.28-1.12.93-1.86.75-3.35.65-.84.75-1.96.84-2.98.28.09.84-1.21.47-1.4.47-.09.47-.75.47-1.21.28-.65.65-1.58.84-2.7.93-2.24 1.68-5.03 2.61-6.89-.09 0-.19-.09-.19-.19.37 0 .37-.56.28-.84.09 0 .09.09.28.09 3.45-10.06 8.48-19.19 12.67-29.35-.15-.15-.34-.15-.34-.33zm-36.71 22.73c.37-.19.37.47 0 .37v-.37zm0 .65h.09c-.09-.47.37 0 0 0-.09.37.19.47.19.65-.46.19-.28-.37-.28-.65zm.28 1.77c-.28 0-.28-.28-.28-.56.1.19.28.28.28.56zm-.18.19c.28-.19-.09.56.28.37-.28.37-.38-.19-.28-.37zm.18-2.8c-.37-.47.09-1.02 0-1.58.28.09 0 1.12 0 1.58zm.19-3.17c-.09-.37.19-.37.09-.65.1 0 .28.75-.09.65zm.09-.93c.09-.09.09-.19.09-.37.29.09.38.37-.09.37zm.38-.56c-.28 0-.09-.28-.09-.37.37 0-.01.19.09.37zm0-.56c-.37-.09.09-.19 0-.37.18 0 0 .28 0 .37zm.28-1.11h-.09c0 .19-.19.19 0 0 0-.28-.09-.65.09-.75.37.09-.1.47 0 .75zm.46-2.98c.1.46-.28 0 0 0-.09-.47.37 0 0 0zm.1-1.22c.19-.28.28-.37.28-.84.18.19.09.94-.28.84zm.46-.93c-.56-.19 0-.75.09-1.02.19.37-.18.74-.09 1.02zm12.3 6.71c0 .09-.19.09 0 0 0-.09.09-.09 0 0zm1.02-1.21c0-.19.09-.37.37-.37-.18.18-.18.46-.37.37zm.56-.47c-.19-.09 0-.19 0-.28.19.1 0 .19 0 .28zm.66-1.58c0-.09.09-.09 0 0 0 .19-.19.19 0 0zm-.19.84c0-.28.19-.37.28-.56.28.09-.09.56-.28.56zm1.12-1.4c0 .19 0 .19-.09.19 0 .09-.19.19-.19.28-.19 0-.09-.19 0-.28h.19c-.01-.19-.01-.19.09-.19 0-.37.46 0 0 0zm.18-.37c0-.19.09-.19.28-.19 0 .19-.18.19-.28.19zm-9.03 48.07c.09 0 .19.09.19.28-.19 0-.19-.09-.19-.28zm1.3-12.85v-.28c.28-.09.28.09.28.37-.09 0-.09-.09-.28-.09zm.47-2.05c.28.09 0 .19 0 .37-.19-.19 0-.28 0-.37zm.09.93v-.28c.19 0 .19 0 .19-.09.18 0 .09.55-.19.37zm.47-1.31c.09.47-.28 0 0 0-.1-.56.37-.09 0 0zm.27-1.11c.28 0-.28.37.09.37-.27.37-.36-.19-.09-.37zm.56-1.4c-.37 0-.19-.37 0-.47.28.1-.18.19 0 .47zm0-1.77c0-.19.09-.19.19-.19 0 .19-.09.19-.19.19zm.38-1.68c0 .09-.19.09 0 0-.28-.37.37-.28 0 0zm.37.84c-.19-.09-.19-.19-.09-.28h.19c-.1.09-.1.19-.1.28zm.09-.56c-.28-.56.28-1.58.56-2.24.28.66-.56 1.4-.56 2.24zm.65-2.51c-.09-.75.37-.75.37-1.12.1.18-.09.93-.37 1.12zm1.31-5.6h.19v.19h-.19v-.19zm-.56 1.78c0-.1.09-.1 0 0 0 .09-.28.09 0 0zm.28 1.02h-.09c0 .37-.09.65-.19.93-.47-.09.09-.75.19-.93-.09-.28 0-.47.09-.56.28 0 0 .37 0 .56zm.37.09c.09-.09 0-.47.28-.37 0 .28-.09.37-.28.37zm.1-1.67c-.09.19-.09.56-.19.75-.37-.09.09-.56.09-.75h.1c0-.28-.19-.84.19-.65-.01.27-.01.55-.19.65zm.93-2.15c-.37-.09-.19-.19-.19-.47.37.1.19.1.19.47zm.09-2.14c-.28-.09 0-.19 0-.28.19.09 0 .19 0 .28zm.19.56c0-.09.09-.09 0 0 .09.47-.28 0 0 0zm.09-.47c0-.09.19-.09.28-.09 0 .09-.09.09-.28.09zm1.12-3.91c0 .19-.09.19-.19.19 0-.19.09-.19.19-.19zm-.1.47c0 .09-.09.09-.19.09.01-.09.1-.09.19-.09zm-.46 3.44c0-.09.19-.09.28-.09 0 .09-.09.09-.28.09zm.37-2.33c.19.37-.09.56-.19.93-.18-.27.01-.83.19-.93 0-.19 0-.47.37-.47-.18.29-.18.47-.37.47zm.75-1.77h-.09c0 .09.09.09.09.37-.19 0-.28-.19-.19-.37h.09c.09-.56.37-1.02.56-1.49.1.38-.28 1.03-.46 1.49zm1.02-2.7c0 .1-.18.1 0 0 0-.09.09-.09 0 0zm1.03-2.14h-.09c0 .28.09.56-.28.47 0-.19 0-.28.28-.47 0-.09 0-.19.09-.28.09 0 0 .19 0 .28zm-.1-9.69c.09-.09 0-.47.28-.37 0 .28-.09.37-.28.37zm.75 8.29c-.09 0-.09 0-.09.09h-.09c0 .09-.09.19-.09.37-.28 0-.19-.28 0-.37h.09c0-.19 0-.47.19-.37-.01.19-.01.19-.01.28zm.37-9.78c.09.37-.28.37-.28.56-.28-.1 0-.56.28-.56 0-.09.09-.09 0 0zm.56-.65c0 .09 0 .09-.09.09 0 .19-.19.28-.19.37-.19 0-.09-.19 0-.37h.19c0-.09 0-.09.09-.09.09-.09 0-.47.28-.28-.09.09-.09.37-.28.28zm.56-.56c-.28-.09 0-.19 0-.28.19.09 0 .18 0 .28zm.65-.84h-.09c-.09.09-.09.37-.37.28-.09-.28 0-.47.37-.28 0-.19 0-.28.09-.37.09 0 0 .18 0 .37zm.19-.56c.19-.28.19-.56.56-.56-.19.19-.19.56-.56.56zm1.12-1.49c0 .09-.19.09 0 0 0-.09.18-.09 0 0zm.93-.93c-.19-.09 0-.19 0-.28.18.09 0 .18 0 .28zm1.12-1.21c-.37-.09-.09-.56.19-.47-.1.19-.19.28-.19.47z"/><path d="M173.67 49.01c.28-1.86.47-2.98.84-4.75-.56 1.02-.84 3.26-.84 4.75zm1.02-5.87c-.19.28-.37.37-.28.65.28 0 .47-.56.28-.65zm83.3-12.21c.09.28 0 .37.09.56.09-.18.09-.56-.09-.56zm-.84 5.59c.09 0 .09.28.28 0-.19-.09-.28-.09-.28 0zm-42.58 23.85c-.09 0-.19 0-.19.09.09.01.19.01.19-.09zm23.94-31.67c-.09.19 0 .19.09.28.01-.1.01-.28-.09-.28zm-.28 7.54c0 .09-.19.28 0 .56.19 0 .28-.56 0-.56zm.38-6.15c0-.56-.09-.65 0-1.12-.19.19-.38.84 0 1.12zm18.91 4.94c.09-.28.09-.37-.09-.47.09.1-.19.47.09.47zm-1.03 7.55v-.09c-.18 0-.18.09 0 .09z"/><path d="M262.55 43.51c.47-.56 0-1.4.47-2.05.09-2.7.84-6.15 1.12-8.85.84-4.84 1.4-9.04 1.96-14.16-.09-.65-.19-1.3-.19-2.14-.56-.47-1.02-.84-1.49-1.21-.75-.19-1.3-.47-2.14-.37v-.09c-.37.09-.65 0-1.12.09-.75 0-2.05-.37-2.33.28.09-.09.28-.28.47-.28v.56c-.75.19-1.49 1.49-1.49 2.05-.09-.09-.09-.19-.19-.19 0 .09 0 .19-.09.19-.09.37.19-.09.28.09-.19.37-.56.28-.56.56.19 0 .28.37.19.47-.28-.09-.19-.19-.19-.47h-.09v.47c-.28-.19-.19.19-.19.56-.09 0-.28-.09-.37-.09-.09.28-.28.28 0 .56-.09 0-.09.09-.09.09-.56.19-.37.37-.19.75-.47 0-.75.93-.84 1.49-.09 0-.09-.09-.19-.09-.28.75-.56 1.68-1.12 2.33.19.75-.65.56-.56 1.68 0-.09-.09-.09-.28-.09 0 .47-.28.56-.09.84-.75.37-.47 1.49-1.12 1.96-.09.28 0 .47.09.65-.19-.09-.28-.09-.37 0-.28.37.19.19.19.65-.19-.47-.19.28-.56 0 0 .47 0 .65-.47.93.28.28-.19.56 0 .84-.56 0-.47 1.49-.84 1.58.09.56-.47.65-.28 1.4.28 0 .09.56 0 .37-.09-.19.09-.19 0-.37-.65.37-.75 1.4-1.02 2.05 0 0 0-.09-.09-.09 0 .56-.19 1.58-.47 1.4-.19.93-.56 2.05-.75 2.61-.09-.09-.09-.09-.09-.19 0 .37.09 1.21-.37 1.68 0-.09-.47-.19-.28 0v.09c.09 0 .09-.09.28 0-.28.84-.65 2.05-.84 2.7-.28-.37.19-.56 0-.75-.19.37-.56 1.12-.37 1.68.09-.47 0-.75.19-.93.28.65-.28 1.49-.37 2.14-.28.75-.28 1.3-.75 2.14.19-1.02.47-1.49.47-2.14-.56.84-.47 1.96-1.12 2.79 0-.28.09-.28.09-.56-.09.09-.19.09-.19 0-.19-1.77 0-2.89-.19-4.38.19-2.14.09-4.66.19-7.08.19-2.89.75-5.87.65-8.57-.09-3.26.84-6.8-.28-10.25-.28-.19-.37-.37-.56-.47 0-.28-.19-.28-.19-.37-.37-.47-.65-.28-.93-.65-.84 0-1.12-.19-1.58-.37-.09 0-.28.19-.37.19-.09-.19-.19-.19-.47-.19-.84.19-1.77 0-3.07 0-1.03.84-1.68 2.14-2.79 3.07v.28c.09 0 0 .19 0 0-.65.75-1.96 2.42-2.14 3.26 0-.09-.09-.09-.19-.09 0 .47-.47.56-.47 1.02.19.09.09-.37.28-.28-.19.28-.19.56-.56.84 0-.28.19-.28.19-.47h-.19c-.09.47-.28.56-.28.93h.19c0 .19 0 .37-.28.37 0 .19 0 .28-.19.28 0-.09 0-.28.19-.28.09-.19.09-.19 0-.28-.28.19-.47.56-.47 1.02 0-.28.19-.47.28-.28-.09.09-.19.47-.28.28-.28 0-.28.09-.28.19.28 0 .28.09.28.19-.28 0-.37.19-.47 0-.19.19-.19.37-.19.75h.09c0 .19-.09.28-.28.28v.47c-.56.09-.37.75-.75 1.21 0 .28-.19.28-.37.47 0 .09 0 .19-.09.37-.09-.28 0-.37.09-.37v-.47c-.28.28-.19.56-.37.93.09 0 .19.09.19.19-.09 0-.19 0-.19-.19-.56.19-.56 1.4-.84 1.86 0-.19 0-.47-.19-.47.19.56-.56.84-.47 1.4-.37.09-.19.19 0 .47-.37 0-.65.28-.47.84h.09c0-.19 0-.56.37-.28-.09.09-.19.19-.37.28 0 .09 0 .28-.09.28 0 .28 0 .37-.19.56 0-.37.09-.47.19-.56 0-.19-.09-.19 0-.28-.47 0-.75.84-.47.93-.65.19-.84 1.21-.84 1.77h-.28c0 .19-.09.47-.19.56 0 .19-.09.56-.37.65.19-.09 0-.56.28-.56-.37-.28 0-.65 0-1.12-.09 0-.28-.09 0-.19 0-2.05.28-4.75-.47-6.71-2.05-1.12-4.1-.65-5.68.56.09.09.28.09.56.19-.37.47-.28.93-.37 1.49.09.09.37 0 .37.19 0 .03-.01.06-.01.09-.27 0-.36 0-.36.19.09 0 .1 0 .36-.18-.28 2.21-.55 4.68-1.01 6.7.09.19.19-.09.19.19-.19.28-.37 1.96-.28 2.24 0-.19 0-.19.09 0h-.09c-.47.84-.37 1.3-.56 2.52.09-.09.19-.09.19 0-.28.09.09.37-.09.47-.09-.09-.09-.19-.19-.19 0 .28-.28.75-.19 1.12 0-.19.37-.28.37 0-.19.09-.47.28-.47.84 0 0 .09 0 .09.09v.19s-.09-.19 0-.19h-.09c-.09.47.28 1.3-.28 1.58-.28.47 0 .56 0 1.12.19-.09 0 .65-.37.56 0-.19.09-.47.37-.56-.28 0-.28-.09-.37-.09 0 .37-.09.65-.09 1.12.19 0 .65-.19.65.19-.56-.19-.19.19-.65.37.09-.37.09-.47 0-.56-.09.19-.37 1.49 0 1.21 0-.09.09-.09 0 0 0 .09-.09.09-.09.28.09 0 .19.09.19.19-.09 0-.09-.09-.19-.19-.19.09.19.75-.19.84-.09-.09.19-.47-.09-.47-.09.47.09.56.28 1.02-.19.37-.47 0-.47.37 0 .09.47.09.09.19.09.28.19.47-.09.47-.09.19.19.47-.09.37.19.28.09.65-.19.93 0 .19.28.19.28.28-.28.09-.09.47.09.56 0-.09 0-.28.09-.09 0 0 0 .09-.09.09 0 .09 0 .09-.09.09 0-.19-.28 0-.28-.09.19 0 0-.65-.09-.47.09.56-.28.93-.09 1.3 0-.09.09-.19.19-.19-.09-.19.37-.19.37-.09-.09.09 0 .28-.19.28 0-.09.09-.19-.19-.19 0 .09 0 .19-.19.19 0 .37.09.75 0 1.4-.19 0-.09-.28-.19-.28-.19.37.09.47.19.75-.19 0-.19.09-.19.19.09 0 .19 0 .19.09-.09.09-.09.09-.19.09.19.28.09.28.09.84-.28 0-.28-.28-.37-.28.09.37.09.28 0 .56.09-.09.28-.09.28 0-.19.19 0 .56-.28.56-.09.19.09.28.09.47-.28-.09-.19.47-.19.84.19 0 .09.56.09.65-.09 0-.09-.28-.19-.09-.4.72.02 2.27-.27 3.1.03-.14.12-.22-.2-.3 0 .09-.09.36.18.37-.04.11-.1.21-.18.28.19.65.19 1.58.65 2.24 1.4.28 2.79 1.21 4.75 1.68 3.35 0 4.01-3.73 4.47-6.43.09-.37.28-.56.37-.84-.09 0-.19-.28-.19-.47.19 0 .19.09.37.09.19-1.58.56-2.8.84-4.47-.28-.19.28-.09.09-.28.56-4.19 2.14-9.41 3.35-13.42-.28-.19-.19-.47 0-.56.19.19-.19.37.19.28.93-3.26 2.42-6.24 3.73-9.69-.09 0-.09-.09-.09-.09h.28c.19-.47.84-1.3.56-1.4.84-1.02 1.4-2.7 2.33-4.01-.09 0-.09-.09 0 0 .84-1.49 1.58-2.98 2.7-4.47 0 .09 0 .19.09.19 0-.28.09-.56.19-.75.09.56-.09 1.3.09 1.68.19-.37-.09-.65.19-.93 0 .75.09 1.49-.28 1.58v.28c.56 2.05-.47 4.01 0 6.34-.19 0-.09-.19-.19-.19-.28.37.19.28.19.65-.09 0-.09-.09-.19-.09.09.75-.37 1.21.09 1.96-.09-.09-.09-.28-.37-.09-.09.37.47.37.28.65-.09 0-.09-.09-.28-.09 0 .47.37.19.37.75-.47 0 .09.93-.19 1.12-.19-.09-.19-.19-.28-.19 0 1.12-.19 2.24 0 3.17 0-.28 0-.75.09-.93 0 .47.19.75-.09 1.12 0 0-.02-.02-.03-.05-.41 1.51-.06 4.01-.16 5.73.09 0 .09.09.19.09 0-.28-.19-.93 0-1.12 0 .47.37.84 0 1.12-.19.19-.09.56 0 .84-.19 0-.19-.09-.28-.09v.65c.37 0-.19-.28.19-.28.13.29.18.57.2.84.17.01.26.09.26.18-.17 0-.23-.04-.26-.08.03.47-.01.9.16 1.29-.19 0-.19-.09-.28-.09.09.37.09.65.37.37 0 .75-.09 1.3.28 1.68-.19.47.37.75.28 1.4.56 1.12 1.4 2.05 2.89 2.24.75.84 2.05 1.02 3.26 1.4.56.09.84-.09 1.4 0 1.12-.56 2.24-.84 2.24-2.24.84-.93 1.3-1.49 1.49-2.61-.09 0-.19-.09-.09-.19.09 0 .09.09.09.19 1.03-4.1 2.14-7.55 3.26-11.83-.28 0-.09-.37-.09-.47 1.68-4.47 2.98-8.57 5.03-11.93-.19.28.28.28.28.56-.65 1.77-.65 3.82-.84 5.68.09-.65 0-.93.28-1.3-.09.75 0 1.3-.28 2.05 0-.19 0-.37-.19-.37-.09.28-.19.56-.19.84.09 0 .37-.09.37 0-.28.37.09.84-.28.93-.19-.09.37-.56-.09-.65-.54 4.14-1.42 7.94-1.31 11.97.03-.03.09-.05.19-.05.19.19-.19.09 0 .56 0 .09-.37.09-.47.09.09.93-.19 1.49 0 2.14h.28c-.75.65-.28 2.05-.56 2.98.09.28.28-.28.28.28.09 0 .28.09.09.09-.09 0-.09 0-.09-.09h-.28c0 .19-.19.56.19.56 0-.28-.19-.37 0-.47 0 .09.09.47 0 .47 0 .28.09.65-.09.28-.37.37 0 .84.09 1.3-.09.09 0 .56-.19.28 0 1.02.09 1.68 0 2.7.37 0 0-1.02.19-1.12.09.56.37 1.58-.09 1.21-.09.56.19 1.49.09 2.14.09 0 .19-.19.19.09.19 0 .19 0 .19.09-.19 0-.19 0-.19-.09-.28.37-.19 1.02.19 1.4-.28 1.68.75 3.35 1.12 5.4.19 0 .28.56.19.75-.09-.28-.19-.37-.19-.75-.47-.28-.28-.93-.56-1.3.19 1.49.75 2.42 1.4 3.54-.09-.09-.09 0-.09.19 2.05.37 3.35 1.96 6.06 1.86.19-.47.56-.56.65-1.12-1.77-2.05-2.14-5.22-2.7-8.39-.49-6.53.16-13.33.44-19.11zm-47.98 21.24v-.37c.18-.09.18.56 0 .37zm.18-2.05c0-.28.19-.28.37-.28-.09 0-.09.38-.37.28zm.38-2.23c.09-.09 0-.56 0-.75.18 0 .18.65 0 .75zm.37-2.24c0-.09.09-.09.09-.09 0 .09-.09.09-.09.09zm0-.65c0-.09.09-.09.09 0s0 0-.09 0zm.19-2.24c.37 0 .19.65.19.65-.29-.09-.1-.18-.19-.65zm.37 1.87h-.19v-.19h.19v.19zm.19-4.2c-.09.19.09.65-.19.65 0 .09-.19.09-.19.09 0-.09.19-.09.19-.09 0-.19 0-.47.09-.65h.1c0-.09-.09-.28-.19-.28 0 0 0-.09.09-.09h.19c0 .09 0 .37-.09.37zm.09-.46c-.09 0-.09-.19-.09-.37.09 0 .09.19.37.28-.28-.01-.28-.01-.28.09zm.28-1.21c-.28 0 0-.47 0-.47.28 0 0 .37 0 .47zm.09-3.08c.09 0 .19.28.19.37-.1 0-.19-.09-.19-.37zm.09 1.59c0 .09-.09.09 0 0 0-.28.38 0 0 0zm0-.84c.1 0 0 .09 0 0 0-.47.38-.19 0 0zm.19-.75c-.09 0 0-.19 0-.28.19 0 .19.09.19.19-.19 0-.19 0-.19.09zm.28-.84c-.37-.09.09-.37 0-.56.19.1 0 .28 0 .56zm.56-4.56c-.28.09-.28-.19-.28-.28.19 0 .28.09.28.28zm-.28 1.95c0-.09.19-.09.28-.09 0 .09-.09.09-.28.09zm.19-.83c0-.19.09-.19.19-.19-.1.19-.1.19-.19.19zm1.21-11.74c0-.19 0-.19.09-.19 0 .19-.09.19-.09.19zm5.59 6.98c-.28 0-.09-.09 0-.28.09.01 0 .19 0 .28zm.18-.65c-.09-.65.28-.18 0 0zm.47-.46c-.09 0-.09-.19-.09-.28.18.09.09.09.09.28zm.09-.56v-.09c.47-.1-.46.55 0 .09zm.28-.28c-.28-.19 0-.47.09-.47 0-.28.09-.28 0 0 .1.19-.09.19-.09.47zm.37-1.03c-.28-.09.19-.37 0-.47.28.01.19.38 0 .47zm.84-.84c0 .19-.09.19 0 0-.09-.27.19 0 0 0zm.19-1.49c-.19-.28.28-.37.09-.56.38 0-.09.28-.09.56zm.84-2.14c.09 0 .09.09.19.28-.01.28-.38 0-.19-.28zm.56-.09c-.47-.19-.37-.47 0-.56 0-.19.09-.19 0 0 .09.28-.28.28 0 .56zm1.77-3.08c0-.09 0-.09.09-.09 0 .09-.09.09-.09.09zm1.31-3.23c.01-.07.03-.12.08-.12-.05.05-.07.08-.08.12zm.92-1.7v-.09c.47-.01-.46.55 0 .09zm.47-.56c0 .18-.19.18 0 0 0-.1.19 0 0 0zm.37-.38c-.09-.47.19-.37.28-.56.19.1-.09.28-.28.56zm1.12-1.67c-.09 0-.09.09-.09.09 0 .09-.09 0 0 0 0-.09 0-.09.09-.09-.09-.38.28 0 0 0zm3.82 19.84c.09 0 .09.84 0 1.02-.09-.18 0-.46 0-1.02zm0 2.33c-.19-.09 0-.19 0-.37.09-.19 0 .18 0 .37.09.19 0 .75 0 .84-.19-.09-.09-.65 0-.84zm0 1.86c.09 0 0 .19.09.19-.09.37-.18-.09-.09-.19zm.28-6.98c-.28 0 0-.28-.19-.47.38.19.19.28.19.47zm.19 12.02c-.09-.19-.09-.28-.09-.37.18-.1.09.09.09.37zm.09.18h-.09v-.09h.09v.09zm-.09-16.4v-.19c.09-.09.09.19.09.28-.09.01-.09-.09-.09-.09zm.18-9.31v-.19h.28c.09.09 0 .09 0 .19h-.28zm.19 5.59c.19 0 0 .19 0 .37-.37-.19 0-.28 0-.37zm0 21.8c0-.09.09-.09.09-.09 0 .09-.09.09-.09.09zm.09-22.92v.09c0 .37-.37-.09 0-.09-.09-.47.19 0 0 0zm5.78 20.22c0-.1.09-.1 0 0 .37.28-.47.09 0 0zm2.23-6.43h-.19v-.19h.19v.19zm.47-.47c0-.09 0-.09.09-.09 0 0-.09 0-.09.09zm.09-1.12c0 .19-.09 0 0 0 0-.09.1-.09 0 0zm.84-1.95c0-.19.09-.19.09-.37.19-.19.19.55-.09.37zm.19-.84c0-.09.09-.09.19-.09-.1.09-.1.09-.19.09zm0-.56c0-.09.09-.09.19-.09-.1.09-.1.09-.19.09zm.18-.56c0-.09 0-.09.19-.09 0 .09-.19.09-.19.09zm.19-.37c0-.09.09-.09 0 0 .09.37-.28 0 0 0zm1.31-2.8h-.19V34h.19v.19zm.37-.74c-.19 0-.28-.28-.28-.47.28 0 .37.47.28.47zm.84-3.36c0-.09.28-.09.28-.09 0 .09-.28.09-.28.09zm.37.1c.09-.09.09-.37 0-.37.09-.38.28.46 0 .37zm1.21-2.7c-.19 0-.09-.09 0-.28.09 0 0 .18 0 .28zm1.49-2.89c0 .09-.19.09 0 0 0-.1.09 0 0 0zm.37-.75c0-.19 0-.19.19-.19 0 .19-.19.19-.19.19zm.94-2.14v-.09c.55-.19-.38.55 0 .09zm.18-.37c0-.09.19-.09.37-.09-.18.09-.18.09-.37.09zm2.14-4.48h-.19v-.19h.19v.19zm-2.32 39.6l-.09-.19c-.01-.27.27.1.09.19zm0-1.68c.09 0 .09.19.09.47-.28.09-.09-.37-.09-.47zm0 5.5c0-.28.09-.28.19-.28-.01 0-.1 0-.19.28zm.18-7.64c-.28-.19-.09-.56-.09-1.12.46.38-.09.56.09 1.12zm.19 7.18c0-.09.19-.09.19-.09-.01.09-.19.09-.19.09zm-.19-10.72c.56-.37-.09.75.37.75-.55.28 0-.66-.37-.75zm.37-.28c-.37-.09-.19-.19-.19-.28.29 0 .29.19.19.28zm0-3.17c.37 0 .09.65.19.65-.37.1-.09-.55-.19-.65zm0 1.49v-.09h.09v.09h-.09zm.1.84c.28 0 .28.09.28.28-.28 0-.28-.18-.28-.28zm.09-3.26c-.19-.47 0-.75.19-1.68.18.38 0 1.22-.19 1.68zm.28 20.69c.09.09.19.09.19.37-.19 0-.19-.19-.19-.37zm.09-23.3h-.09c0 .19-.09 0 0 0-.28-.19.19-.28.09-.65.38.28-.09.47 0 .65zm.1-.93c-.28-.28.09-.75 0-1.02.28.18-.1.65 0 1.02zm.37-3.35c.19.09 0 .19.09.37-.18 0-.18-.28-.09-.37zm0-.28c0-.09.09-.09.19-.09 0 .09-.1.09-.19.09zm.28 31.12c-.09 0-.09-.1 0 0zm.46-33.54c0 .27-.27 0 0 0 0-.38.38 0 0 0zm0-2.52c-.19-.37.09-.75.09-1.4.47.19-.09.84-.09 1.4zm.28-2.24c0-.09.09-.09.28-.09-.18.09-.18.09-.28.09zm.28-.37c-.19-.19-.19-.28-.19-.47.19 0 .29.19.19.47zm.47.65c0 .09.09.09.09.28-.09-.09-.18-.09-.09-.28z"/><path d="M238.23 37.27s.28-.37 0-.37c0 .09-.18.37 0 .37zm18.26 4.75c-.19 0 0 .37 0 .47.1 0 0-.38 0-.47zm-39.59 2.89c0-.09 0-.09.09-.09-.09-.09-.09-.19-.19-.09 0-.01 0 .18.1.18zm37.36-21.06c-.09 0-.09 0-.09.09 0 0 .09 0 .09-.09zm-39.6 35.78c-.19-.19-.19.09-.19.19.1 0 .1-.1.19-.19zm.37-2.98c-.09-.28.19-.65 0-.84 0 .19-.37.65 0 .84zm3.45-22.74c-.09.19-.19.56 0 .75-.09-.47.19-.65 0-.75zm-1.49 9.69c-.09 0 0 0 0 .19-.37.47.37-.28 0-.19zm32.14-8.75c.05-.05.08-.07.12-.08-.07 0-.12.02-.12.08zm4.66-10.35s0-.09.09 0c0-.09-.09-.28-.19-.28.01.19.01.28.1.28zm-4.53 10.26c.04 0 .09-.01.16-.01-.09 0-.13 0-.16.01zm-11.59 8.84c0-.09.19.37.19.37.09-.18-.19-.74-.19-.37zM214.2 62.8c.28-.09-.19-.65-.19-.19 0-.19.19.19.19.19zm41.27-9.04c0-.28.28-.47 0-.75 0 .28-.09.75 0 .75zm-25.44-26h-.19c-.09.09-.28.09-.09.28h.09c.01-.18.19-.18.19-.28zm.38-.93c-.19-.09-.19.09-.19.19.09 0 .19-.09.19-.19zm26.18 39.13c.09.19.09.37.28.47-.19-.09.09-.56-.28-.47zm-25.34-40.43c-.09 0-.09.09-.09.09.09 0 .09 0 .09-.09zm24.87 38.76c0 .09-.09.09-.09.37.28 0 .09.37.47.56-.19-.47-.01-.84-.38-.93zm-17.51-36.43c.19.09.09-.84 0-.84.09.47-.1.47 0 .84zm-6.81-3.36c-.09 0-.09.09-.09.09.09.01.09.01.09-.09zm6.43 6.81h.28v-.19h-.28v.19zm.38-.66v-.09h-.19v.09h.19zm16.86 24.88c.09-.37.09-.37 0-.56-.19 0-.09.37 0 .56zm.84-7.55c-.01-.14 0-.28-.01-.42-.08.07.01.22.01.42zm-23.67-13.41c.19 0 .19 0 .19-.09-.19-.01-.19.09-.19.09zm22.83 17.61c0 .19-.09.19 0 .37.28.09.28-.47 0-.37zm.47 10.43c-.09.47-.19 1.02.09.93-.19-.18.09-.84-.09-.93zm-.47-6.61c0-.09-.09-.19-.09 0 .09-.1.09.09.09 0z"/><path d="M256.49 65.41s.09-.19 0-.19c-.18.09-.37.19 0 .19zm-.74-15.01c.09 0 .19-.56-.19-.47.19.2-.09.47.19.47zm-40.81 9.04v-.19c-.19.01-.19.19 0 .19zm-.93 4.38c-.09.65-.09 1.4 0 1.96 0-.47.19-1.49 0-1.96zM238.7 25.9c0 .19-.19.47 0 .47-.09-.19.28-.28 0-.47zm-23.11 28.33v-.09c-.09-.01-.09.09 0 .09zm22.08-7.65v.19c.28 0 .28-.19.28-.28h-.09l-.19.09zm.56 1.96c0 .04 0 .07.02.1 0-.03-.01-.07-.01-.1 0 .01 0 0-.01 0zm-.12-7.78c.01-.04.02-.09.03-.14-.05.05-.05.1-.03.14zm-21.21 5.82v-.09c-.1 0-.1.09 0 .09zm12.67-18.16c.19.09.09-.37.19-.37-.19-.01-.29.09-.19.37zm16.86 14.72c-.09 0-.09.28-.09.37.09 0 .09-.28.09-.37zm-.65 2.61c-.37.09-.37.65-.37 1.12h.28c-.28-.29.09-.66.09-1.12zm.75-3.26c.37.09.28-.19.28-.47-.28 0 0 .47-.28.47zM229.2 28.98c-.19 0-.19.19-.28.19.28.09-.28.56.19.56-.1-.57.09-.57.09-.75zm-4.38 8.47v-.09c-.1 0-.1.09 0 .09zm-.28-.65v.19c.09 0 0-.19 0-.19zm27.67-8.66c-.19-.19-.28.28-.09.28-.1-.1 0-.1.09-.28zm-5.96 15.37c0 .28-.19.28 0 .47.09 0 .09-.37.09-.47h-.09zm-32.33 24.13c0 .19 0 .56.28.56 0-.19 0-.47-.28-.56zm41.55-11.18c0 .09-.09.75 0 .56 0-.09.09-.93 0-.56zM280.34 60c-.28.84-.84 1.86-.65 2.52.09-.84.74-1.68.65-2.52zm-1.12 3.36c-.37.93-.65 1.68-.84 2.7.38-.75.94-1.87.84-2.7zm-2.14 7.54c.37-1.58 1.02-2.89 1.3-4.84-.55 1.58-1.3 3.35-1.3 4.84zm-.37.47c.19 0 .28 0 .28-.19-.1 0-.28 0-.28.19zm3.82-12.11c0 .19-.28.56 0 .65-.1-.28.56-.65 0-.65zm-1.87-10.81zm-13.23 2.89c.37-.56.09-1.12.37-1.77-.46.18-.46.93-.37 1.77zM273.35 86c-.09.09-.19.19-.09.47.37.18.37-.47.09-.47zm10.91-44.26h.09c0-.37-.09-.28-.09 0zm-18.92 9.6c-.09 1.58-.37 3.26.37 4.66-.37-1.58-.19-3.45-.28-4.66h-.09zm18.54-.56c-.09.09-.09.19-.09.28h.09c0-.1.1-.28 0-.28z"/><path d="M302.7 29.26c.09-.93-.65-1.21-.84-1.96-.28-.09-.75-.28-.93-.65-.37-.19-.56.09-.84.09 0 .09-.19.09 0 0 .09-.56-.19-.09-.47 0-.93-.56-2.61-1.02-3.63-.56-.09-.47-.56 0-.84-.37-.37.37-.19.56-.37.93-.19-.28.09-.65-.28-.56-.19.75.56 1.12.09 1.68 0 .28-.09.47-.28.28.09-.09 0-.37.28-.28 0-.09 0-.37-.09-.37-.28.47-.65.65-.09 1.02-.56 1.02-2.14 1.58-2.05 2.89-.28-.09-.19.37-.37.37-.19-.28.28-.37 0-.47-.19.09-.28.19-.37.19v.28c.09 0 .19.19.09.19-.09 0-.09-.09-.09-.19-.47.09 0 .47-.37.75 0-.19 0-.47-.09-.47 0 .37-.47.28-.19.75-.37-.37-.37.28-.65.28.19.56-.19 1.02-.37 1.4 0-.28.09-.56-.19-.47-.47 1.68-1.68 2.42-2.42 3.91-.19 0-.19-.28-.28-.28-.09.28.28.47 0 .56 0-.19-.28-.19-.28-.09.28 0 .28.65-.09.47.09.47-.19.56-.28.19-.28.19.19.56-.19.84-.19 0-.09-.37-.19-.37-.19.28 0 .84-.37.37-.09.56-.75.84-.65 1.3-.09-.09-.19-.09-.28-.09-.19.19-.19.37-.19.93h-.19c0 .09-.09.09-.09 0-.28 0-.28.19-.37.19.09.65-.47.75-.56 1.21 0-.09 0-.19-.09-.19 0 .19 0 .47-.09.47s-.09-.19-.09-.28c-.75.28-.28 1.02-.84 1.21.37-.19.09-.56-.09-.75.09.75-.09 1.58-.75 2.05-.28-.19-.37-.37-.56-.19.28.56-.37.47-.37.93.09 0 .19-.19.19.09-.09 0-.19 0-.19-.09-.19.19-.09.56-.56.37-.09.37 0 .37-.09.75-.43-.17-.78.45-1.05.84.14-.12.2.38.12.38-.19 0-.09-.19-.19-.28-.28.09-.37.19-.47.28.37-.09.19.28.19.47-.19 0-.19.19-.28.19 0-.28-.09-.37-.28-.56-.19.28 0 .37-.09.75.09 0 .09.19 0 .19s-.09 0-.09-.09h-.19c-.37.47-.84 1.3-1.12 1.12 0 .47-.56.47-.28 1.02-.19 0-.19-.28-.28-.28-.47.65-1.3.93-1.3 1.96 0-.28-.09-.37-.19-.37-.09.37-.47.56-.19.93-.28 0-.28-.37-.56-.28 0 .09-.19.09-.19.28.19 0 .19.19 0 .19v-.19c-.37.75-1.3 1.49-2.05 1.68 0-1.02.28-2.14 0-2.98.09-.09.28-.19.28-.37.28-2.05.56-4.1 1.12-5.78.37-2.61 1.12-5.12 1.4-7.92-.28 0-.37-.09-.37-.19.19-1.21-.65-2.7-1.3-3.63-.47.19-1.12-.84-1.86-.28-.09-.28.19-.56-.28-.65 0 .37-.47.28-.65.19-.28.19-.19.37-.28.47-.28 0-.19-.37-.65-.28-.19.28-.19.28-.56.19-.09.19.37.28 0 .37-.37.19-.19-.19-.47-.19-.09.19.28.19.09.56.37-.09.37-.09.47.19-.47 2.79-1.12 4.66-1.4 7.55.75-1.96.65-4.75 1.68-6.61-1.12 7.27-2.98 11.93-2.79 19.66.93 2.52 2.89 4.01 5.78 4.57.19 0 .19-.19.56-.09.19 0 .19.09.47.09 5.12-2.05 7.83-6.8 11.46-10.44-.09.19 0 .28.28.28.09-1.12 1.02-2.14 1.68-2.33-2.14 4.47-3.63 8.85-5.4 13.6-.19.84-.47 2.05-1.12 2.98.09.93-.65 2.79-1.12 3.63.09 0 .28.09.28.37-.28.09-.56.19-.56.56.28.19-.19 1.96-.56 1.77-.19.37.19.19.19.47-.93 1.02-.47 2.98-1.49 4.19.19 1.3-.37 1.58-.19 2.52h-.37c.28 1.3-.56 1.96-.37 3.54-.28 0-.37 0-.37.09.37.75-.37 1.96-.09 3.08-.65 1.68 0 4.01 0 5.78-.84-1.86-.56-4.57-.84-6.24-.37 2.7.28 5.68.93 7.83-.09-.19.09-.37.19-.09 0 .19-.09.19-.19.09 1.02 2.14 2.98 2.7 4.47 4.47.19-.09.47-.19.65.09.09-.28.84 0 1.12.37-.09-.65.47-.47.93-.56 0-.37-.28-.37.09-.47.19 0 .19.19.56.19 0-.37.09-.75.19-1.3-1.86-4.01-.28-9.13 0-13.23.75-.84.75-2.24.84-3.17.09 0 .19-.19.28-.28-.28-1.12.93-1.86.75-3.35.65-.84.75-1.96.84-2.98.28.09.84-1.21.47-1.4.47-.09.47-.75.47-1.21.28-.65.65-1.58.84-2.7.93-2.24 1.68-5.03 2.61-6.89-.09 0-.19-.09-.19-.19.37 0 .37-.56.28-.84.09 0 .09.09.28.09 3.45-10.06 8.48-19.19 12.67-29.35-.15-.15-.34-.15-.34-.33zm-36.71 22.73c.37-.19.37.47 0 .37v-.37zm0 .65h.09c-.09-.47.37 0 0 0-.09.37.19.47.19.65-.46.19-.28-.37-.28-.65zm.28 1.77c-.28 0-.28-.28-.28-.56.1.19.28.28.28.56zm-.18.19c.28-.19-.09.56.28.37-.28.37-.38-.19-.28-.37zm.18-2.8c-.37-.47.09-1.02 0-1.58.28.09 0 1.12 0 1.58zm.19-3.17c-.09-.37.19-.37.09-.65.1 0 .28.75-.09.65zm.09-.93c.09-.09.09-.19.09-.37.29.09.38.37-.09.37zm.38-.56c-.28 0-.09-.28-.09-.37.36 0-.01.19.09.37zm0-.56c-.37-.09.09-.19 0-.37.18 0 0 .28 0 .37zm.27-1.11h-.09c0 .19-.19.19 0 0 0-.28-.09-.65.09-.75.38.09-.09.47 0 .75zm.47-2.98c.09.46-.28 0 0 0-.09-.47.37 0 0 0zm.09-1.22c.19-.28.28-.37.28-.84.19.19.1.94-.28.84zm.47-.93c-.56-.19 0-.75.09-1.02.19.37-.18.74-.09 1.02zm12.3 6.71c0 .09-.19.09 0 0 0-.09.09-.09 0 0zm1.02-1.21c0-.19.09-.37.37-.37-.18.18-.18.46-.37.37zm.56-.47c-.19-.09 0-.19 0-.28.19.1 0 .19 0 .28zm.65-1.58c0-.09.1-.09 0 0 0 .19-.18.19 0 0zm-.18.84c0-.28.19-.37.28-.56.28.09-.1.56-.28.56zm1.12-1.4c0 .19 0 .19-.09.19 0 .09-.19.19-.19.28-.19 0-.09-.19 0-.28h.19c-.01-.19-.01-.19.09-.19 0-.37.46 0 0 0zm.18-.37c0-.19.09-.19.28-.19 0 .19-.18.19-.28.19zm-9.03 48.07c.09 0 .19.09.19.28-.19 0-.19-.09-.19-.28zm1.3-12.85v-.28c.28-.09.28.09.28.37-.09 0-.09-.09-.28-.09zm.47-2.05c.28.09 0 .19 0 .37-.19-.19 0-.28 0-.37zm.09.93v-.28c.19 0 .19 0 .19-.09.18 0 .09.55-.19.37zm.46-1.31c.1.47-.28 0 0 0-.09-.56.38-.09 0 0zm.28-1.11c.28 0-.28.37.09.37-.27.37-.37-.19-.09-.37zm.56-1.4c-.37 0-.19-.37 0-.47.28.1-.18.19 0 .47zm0-1.77c0-.19.09-.19.19-.19 0 .19-.09.19-.19.19zm.38-1.68c0 .09-.19.09 0 0-.28-.37.37-.28 0 0zm.37.84c-.19-.09-.19-.19-.09-.28h.19c-.1.09-.1.19-.1.28zm.09-.56c-.28-.56.28-1.58.56-2.24.28.66-.56 1.4-.56 2.24zm.65-2.51c-.09-.75.37-.75.37-1.12.1.18-.09.93-.37 1.12zm1.31-5.6h.19v.19h-.19v-.19zm-.56 1.78c0-.1.09-.1 0 0 0 .09-.28.09 0 0zm.28 1.02h-.09c0 .37-.09.65-.19.93-.47-.09.09-.75.19-.93-.09-.28 0-.47.09-.56.28 0 0 .37 0 .56zm.37.09c.09-.09 0-.47.28-.37 0 .28-.09.37-.28.37zm.09-1.67c-.09.19-.09.56-.19.75-.37-.09.09-.56.09-.75h.1c0-.28-.19-.84.19-.65 0 .27 0 .55-.19.65zm.94-2.15c-.37-.09-.19-.19-.19-.47.37.1.19.1.19.47zm.09-2.14c-.28-.09 0-.19 0-.28.19.09 0 .19 0 .28zm.19.56c0-.09.09-.09 0 0 .09.47-.28 0 0 0zm.09-.47c0-.09.19-.09.28-.09 0 .09-.1.09-.28.09zm1.12-3.91c0 .19-.09.19-.19.19 0-.19.09-.19.19-.19zm-.1.47c0 .09-.09.09-.19.09.01-.09.1-.09.19-.09zm-.46 3.44c0-.09.19-.09.28-.09 0 .09-.1.09-.28.09zm.37-2.33c.19.37-.09.56-.19.93-.18-.27 0-.83.19-.93 0-.19 0-.47.37-.47-.18.29-.18.47-.37.47zm.75-1.77h-.09c0 .09.09.09.09.37-.19 0-.28-.19-.19-.37h.09c.09-.56.37-1.02.56-1.49.09.38-.28 1.03-.46 1.49zm1.02-2.7c0 .1-.19.1 0 0 0-.09.09-.09 0 0zm1.03-2.14h-.09c0 .28.09.56-.28.47 0-.19 0-.28.28-.47 0-.09 0-.19.09-.28.09 0 0 .19 0 .28zm-.1-9.69c.09-.09 0-.47.28-.37 0 .28-.09.37-.28.37zm.75 8.29c-.09 0-.09 0-.09.09h-.09c0 .09-.09.19-.09.37-.28 0-.19-.28 0-.37h.09c0-.19 0-.47.19-.37-.01.19-.01.19-.01.28zm.37-9.78c.09.37-.28.37-.28.56-.28-.1 0-.56.28-.56 0-.09.09-.09 0 0zm.56-.65c0 .09 0 .09-.09.09 0 .19-.19.28-.19.37-.19 0-.09-.19 0-.37h.19c0-.09 0-.09.09-.09.09-.09 0-.47.28-.28-.09.09-.09.37-.28.28zm.56-.56c-.28-.09 0-.19 0-.28.18.09 0 .18 0 .28zm.65-.84h-.09c-.09.09-.09.37-.37.28-.09-.28 0-.47.37-.28 0-.19 0-.28.09-.37.09 0 0 .18 0 .37zm.19-.56c.19-.28.19-.56.56-.56-.19.19-.19.56-.56.56zm1.11-1.49c0 .09-.18.09 0 0 0-.09.19-.09 0 0zm.94-.93c-.19-.09 0-.19 0-.28.18.09 0 .18 0 .28zm1.11-1.21c-.37-.09-.09-.56.19-.47-.09.19-.19.28-.19.47z"/><path d="M281.93 44.72c-.19 0-.28 0-.28.09.09 0 .28 0 .28-.09zm.55-1.49c0 .19-.28.28 0 .37 0-.09.19-.18 0-.37zm-15.65-.09c-.19.28-.37.37-.28.65.28 0 .47-.56.28-.65zm23.29-9.69h-.19v.19h.19v-.19zm3.55-4.19c0-.28.56-.56.28-.75-.1.09-.84.65-.28.75zm-19.38 54.03c.09-.37.09-.75.09-1.21-.28.1-.47 1.21-.09 1.21zm1.02-5.96c.47-1.68 1.21-4.1 1.4-5.68-.65 1.77-1.21 3.82-1.4 5.68zm-8.66-33.07c-.56 1.02-.84 3.26-.84 4.75.28-1.87.46-2.98.84-4.75zm8.66 33.07c-.37.84-.84 1.96-.47 2.52.1-.93.38-1.4.47-2.52zm-.93 4.75c.37-.84.09-1.4.47-2.05-.56.47-.56 1.21-.47 2.05zm.37 10.9c-.09.28.28.47.47.28-.28 0-.19-.37-.47-.28zm2.98-43.41c-.09 0-.09 0-.09.09 0 0 .09 0 .09-.09zm4.85 4.47c-.09.19-.47.56-.09.75-.01-.19.27-.66.09-.75zm-.47 1.12c0 .19-.19.19-.09.56.09-.19.19-.37.19-.56h-.1zm.75-1.49c.19-.19.37-.37 0-.47.18.28-.28.37 0 .47zm.74-1.77c0-.37.28-.37.19-.84-.09.28-.56.56-.19.84z"/><path d="M281.65 56.27c.37 0 .37-.28.37-.56-.28.1-.28.29-.37.56zm-.19.56c0 .84-.93 1.77-.56 2.24.09-.75 1.03-2.05.56-2.24zm28.41-13.32c.09 0 .19.09.28.09 0-.09-.18-.37-.28-.09zm21.99-3.63c-.19-.09-.09.28-.19.37.19 0 .29-.09.19-.37zm-21.8-1.49s0 .09-.09.09v.09c.18.1.28-.37.09-.18zm1.68-13.23c.09-.37-.09-.75-.19-.47.28.09-.47.65.09.65 0-.09 0-.18.1-.18zm-1.87 18.63c.09 0 .09.28.19.28.09-.28-.19-.56-.19-.28zm22.74-5.78c-.09-.09.28-.19 0-.37-.1.28-.28.37 0 .37zm-4.29 12.86c.09-.19.09-.47.09-.65-.27.18-.27.46-.09.65zm-17.61-20.22c0 .09-.09.09-.09.09v.19c.19.19.19-.28.09-.28zm1.77-10.9h.03c0-.01-.01-.02-.01-.02-.01 0-.02.01-.02.02zm18.92 21.43c-.09.09-.19.37-.19.65.19 0 .28-.56.19-.65zm1.02-2.7c0 .19-.47.09-.19.47.19 0 .28-.38.19-.47zm-6.71 19.19c0 .37-.19.37-.09.56.09 0 .28-.56.09-.56zm.66-1.67s-.09 0-.09.09c-.01 0 .09 0 .09-.09zm7.64-22.27s-.28.37 0 .47c0-.09 0-.19.09-.19 0-.1 0-.28-.09-.28zm-7.27 21.15h-.09v.28h.09v-.28zm1.3-3.82c-.09 0-.19 0-.19.19.1-.19.19-.01.19-.19zm-16.86-22.64c.09-.09 0-.28-.09-.37 0 .09 0 .37.09.37zm16.77 23.2c-.09.19-.09.28-.19.37.19 0 .19-.09.19-.37zm-3.17 7.64v.09c-.37.47.47-.09 0-.09zm-.37 2.05c-.19 0-.19.09-.19.19.19-.01.19-.1.19-.19zm1.77-4.48c.09-.19.09-.47-.09-.47-.19.1-.19.29.09.47zm-.84 1.49c0-.09.19-.19 0-.19-.09.1-.19.19 0 .19zm-1.12 3.17c-.09.09-.09.19-.19.37.19 0 .19-.18.19-.37zm9.41-26.83c0 .19-.09.19-.09.47.19 0 .37-.47.09-.47zm3.73-9.97c-.09.09-.09.37.09.37 0-.28.09-.28.09-.37h-.18zm5.78-22.55s.09 0 .09-.09c0 0-.09 0-.09.09z"/><path d="M344.25 26.74c.84-.65.56-2.24 1.21-2.79 1.03-3.07 2.42-6.71 3.35-9.97 1.12-4.47 3.07-7.45 2.42-12.11-.56 0-.56-.28-.75-.56-.56.37-1.3-1.12-1.86-.93.09.09.19.28 0 .28-.19-.47-.93-.19-1.12-.65-.37.19-1.21.47-1.58.19-.09.19-.09.28-.19.28-.56-.28-1.4.56-2.14.47-.09.65-.75.28-.93.84.47 0 .93.37 1.3-.09 1.68 1.58-.56 4.1-.37 6.52-.19 0 0-.37-.19-.37-.28.19.19.19.09.56-.56 0-.37.56-.47.93.19 0 .37.56.09.75-.19 0 .09-.47-.09-.47-.09.28-.47.09-.37.47v.09c.19 0 .19 0 .19.09-.19 0-.28 0-.19-.09-.37.28.19.47.37.56-.09.37 0 .37-.09.47-.28-.09 0-.56-.37-.47-.28.28-.19.84-.47 1.02.37.09-.09.56.28.47 0-.47.47 0 0 0 0 .28 0 .65-.28.75-.09-.19.37-.56-.09-.56-.09.37-.47.56-.47 1.21.28 0 .28.19.37.19 0 .19.09.56-.09.56-.28-.28.09-.47-.47-.28 0-.09.37-.28 0-.47 0 .28-.09.37-.09.47.28.09.65.93.09 1.02 0 .09 0 .09-.09.09l.09-.09v-.56c-.19 0-.09-.19-.19-.19 0 .19-.19.19-.19.37.19 0 .19-.09.28 0-.84 2.05-1.21 3.82-2.33 5.59 0 .56.28 1.96-.47 2.42.09-.47.75-1.12.19-1.4-.19 1.02-.28 1.4-.19 2.33.09 0 .09.19 0 .28 0-.09-.09-.09 0-.28-.47.28-.09.84-.65.93 0-.56.65-1.02.19-1.3-.09.37-.65 1.3-.09 1.49-.28.37-.37-.09-.47.28 0 .09-.09.19-.09.28.09 0 .09.19.09.19.09-.19.09.09.19.19-.09 0-.09 0-.09.09-.09.09-.09.56-.28.56-.19.47 0 1.12-.75.84-.09.75-.56.93-.37 1.68h.09c0-.19-.09-.47.19-.37 0 .09-.09.19-.19.37 0 .37-.09.93-.37 1.21 0 .47-.09.19-.28.09.09.47-.47.93 0 .93 0-.19-.19-.37.09-.37-.09.09 0 .37-.09.37-.28.56-.19 1.12-.56 1.4-.19.56-.28 1.02-.47 1.4 0 .09-.28.09 0 0 .09-.75.09-.93.47-1.4-.19-.19 0-.19 0-.65-.75.65-.37 1.68-.93 2.14.09.47-.47.56 0 .75 0-.19.09-.28.19-.56.28.37-.09.37-.09.56h.09c.28-.09.37.37 0 .47 0 .03-.01.04-.02.04.01-.01.02-.02.02-.04 0-.09-.09-.19-.09-.47-.09.37-.09.65-.56.47v.47c.09.09.09-.47.28-.09-.19.56-.28.93-.56 1.49-.28-.19.37-.75.09-.93-.37.93-.65 1.86-.84 2.61.19 0 .28 0 .28.19.47 0 .09.28.09.56-.09-.19 0-.28-.09-.56-.28.19-.28.28-.37.28 0-.28.09-.28.09-.47-.28.19-.37.93-.37 1.12.28 0 .09-.56.37-.37-.09.28-.19.65-.37.84.09.09 0 .28 0 .37-.28-.09-.37-.09-.47 0-.37.56.19 1.21-.37 1.58 0 .09-.09.09 0 0 .09-.19.28-.37 0-.47-.47 1.02-.84 1.96-1.02 3.26-.09.09-.56.56-.19.65.19-.37.09-.84.47-.93a5.83 5.83 0 0 1-.56 1.68c.09-.19 0-.56-.09-.56.09.56-.37.65-.47 1.02.56.09 0 .47.09.75.47.19.19-.56.47-.37.09.09 0 .65-.47.65-.09-.09-.09-.47-.19-.56 0 .19-.28.47-.19.65.19-.09 0-.19.28-.19-.09.28 0 .84-.37.93 0-.19.09-.65-.09-.56-.09.37.09.93 0 1.12-.37.19-.09-.28-.37-.19-.09.47-.19.65-.28 1.02.28.09.19-.65.56-.47-.37 1.12-1.12 2.14-1.02 2.98-.09.47-.65-.09-.65.47 0 .37.28-.28.47.09-.47.47-.28 1.12-.93 1.12 0 1.58-.93 2.98-1.12 4.29-.09-.09-.09-.19-.09-.47-.28.84-.28 1.68-.93 2.61 0 .09 0 .19-.09.19 0-.09 0-.19.09-.19-.09-.28.09-.37.09-.56-.65.56 0 1.4-.65 1.96 0-.19-.09-.19-.19-.28 0 .47-.28 1.02-.47 1.4.19 0 .19.28 0 .37 0-.19 0-.19-.09-.37-.28 1.12-.93 1.4-.93 2.61-.19-.09-.28 0-.47.09 0 .47 0 .47-.19.56-.56 1.49-1.58 3.07-2.89 3.91-1.77-3.82-2.14-7.73-2.52-12.21-.56-5.78-.65-12.39-.09-18.54-.09-.56-.09-.84.09-1.3-.09-.47-.09-.65 0-1.02-.09-1.21 0-2.89.37-4.1.37-6.52 2.14-12.11 2.05-18.73-.19-.47.09-1.12-.28-1.77.37-1.02-.47-2.24.47-2.89 0-.37-.19-.37-.19-.84-1.86-.56-4.19.84-5.78 1.58.19.37.56-.09.56.37 0 .19-.09.47 0 .65 0 0 .19-.19.19 0 0 0 0 .09-.19 0-.37.19.28.37 0 .56-.65 1.12-.09 2.33-.75 3.45.34 1.09-.75 2.72-.35 3.98.04-.04.17.01.17-.07 0 .07-.11.09-.16.09.04.13.08.26.16.37-.93.65 0 1.49-.84 2.24.28.75-.19 1.21-.09 2.05 0 .19.37.09.37.19-.28.19-.19.47-.28.75h-.19c0 .28-.09.28-.28.28 0 .56 0 .65.37 1.12-.09 0-.09.09-.19.09-.19 0 0-.19-.28-.19.28.75-.19 1.3.09 1.86-.19 0-.28 0-.28.09.09.09.19.09.19.28-.19.19-.09.09-.47-.19.28.19-.09.47.28.47.19 0 .19.65.19.93-.19 0-.47.09-.47.28.28.28.37-.09.47.19-.19.37-.47.56-.56.84.09.09.37-.19.47 0-.09.28-.09.65-.37.84-.09 0-.09-.47-.28-.37-.09.47.28.37.19.56-.47.37-.19 1.02.09 1.3h-.19c0 .19.19.28.19.47-.56 0-.65 1.12-.09 1.12-.09.28-.28.09-.47.28 0 .28.19.56.28.75 0-.09.09-.09.19 0h-.19c0 .09.09.09.09.19-.09 0-.37-.19-.37 0 0 .47.28.28.37.37 0 .19.09.65-.19.65 0-.19 0-.56-.28-.56.09.47.09.93.37 1.02.09.37-.65.65-.28.93 0-.19.19-.19.28-.19-.28.75.19 1.4-.28 1.68-.09-.09-.19 0-.19-.09 0-.28.19-.19.19-.47-.65.75-.19 1.86-.28 2.7.19 0 .19 0 .28.09-.28 0 0 .28-.19.47.09 0 .19 0 .19.09-.19.19.28.56-.09.37 0 .19.28.47.09.56-.09-.09-.09-.09-.19-.09-.19 2.7-.47 4.94.09 6.89-.28.28-.28.93-.09 1.4-.19 1.4.09 2.8.09 5.03.09.09.09.19.28.28-.19 1.4 0 3.07.28 4.19.37 2.8 1.02 4.66 1.68 7.45.09 0 .28 0 .28.09.37 1.77 1.77 2.8 3.35 3.45.19.93 1.3.93 1.86 1.68.19-.19.56-.09.65-.19.84.19 1.21.56 2.33.47 3.91-.47 6.06-4.19 7.83-6.71 5.22-10.53 8.94-22.27 12.86-33.45.56-1.49 1.49-3.17 1.58-4.57.52-1.11.89-2.14 1.17-3.35zm.47-18.45c.19 0 .19.56-.09.47 0-.19.09-.37.09-.47zm-.37 1.03c.37-.19.19.28.19.37-.29 0-.19-.28-.19-.37zm-.19.93c.09.19 0 .75 0 .75-.19-.01-.09-.56 0-.75zm-.46-1.12c0-.09.27 0 0 0 0 .19-.1 0 0 0zm0 2.14c.47.09-.09.28 0 .47-.19-.09 0-.37 0-.47zm-.19-2.33c.09.09 0 .19 0 .37-.28-.18 0-.27 0-.37zm-31.96 18.55v-.09c.37-.01-.46.55 0 .09zm-.84 5.31v-.28h.37v.28h-.37zm.38 27.2c-.37.28-.37-.09-.37-.19.09.01.37.1.37.19zm-.56-24.13v-.28h.19v.28h-.19zm.18 2.8c.37-.09.09.47 0 .47-.09-.01 0-.38 0-.47zm0 1.95c0 .09-.09.09-.19.09.01-.09.1-.09.19-.09zm-.46 1.49h-.09c.09.37-.28 0 0 0 0-.09 0-.19.09-.19v.19zm0-1.3s0 .09.19.09c-.01.28-.29 0-.19-.09zm-.1 4h.09v.28h-.09v-.28zm0 .56c.28.28.09.37.09.84-.27-.28-.09-.46-.09-.84zm0 1.12c.09.56.09 1.12.09 1.49-.18-.56-.27-.93-.09-1.49zm0 1.68c.37 0 0 .84.09.93-.27.19-.09-.56-.09-.93zm.1 1.77c-.19 0-.09-.37-.09-.65.27.09.09.46.09.65zm-.1.19c.09 0 .09.19.09.37-.18.18-.09-.28-.09-.37zm0 1.11c.28-.19.37.56 0 .37.28-.09-.09-.18 0-.37zm.1 4.76c.19-1.3-.09-2.42 0-3.82.18 1.11.37 2.7 0 3.82zm.46 2.6c-.28-.37-.19-1.58-.28-2.33.28.38.19 1.4.28 2.33zm-.09.1c.19 0 .09.37.09.47-.09-.01-.09-.29-.09-.47zm.47 2.33c-.47-.09 0-.28-.37-.65.46.09.37.55.37.65zm-.28.37c.37-.37.47.19.47.47-.47-.01-.1-.47-.47-.47zm.37.56c.09.28.09.84.19 1.12-.28-.1-.28-.84-.19-1.12zm.37-30.65c-.37-.09-.19-.19-.19-.47.28 0 .19.37.19.47zm.09-1.12c-.09 0-.09-.19-.09-.37.28-.01 0 .27.09.37zm.1 35.59c.19 0 .19.19.19.37-.19 0-.19-.28-.19-.37zm.09-41.74c.09.09.28.09.28.37-.28 0-.28-.28-.28-.37zm.37-.65c-.09 0-.09-.28-.09-.37.09 0 .09.09.09.28v.09zm.28-2.89c.28.09 0 .09.19.37-.37-.09-.19-.09-.19-.37zm.47-2.98v-.19c0 .09.09 0 .09 0 .19-.09.19.37-.09.19zm.28-1.49c0-.19.19-.19.28-.19 0 .19-.09 0-.28.19zm.74-4.2c0-.06.04-.04.07-.05-.02.04-.07.05-.07.05zm6.81 57.49c0-.09.09-.09.28-.09 0 .09-.19.09-.28.09zm4.37-8.76s.19 0 .19-.09c.28.09-.09.37-.19.09zm1.03-1.49c-.47-.28-.09-.84 0-1.12.19.19-.09.65 0 1.12zm.09-1.4v-.28c.19-.18.19.56 0 .28zm.65-.46c0-.09.09-.09.28-.09 0 .09-.18-.01-.28.09zm1.22-4.66h.19v.09h-.19v-.09zm-.1 1.02c-.09.28-.28-.28-.09-.28 0-.09 0-.28.09-.37.09 0 .09.56-.09.37 0 .19 0 .28.09.28zm.1.84c0-.19-.09-.56 0-.37h.28c-.28 0 0 .37-.28.37zm.46-2.61h-.19v-.19h.19v.19zm.09-.56h-.09v-.19h.09v.19zm0-.37c0-.37 0-.47.28-.47 0-.09 0-.28.09-.19 0 .09 0 .09-.09.19 0 .28.1.47-.28.47zm13.89-39.13v-.37c-.47.19.09-.37 0 0 .09 0 .28.19.28.19 0 .09 0 .09-.19.19h-.09zm-.75 3.17h.09V15h-.09v-.09zm-.84.74c.56.19-.09.56 0 .75-.37-.19 0-.56 0-.75zm-.18.75h.09v.28h-.09v-.28zm-.47 1.3c.09 0 .09 0 .09.09l-.09.19c-.09 0 0-.18 0-.28zm-.46 1.4c.19 0 .19.47-.09.37-.1-.28-.01-.28.09-.37zm-.19.56c.19.09-.09.65-.19.84-.28-.38.19-.56.19-.84zm-.19 1.02c.09 0 0 .37-.28.37 0-.18.1-.27.28-.37zm-.28.94c.09 0 .09-.19.09-.19.19-.09.19.37-.09.28v-.09zm-.28 1.49c-.19 0-.19-.19-.19-.37.29-.29.19.27.19.37zm-.84 1.95c.09.19-.09.19-.09.28-.18 0-.09-.28.09-.28zm-.65 1.59c.19-.19.09.09.19.09 0 .19-.28 0-.19-.09zm.19.56c0 .19-.09.19-.09.19 0-.19.09-.01.09-.19zm-.56.55c.19.19 0 .28-.19.28.1-.09 0-.28.19-.28zm-.56 0c.37 0 .19.37-.09.37-.09-.27.09-.27.09-.37zm.19 1.12c0 .09-.19.09-.19.19-.18 0 0-.37.19-.19zm-.28 1.68c-.09.19-.09 0-.19 0 0-.19.19 0 .19 0zm-.56.65h.28v.19h-.28v-.19zm-.19.56s0-.09-.09-.09c0-.28.37 0 .09.09zm-.46 1.03c.09.09.09.19 0 .28-.1 0-.1-.19 0-.28zm-.47.93c.37 0 0 .28 0 .47-.09-.1 0-.19 0-.47zm-.74 2.23c.19.37-.28.84-.28 1.12-.19-.18.18-.84.28-1.12zm-.84 1.31c.37 0 0 .28 0 .37-.28 0 .18-.19 0-.37zm.18 1.3c.19 0-.18.56 0 0-.46.1-.18-.18 0 0zm-.74 1.31c0-.1.18 0 0 0 0 .18-.1.18 0 0zm-.65 1.02v.37c.47-.09.28-.84.56-.84-.09.56-.09 1.3-.65 1.49 0-.19.37-.37.09-.65-.19.19-.19-.46 0-.37zm-.1 1.21c.09 0 0 .47-.19.37.01-.09.1-.18.19-.37zm-.37.56h.28v.28h-.28v-.28zm-.37.47c.19.37-.37.93-.37 1.49-.1-.47.18-1.12.37-1.49zm-.28 1.58c.37.09-.09.65-.09.93-.38-.28.18-.46.09-.93zm-.28 1.03c.28.09 0 .56 0 .75-.37-.1 0-.57 0-.75zm.09.83c0 .19-.09 0-.09 0 0-.09.09-.09.09 0zm-1.49 3.36c-.19 0 0-.28 0-.28.28 0 0 .28 0 .28zm.28-.65c-.37-.19.19-.47.09-1.02.47 0 0 .75.28.93-.28-.01-.37-.19-.37.09zm.37.84c-.28-.37.28-.84.28-1.3.28.27-.28.92-.28 1.3zm.93-2.61h-.09c0 .37 0 .65-.37.75.09-.28.28-.56.37-.75 0-.47.19-.56.28-.93.28.27-.19.74-.19.93zm.66-3.73h-.09v.56c-.47 0-.19-.37 0-.56 0-.28.09-.56.09-.75.37.1 0 .56 0 .75zm.37.93c-.37 0-.09-.37 0-.47.19.1-.09.29 0 .47zm.47-1.58c.19.09-.28.65-.28.84-.19-.19 0-.75.28-.84zm.18 1.02c.09.38-.46 0 0 0 0-.65.37-.09 0 0zm.19-1.86h-.09c0 .09 0 .19-.09.19v.37c-.19 0 0-.37 0-.37.09-.09 0-.19.09-.19 0-.37.28-.56.37-1.02.18.27-.28.74-.28 1.02zm.84-2.24h-.09c0 .37-.28.75-.37 1.12-.09-.28.09-1.02.37-1.12-.19-.28.19-.56.28-.93.09.19-.1.65-.19.93zm1.11-3.16c-.28.47-.28.93-.56 1.12 0 .19 0 .47-.09.56h-.19c0 .09 0 .37-.09.37v-.28s.09 0 .09-.09c0-.19.28-.19.19-.56h.09c0-.47.19-.65.28-1.12h.28c-.27-.47.19 0 0 0zm.19-.66c-.19-.09.09-.37 0-.56.47 0 0 .28 0 .56zm.47-1.21c0 .19-.19.19-.09.37-.28 0-.09-.37 0-.37h.09c-.09-.19 0-.84.19-.84-.01.38-.1.56-.19.84zm.18-2.51c-.19-.09 0-.28 0-.65.38.18.19.55 0 .65zm1.31-1.96c0 .28-.19.56-.28.75-.19 1.12-.65 2.05-.84 2.79 0-.93.56-2.05.84-2.79-.09-.47.09-.47.09-.75h.19c0-.19.18 0 0 0zm.18-.28c0 .09-.18 0 0 0 0-.19-.19-.19 0-.28.19 0 .19.28 0 .28zm.75-2.24c0 .09 0 .28-.09.37 0 .19-.09.47-.19.56.09.09 0 .47-.28.56.19-.28.19-.47.28-.56-.09-.37.09-.37.09-.56h.09c.01-.09-.09-.46.1-.37.37-1.02.19-1.68.84-2.14-.38.56-.38 1.59-.84 2.14zm1.02-1.21c-.19 0 0-.37-.09-.47.19.01.19.38.09.47zm-.09-1.21c0 .47-.37 0 0 0 0-.93.47-1.21.65-1.96.28.56-.46 1.4-.65 1.96zm.75-2.05c-.09-.19.19-.28.19-.56.18.1.09.66-.19.56zm1.42-2.46c.03-.04.07-.05.07-.05 0 .06-.04.04-.07.05zm.44-2.29c-.28.65-.47 1.49-.84 2.05-.09.75-.28 1.02-.56 1.58 0 .28 0 .37-.09.47-.19 0 0-.47 0-.47h.09c0-.65.37-1.02.47-1.58h.09c.28-.75.37-1.68.84-2.05 0-.37 0-.75.19-.75 0 .38-.1.47-.19.75zm1.3-2.05c-.09-.09 0-.19 0-.37.1.18 0 .28 0 .37zm-.55 0c.09.19-.09.19-.09.47-.09.19 0 .56-.47.56 0-.28.19-.47.37-.56h.09c-.09-.28 0-.37 0-.47h.1c.09-.65.47-2.05.93-2.61-.38.84-.47 1.87-.93 2.61zm.74-2.7c.19-.09.19-.28.28-.47.19 0 .09.56-.28.47z"/><path d="M337.27 25.53c0 .19.09.28.28.28-.09-.09-.09-.19-.09-.28h-.19zm-4.38 11.74c-.09 0-.09.09-.09.19h.09v-.19zm2.89-8.01c0 .19-.19.84.09.84-.09-.38.28-.66-.09-.84zm.37-.19v-.19c-.47 0-.19.38 0 .19zm.84-2.8c0 .09-.09.47.09.47 0-.09 0-.37.19-.37.09-.19-.19-.1-.28-.1zm17.88 18.92c.19.28-.09.28-.09.56.37.09.56-.66.09-.56zm.37-.28c.37-.19.19-.75.37-1.12-.27.19-.46.93-.37 1.12zm-1.77 4.19c.09-.37.65-.84.28-1.21 0 .37-.65.84-.28 1.21zm-3.91 6.71c-.09 0-.09.09-.09.19.09 0 .09-.1.09-.19zm2.8-4.85c.28 0 .19-.28.28-.56-.28 0-.19.47-.28.56zm.65-1.02c-.09-.28.37-.19.19-.56-.19 0-.56.47-.19.56zm-3.36 5.78c-.09 0-.09 0-.09.09.09 0 .09 0 .09-.09zm5.13-18.82c0-.09 0-.19-.09-.19 0 .09 0 .19.09.19zm-.65 10.8c0-.56.93-1.4.47-1.77-.01.65-.66 1.21-.47 1.77zm-11.84 4.48v.19c.1-.01.1-.19 0-.19z"/><path d="M362.33 40.62c-1.4-3.73-4.29-6.06-8.29-6.89-1.21.28-2.7.75-4.38.84.09.19-.56 1.3-.75.75-.28.28-.84.56-1.3.28-.09.93-.84 1.68-1.4 2.42-1.58 2.33-2.52 4.94-3.35 7.73-.47 2.42-.93 4.66-1.12 6.8 0 .19.19.19.09.56-.93 5.03 2.14 8.2 5.12 10.16.93.09 1.77.56 3.45.37 3.82-.65 6.06-4.38 7.64-7.55 1.58-2.98 2.98-6.15 4.29-8.94-.37-.93.65-1.96.56-3.07-.28-.94-.47-2.06-.56-3.46zm-12.49-5.59c.28.09 0 .19 0 .28-.19-.09 0-.18 0-.28zm-7.92 17.52c.47.65.09 1.68.09 2.61-.18-.84.19-1.59-.09-2.61zm.09 3.82c.19 0 .28.09.28.28-.28.18-.28-.1-.28-.28zm.28-3.73v-.28c-.47.19-.09-1.02-.09-1.4.56.09-.28 1.02.09 1.21.19-.37.47.75 0 .47zm-.09-1.86c0-.28.28-.28.37-.09 0 .18-.28.18-.37.09zm3.36-9.6c-.28-.19 0-.28 0-.37.18.09 0 .18 0 .37zm1.3-3.54h-.09c-.28.56-.56 1.02-.93 1.49-.75 1.49-1.3 3.17-1.96 4.57-.19 1.12-.56 1.96-.75 2.89h-.09c-.09 1.4-.56 2.24-.56 3.73-.28-1.02.28-2.61.56-3.73 0-1.21.56-1.77.65-2.89h.19c.37-1.77 1.12-3.26 1.86-4.57h.09c.09-.65.56-.93.84-1.49h.09c0-.09 0-.19.09-.28.2 0 .1.19.01.28zm.47-.56c-.37-.19.19-.28.19-.56.36.28-.19.38-.19.56zm.46-.65v-.19c.09 0 .09 0 .09-.09.19 0 .1.56-.09.28zm3.17 18.45c0 .09 0 .28-.09.28 0 .37-.47 0 0 0 0-.19 0-.28.09-.28.19-.56.47-.84.75-1.3.09.27-.47 1.02-.75 1.3zm1.02-1.87c0-.09.09-.09.28-.09 0 .09-.18.09-.28.09zm.94-1.49c-.28.47-.28.93-.65 1.12.09-.46.27-.84.65-1.12 0-.09.09-.09 0 0zm.27-.74c0 .09-.09.19-.09.28-.19 0-.09-.19 0-.28h.09c0-.47.37-.65.47-1.12.28.19-.19.84-.47 1.12zm.84-1.49c-.37-.09.19-.28.09-.65.47-.01-.09.46-.09.65zm.47-.84c-.37-.19.09-.37.09-.56.28.09-.09.37-.09.56zm.19-.93c.19-.47.47-1.02.65-1.49.09.37-.19 1.3-.65 1.49zm.93-1.59c-.28-.56.37-1.12.37-1.77.37.65-.28 1.21-.37 1.77zm.37-2.23c-.93 3.35-2.98 6.8-4.84 9.88v.56c-.93.28-.93 1.58-1.68 1.96V56c-.37.93-.84 1.49-1.49 1.68 0-6.8 1.02-12.48 2.89-17.42.09 0 .09.19.09.37.56-.47.56-2.24 1.58-2.14.28-.28 0-.09 0-.47.37.19.47-.09.84.09.09-.56.19-1.12.75-1.21 0-.47-.47-.47-.56-.93.37-.19.37.28.93 0 1.12 1.12 1.49 2.42 1.96 3.91-.1 1.49 0 2.51-.47 3.82zm.56-1.4c.28 0 .28.19.28.37-.37.19-.28-.18-.28-.37zm.46-1.68h-.19v-.28h.19v.28zm-.18-.93c.09 0 .09.19.19.19-.01.37-.28 0-.19-.19z"/><path d="M355.9 41.83c.56-1.77 0-3.73-1.02-4.85.74 1.22 1.39 2.9 1.02 4.85zm-.28 1.96h.09c.09-.65.47-1.3.19-1.96h-.09c-.01.75-.19 1.21-.19 1.96zm-.75-6.8c0-.09 0-.09-.09-.09 0 .09 0 .09.09.09zm13.23-14.44c-.47 2.05-2.89 6.15.09 7.17.37.09.09-.19.37-.09.28.37 1.12-.09 1.3-.37.09 0 .28.19.47.28 0-.28.09-.28 0-.56 1.49-.84 2.14-2.52 2.33-4.19-.27-1.96-2.42-3.08-4.56-2.24zm2.79 14.35c-2.24-.56-3.54.19-5.59.19-.09.37-.09.84.09 1.3-.75 6.43-2.79 12.67-1.77 19.66 0 .65.37 1.02.19 1.68.84 1.86 1.96 3.54 3.82 4.47.56-.37 1.4.09 1.68-.47.09 0 .09.09.28.09-.37-.56.09-.75.37-1.02-.09-.28-.56-1.21-.09-1.49-.47-1.02-.47-2.24-.47-3.35.28-3.26.37-6.61 1.4-10.06.28-3.07 1.12-5.59 1.4-8.39 0-.75-.09-1.12-.28-1.68-.37-.38-.65-.56-1.03-.93zm-5.58 4.93c-.37 0 0-.56 0-.93.37.28-.1.56 0 .93zm22.35-2.51c.09.28 0 .37.09.47.1-.1.1-.29-.09-.47z"/><path d="M421.76 43.98c-.47.56.28-.75-.28-.56-3.63 4.19-7.08 8.48-10.81 12.39-1.4 1.02-2.61 2.24-4.47 2.89-.65-.65-.93-1.77-1.3-2.8.37-.47.09-.75 0-1.3 0-1.4.37-2.61.37-4.19.28-.65 0-1.86.56-2.33 2.89.75 5.22-1.02 6.89-2.24 2.8-3.35 5.96-6.62 7.08-11.55.28-1.96-.75-4.29-2.7-4.84-1.68-.19-3.45.19-4.85.37-.19-.19-.65 0-.75-.19-1.49.56-2.14 2.33-3.45 2.7-2.02 2.42-4.02 5.62-5.56 9.2-.17.19-.32.4-.49.59-2.98 4.66-6.43 8.57-9.5 12.67-3.63 3.82-6.52 8.29-12.11 10.06-2.33-1.58-2.42-5.78-2.33-9.13.28-6.89 2.42-13.04 5.13-17.24.09-.47-.19.09-.09-.37 1.4-2.52 2.89-5.22 4.94-7.27.28-.28.56-.28.93-.47.37 3.07-.93 6.61-.84 10.06.28-.09.47-.28 1.03-.19.37-.56 1.21-.93 1.86-.93 1.77-.93 2.33-4.57 2.42-7.55.19-.84-.09-1.21-.19-1.77-.75-1.86-3.17-2.05-5.59-1.96-1.12.47-2.7.47-3.91.93-.09.09.37.28 0 .28-.56.19-.65 1.02-1.21.75-.09.19-.09.56-.28.65-3.63 3.82-6.34 9.41-7.92 14.72 0 .47-.09.47.09.65-.28.37-.28.93-.65 1.4-.56 3.45-1.12 7.73-.84 11.74.28 2.7 1.49 4.47 3.08 5.78 1.68 1.4 3.82 2.8 6.99 2.61 3.45-.09 6.34-2.24 8.67-4.29 2.7-2.24 4.75-5.03 6.62-7.17 0-.19-.19-.28 0-.56.47-.57.93-1.17 1.38-1.77.08 1.99.73 3.79 2.25 5.03.37.09.65.47 1.12.56.09.28.28.47.56.84 1.49.75 3.45 1.96 5.68 1.68.56-.19 1.21-.56 1.86-.47 2.61-1.4 4.47-3.45 6.24-5.59.56-1.4 1.4-2.33 2.14-3.63.09-.75.84-1.86 1.12-2.8-.19-.19 0 .19-.28.19.56-.93.75-1.68 1.21-2.61-.09 0-.28 0-.28-.09.83-.83.18-1.95.46-2.88zm-37.64-14.45c-.19.19-.37.19-.47.09.1-.09.2.01.47-.09zm-1.39 1.22c0-.1.28-.1 0 0 0 .09-.1 0 0 0zm-1.31 1.58c-.09-.28 0-.37.19-.37 0 .28-.1.37-.19.37 0 .47-.37 0 0 0zm-8.1 23.57c-.19 0-.09-.47-.09-.56.09.1.27.38.09.56zm35.31-23.29c-.28 0-.28 0-.28-.19 0 .1.37 0 .28.19zm-.56.37c.09 0 .19.09.19.19-.1 0-.19-.09-.19-.19-.19 0 0-.18 0 0zm-.38 0c.19-.19.19.37 0 .19v-.19zm-.18.19c.19 0 .19.28.09.37-.28 0-.09-.19-.09-.37zm0 8.38c1.3-4.47 3.91-7.64 7.08-10.25.93-.47 1.3.37 1.58 1.02.09.75-.09 1.3-.09 2.24-.65 1.68-1.68 2.89-2.24 4.47-2.61 2.52-4.1 6.15-7.83 7.45.56-1.58.65-3.26 1.58-4.47.01-.18-.46-.27-.08-.46zm-1.12-6.15c-.19 0-.19-.19-.19-.28.38-.09.28.19.19.28zm-1.12 1.59h.09c0-.19 0-.47.09-.56h.09c.09-.19.09-.56.47-.56-.09.28-.09.47-.47.56 0 .28-.09.37-.19.56v.37c-.27 0-.27-.28-.08-.37zm-.37.37c.19 0 .19.56 0 .47-.09-.28.09-.28 0-.47zm-.09 1.03c-.37 0-.37-.28-.37-.47.27 0 .37.09.37.47zm-.56 0c.28.19-.09.37-.28.56-.19-.19.28-.38.28-.56zm.09.65c-.04.08-.07.15-.11.23-.24.35-.49.69-.74 1.03.12-.36.17-.77.29-1.07.19-.1.19-.1.56-.19zm-1.12 1.4c.09 0 .13.02.14.04-.13.18-.28.35-.42.53.12-.2.24-.41.28-.57z"/></svg>