<svg xmlns="http://www.w3.org/2000/svg" viewBox="0 0 99.52 449.86"><switch><g><path d="M99.03 449.86h-.01a.455.455 0 0 1-.44-.46s.04-1.59.04-4.53c0-1.65-.01-3.74-.05-6.21 0-.25.19-.45.44-.45h.01c.24 0 .44.2.45.44.04 2.48.05 4.56.05 6.22 0 2.96-.04 4.55-.04 4.55-.01.24-.2.44-.45.44zm-.08-14.34c-.24 0-.44-.19-.45-.44-.08-3.49-.2-7.1-.36-10.74-.01-.25.18-.46.43-.47.28 0 .46.18.47.43.16 3.64.28 7.26.36 10.75.01.25-.19.45-.44.46 0 .01-.01.01-.01.01zm-.53-14.32c-.24 0-.43-.19-.45-.42-.18-3.54-.39-7.15-.63-10.72-.02-.25.17-.46.42-.48.24-.02.46.17.48.42.24 3.58.46 7.2.63 10.74.01.25-.18.46-.42.47-.02-.01-.02-.01-.03-.01zm-.89-14.3c-.23 0-.43-.18-.45-.41-.26-3.56-.56-7.16-.88-10.7-.02-.25.16-.46.4-.49.25-.02.46.16.49.4.32 3.55.62 7.15.89 10.72.02.25-.17.46-.41.48h-.04zm-1.22-14.28c-.23 0-.42-.17-.44-.4-.35-3.56-.73-7.15-1.13-10.68a.45.45 0 0 1 .39-.5c.23-.03.47.15.5.39.41 3.53.79 7.13 1.14 10.69.02.25-.16.46-.4.49-.03.01-.05.01-.06.01zm-1.56-14.24c-.22 0-.42-.17-.44-.39-.43-3.57-.9-7.16-1.39-10.65-.03-.24.14-.47.38-.5.24-.04.47.14.5.38.49 3.5.96 7.08 1.39 10.66a.45.45 0 0 1-.39.5h-.05zm-1.89-14.2c-.22 0-.41-.16-.44-.38-.51-3.52-1.07-7.09-1.65-10.61a.45.45 0 0 1 .37-.51c.24-.04.47.13.51.37.58 3.52 1.13 7.1 1.65 10.63.04.24-.13.47-.38.51-.02-.01-.04-.01-.06-.01zm-2.24-14.15c-.21 0-.4-.15-.44-.37-.61-3.55-1.26-7.11-1.92-10.56-.05-.24.11-.48.36-.52.24-.05.48.11.52.35.66 3.46 1.31 7.02 1.92 10.58.04.24-.12.47-.36.52h-.08zm-2.61-14.08a.45.45 0 0 1-.44-.36c-.7-3.52-1.44-7.06-2.2-10.5-.05-.24.1-.48.34-.53.24-.06.48.1.53.34.76 3.45 1.51 6.99 2.21 10.52.05.24-.11.48-.35.53h-.09zm-2.99-14.01c-.2 0-.39-.14-.44-.35-.8-3.51-1.65-7.02-2.51-10.44-.06-.24.08-.48.32-.54.24-.06.48.08.54.32.86 3.42 1.71 6.94 2.51 10.45.06.24-.1.48-.34.54-.01.02-.05.02-.08.02zm-3.4-13.91c-.2 0-.38-.13-.43-.33-.91-3.48-1.86-6.96-2.83-10.35-.07-.24.07-.48.31-.55.24-.07.48.07.55.31.97 3.39 1.93 6.88 2.83 10.37.06.24-.08.48-.32.55h-.11zm-3.83-13.8a.46.46 0 0 1-.43-.32c-1.02-3.45-2.09-6.89-3.18-10.25-.08-.24.05-.49.29-.56.24-.08.49.05.56.29 1.09 3.36 2.16 6.82 3.18 10.27.07.24-.06.49-.3.56-.04.01-.08.01-.12.01zm-4.3-13.64c-.19 0-.36-.12-.42-.31-1.14-3.41-2.33-6.81-3.54-10.11-.08-.23.03-.49.27-.57.23-.08.49.03.57.27 1.21 3.3 2.41 6.71 3.55 10.13.08.23-.05.49-.28.57-.05.01-.1.02-.15.02zm-21.64-6.33c-.81 0-1.63-.07-2.45-.21a.45.45 0 0 1-.37-.51.45.45 0 0 1 .51-.37c3.42.57 6.75-.13 9.88-2.08.21-.13.49-.07.62.14s.07.49-.14.62c-2.57 1.6-5.27 2.41-8.05 2.41zm-5.79-1.15c-.05 0-.11-.01-.16-.03-2.94-1.15-5.98-3.15-9.04-5.96a.454.454 0 0 1-.03-.63c.17-.18.45-.19.63-.03 2.97 2.73 5.91 4.67 8.75 5.78.23.09.34.35.25.58-.05.18-.22.29-.4.29zm16.44-3.33c-.12 0-.25-.05-.33-.15a.445.445 0 0 1 .04-.63c1.64-1.46 3.25-3.3 4.8-5.49-.87-2.24-1.77-4.47-2.67-6.65-.09-.23.01-.49.24-.58.23-.09.49.01.58.24.83 2 1.65 4.05 2.46 6.1.39-.58.78-1.19 1.17-1.82.13-.21.4-.28.61-.15.21.13.28.4.15.61-.5.83-1.02 1.62-1.54 2.37.37.96.74 1.92 1.1 2.88.09.23-.03.49-.26.58a.451.451 0 0 1-.58-.26c-.29-.77-.59-1.55-.89-2.32-1.49 2.04-3.02 3.77-4.6 5.17-.07.07-.17.1-.28.1zm-27.88-5.06a.47.47 0 0 1-.33-.14c-2.24-2.38-4.52-5.22-6.76-8.43-.14-.2-.09-.48.11-.62s.48-.09.62.11c2.22 3.17 4.46 5.97 6.68 8.32.17.18.16.46-.02.63-.08.09-.19.13-.3.13zm36.32-6.35c-.07 0-.14-.02-.21-.05a.447.447 0 0 1-.18-.61c1.51-2.84 2.99-6.11 4.39-9.71a.46.46 0 0 1 .58-.26c.23.09.34.35.26.58-1.41 3.63-2.9 6.94-4.43 9.81-.1.16-.25.24-.41.24zm-7.58-4.53c-.17 0-.34-.1-.41-.27-1.41-3.31-2.89-6.61-4.38-9.79-.1-.22-.01-.49.22-.59.22-.1.49-.01.59.22 1.5 3.19 2.97 6.5 4.39 9.82.1.23-.01.49-.24.59a.88.88 0 0 1-.17.02zm-37.45-.47c-.15 0-.29-.07-.38-.2a129.26 129.26 0 0 1-5.46-9.3.447.447 0 0 1 .18-.61c.22-.12.49-.04.61.18 1.77 3.3 3.6 6.41 5.42 9.23.13.21.08.48-.13.62-.08.06-.16.08-.24.08zm50.68-8.11c-.05 0-.1-.01-.15-.03a.45.45 0 0 1-.27-.57c1.11-3.13 2.2-6.56 3.23-10.19.07-.24.31-.38.55-.31.24.07.38.31.31.55-1.04 3.65-2.13 7.09-3.25 10.24-.06.2-.24.31-.42.31zm-57.78-4.33a.45.45 0 0 1-.4-.25 188.4 188.4 0 0 1-4.58-9.75c-.1-.23.01-.49.23-.59.22-.1.49 0 .59.23 1.46 3.36 2.99 6.62 4.56 9.7.11.22.02.49-.2.6-.07.05-.13.06-.2.06zm38.63-.13c-.17 0-.33-.09-.4-.25-1.57-3.24-3.2-6.46-4.85-9.57a.436.436 0 0 1 .19-.6c.22-.12.49-.03.6.19 1.65 3.12 3.29 6.35 4.86 9.6.11.22.01.49-.21.6-.06.01-.12.03-.19.03zm23.34-9.2c-.04 0-.08 0-.12-.02a.451.451 0 0 1-.32-.55c.87-3.27 1.72-6.76 2.52-10.4a.446.446 0 0 1 .87.19c-.81 3.65-1.66 7.16-2.53 10.44-.04.21-.22.34-.42.34zm-29.89-3.54c-.16 0-.31-.08-.39-.23-.76-1.39-1.54-2.78-2.33-4.16-1.01-1.77-2-3.49-2.98-5.16a.452.452 0 0 1 .16-.61c.21-.13.49-.05.61.16.98 1.67 1.97 3.39 2.98 5.16.79 1.38 1.57 2.78 2.34 4.17.12.22.04.49-.18.61a.42.42 0 0 1-.21.06zm-38.05-.16a.43.43 0 0 1-.41-.28c-1.36-3.29-2.66-6.67-3.86-10.06a.45.45 0 0 1 .27-.57c.23-.08.49.04.57.27 1.19 3.38 2.49 6.75 3.84 10.02.09.23-.01.49-.24.58a.38.38 0 0 1-.17.04zm71.22-10.22c-.03 0-.06 0-.09-.01a.453.453 0 0 1-.35-.53c.7-3.34 1.39-6.88 2.04-10.52.04-.24.28-.4.52-.36.24.04.4.28.36.52-.65 3.64-1.34 7.19-2.04 10.54-.05.22-.23.36-.44.36zm-40.29-2.03a.47.47 0 0 1-.39-.22c-1.89-3.2-3.76-6.29-5.54-9.18a.454.454 0 0 1 .15-.62c.21-.13.49-.07.62.15 1.79 2.9 3.66 5.99 5.55 9.19.13.21.05.49-.16.61-.08.05-.16.07-.23.07zm-35.95-1.18c-.19 0-.36-.12-.42-.31-1.16-3.47-2.22-6.93-3.14-10.31-.07-.24.07-.48.31-.55.24-.07.48.07.55.31.92 3.36 1.97 6.81 3.13 10.26.08.23-.05.49-.28.57-.05.02-.1.03-.15.03zm78.9-10.84c-.03 0-.05 0-.08-.01a.454.454 0 0 1-.37-.52c.58-3.39 1.15-6.95 1.68-10.58a.45.45 0 0 1 .51-.38c.24.04.41.26.38.51-.54 3.64-1.1 7.2-1.68 10.6-.04.23-.23.38-.44.38zm-50.4-.2c-.15 0-.29-.07-.38-.21-2.01-3.19-3.97-6.21-5.84-8.99a.448.448 0 0 1 .12-.62c.21-.14.48-.08.62.12 1.88 2.78 3.85 5.81 5.86 9.01.13.21.07.49-.14.62-.07.04-.16.07-.24.07zm-32.54-2.71c-.2 0-.38-.14-.43-.34-.94-3.72-1.69-7.27-2.24-10.55-.04-.24.12-.47.37-.52.25-.04.47.12.52.37.55 3.26 1.3 6.78 2.23 10.48.06.24-.08.48-.32.54-.06.02-.09.02-.13.02zm24.67-9.24a.47.47 0 0 1-.37-.19c-2.21-3.19-4.34-6.1-6.32-8.64a.448.448 0 0 1 .08-.63c.19-.15.48-.12.63.08 1.99 2.55 4.13 5.47 6.35 8.68.14.2.09.48-.11.62-.08.05-.17.08-.26.08zm60.47-1.98h-.06a.439.439 0 0 1-.38-.51c.49-3.45.96-7.02 1.4-10.63.03-.25.25-.43.5-.39.25.03.42.25.39.5-.45 3.61-.92 7.19-1.41 10.64-.03.22-.23.39-.44.39zm-87.91-2.84c-.22 0-.41-.16-.44-.39-.38-2.9-.57-5.53-.57-7.81 0-1.07.04-2.08.13-3.01.02-.25.24-.43.49-.4.25.02.43.24.4.49-.08.9-.12 1.88-.12 2.92 0 2.24.19 4.83.56 7.69.03.24-.14.47-.39.5-.02.01-.04.01-.06.01zm18.86-6.63c-.13 0-.26-.06-.34-.16-2.7-3.25-5.16-5.85-7.34-7.71a.445.445 0 0 1-.05-.63c.16-.19.44-.21.63-.05 2.21 1.89 4.71 4.52 7.44 7.82.16.19.13.47-.06.63-.07.07-.18.1-.28.1zm70.88-4.72h-.05a.443.443 0 0 1-.39-.5c.41-3.43.8-7.02 1.18-10.66.03-.25.23-.43.49-.4.25.03.42.25.4.49-.38 3.64-.78 7.23-1.18 10.67-.04.23-.23.4-.45.4zm-89.53-2.88c-.04 0-.09-.01-.13-.02a.434.434 0 0 1-.29-.56c1.07-3.45 3.05-4.17 4.53-4.17 1.3 0 2.83.55 4.54 1.62.21.13.27.41.14.62-.13.21-.41.27-.62.14-3.93-2.47-6.54-1.85-7.74 2.06a.45.45 0 0 1-.43.31zm91.07-11.34h-.04a.436.436 0 0 1-.4-.49c.34-3.46.68-7.02 1-10.68.02-.25.23-.42.48-.41.25.02.43.24.41.48-.32 3.66-.65 7.22-1 10.69-.03.23-.22.41-.45.41zm1.3-14.25h-.04a.447.447 0 0 1-.41-.48c.29-3.48.57-7.04.84-10.69a.46.46 0 0 1 .48-.41c.25.02.43.23.41.48-.27 3.65-.55 7.22-.84 10.7-.01.22-.21.4-.44.4zm1.1-14.27h-.03a.456.456 0 0 1-.42-.48c.25-3.49.48-7.06.71-10.7.02-.25.26-.43.47-.42.25.02.43.23.42.47-.22 3.65-.46 7.22-.71 10.71a.44.44 0 0 1-.44.42zm.91-14.28h-.03a.447.447 0 0 1-.42-.47c.21-3.5.4-7.07.59-10.71.01-.25.19-.44.47-.42.25.01.44.22.42.47-.19 3.64-.38 7.22-.59 10.72 0 .23-.2.41-.44.41zm.77-14.28h-.02a.434.434 0 0 1-.42-.47c.17-3.51.33-7.08.48-10.72.01-.25.22-.46.47-.43.25.01.44.22.43.47-.15 3.64-.31 7.22-.49 10.72a.45.45 0 0 1-.45.43zm.63-14.3h-.02a.446.446 0 0 1-.43-.46c.14-3.51.27-7.09.39-10.72.01-.25.22-.46.46-.43.25.01.44.21.43.46-.12 3.64-.25 7.21-.39 10.73 0 .23-.2.42-.44.42zm.51-14.3h-.01a.44.44 0 0 1-.43-.46c.11-3.52.21-7.09.31-10.73.01-.25.21-.45.46-.44.25.01.44.21.44.46-.09 3.63-.2 7.21-.31 10.73-.02.25-.22.44-.46.44zm.39-14.3h-.01a.455.455 0 0 1-.44-.46c.09-3.52.16-7.1.23-10.73 0-.25.22-.41.46-.44.25 0 .44.21.44.46-.07 3.63-.15 7.21-.23 10.73 0 .24-.2.44-.45.44zm.3-14.31c-.25 0-.45-.21-.45-.46.06-3.53.12-7.1.17-10.73 0-.25.19-.47.45-.44.25 0 .44.21.44.45-.05 3.63-.1 7.21-.17 10.73.01.25-.19.45-.44.45zm.21-14.31c-.25 0-.45-.21-.45-.45.04-3.53.08-7.11.1-10.73 0-.25.2-.44.45-.44s.45.2.44.45c-.03 3.63-.06 7.2-.1 10.73.01.24-.19.44-.44.44zm.13-14.31c-.25 0-.45-.2-.45-.45.02-3.53.04-7.11.04-10.73 0-.25.2-.45.45-.45s.45.2.45.45c-.01 3.62-.02 7.2-.04 10.74 0 .24-.2.44-.45.44zm.05-14.31c-.25 0-.45-.2-.45-.45V.45c0-.25.2-.45.45-.45s.45.2.45.45v2.97c0 .25-.2.45-.45.45z" fill="#fff"/></g></switch></svg>