<svg xmlns="http://www.w3.org/2000/svg" viewBox="0 0 190.4 166.98"><switch><g><path d="M132.23 166.98c-.14 0-.28-.06-.36-.19-1.8-2.51-3.47-5.02-4.95-7.48a.44.44 0 0 1 .15-.61.44.44 0 0 1 .61.15c1.47 2.44 3.12 4.94 4.91 7.42.14.2.1.48-.1.62-.07.06-.16.09-.26.09zm-6.72-10.55c-.16 0-.31-.08-.39-.23-1.82-3.29-3.37-6.57-4.6-9.76-.09-.23.03-.49.26-.58.23-.09.49.03.58.26 1.22 3.15 2.75 6.39 4.55 9.64.12.22.04.49-.18.61-.07.04-.14.06-.22.06zm-5.77-13.07a.46.46 0 0 1-.43-.31c-1.08-3.33-1.84-6.63-2.25-9.82-2.37-.31-4.76-.69-7.13-1.12a.452.452 0 0 1-.36-.52c.04-.24.28-.4.52-.36 2.29.42 4.6.79 6.9 1.09.05-.17.2-.29.38-.31.25-.03.47.15.49.39v.03c.94.12 1.88.23 2.81.32.25.03.42.25.4.49-.03.25-.25.42-.49.4-.87-.09-1.74-.19-2.61-.3.41 3.06 1.14 6.23 2.18 9.42.08.23-.05.49-.29.56-.03.03-.07.04-.12.04zm14.2-9.01c-3.21 0-6.49-.13-9.77-.38a.441.441 0 0 1-.41-.48c.02-.25.23-.43.48-.41 3.25.25 6.52.38 9.7.38h.99a.446.446 0 0 1 .01.89h-1zm4.56-.08a.45.45 0 0 1-.45-.43.44.44 0 0 1 .43-.46c3.62-.14 7.2-.45 10.65-.92.25-.03.47.14.5.38.03.24-.14.47-.38.5-3.47.48-7.09.79-10.74.93h-.01zm14.23-1.47c-.21 0-.4-.15-.44-.37-.04-.24.12-.47.36-.52 3.62-.63 7.12-1.45 10.39-2.44.24-.08.49.06.56.3.07.24-.06.49-.3.56-3.31 1-6.84 1.83-10.5 2.46-.02 0-.04.01-.07.01zm-46.22-1.38c-.03 0-.06 0-.09-.01-3.47-.73-6.98-1.6-10.45-2.6a.455.455 0 0 1-.31-.55c.07-.24.32-.38.55-.31 3.44.99 6.94 1.86 10.38 2.58.24.05.4.29.35.53-.04.22-.23.36-.43.36zm10.66-2.09a.45.45 0 0 1-.45-.43c-.01-.45-.02-.9-.02-1.35 0-3.24.38-6.4 1.13-9.41.06-.24.3-.38.54-.33.24.06.39.3.33.54-.73 2.93-1.1 6.02-1.1 9.19 0 .44.01.88.02 1.32.01.25-.19.45-.43.46-.01.01-.02.01-.02.01zm49.41-.1c-.18 0-.36-.11-.42-.3a.45.45 0 0 1 .27-.57c3.56-1.26 6.82-2.74 9.7-4.38.21-.12.49-.05.61.17s.05.49-.17.61c-2.92 1.67-6.23 3.17-9.84 4.45-.05.02-.1.02-.15.02zm-73.91-1.43c-.04 0-.09-.01-.13-.02-3.38-1.06-6.8-2.26-10.15-3.57a.446.446 0 1 1 .33-.83c3.33 1.3 6.73 2.5 10.1 3.55.24.07.37.32.29.56-.08.19-.25.31-.44.31zm86.71-4.88a.47.47 0 0 1-.37-.19c-.14-.2-.09-.48.12-.62 3.27-2.24 5.83-4.68 7.6-7.26.14-.2.42-.25.62-.12.2.14.26.42.12.62-1.83 2.67-4.47 5.19-7.83 7.49a.42.42 0 0 1-.26.08zm-100.16-.01c-.06 0-.12-.01-.17-.03-2.44-1.02-4.91-2.11-7.32-3.26-.84-.4-1.66-.8-2.48-1.21a.449.449 0 0 1-.2-.6c.11-.22.38-.31.6-.2.81.41 1.63.81 2.46 1.2 2.4 1.14 4.85 2.23 7.28 3.24.23.1.34.36.24.58-.07.17-.23.28-.41.28zm-12.94-6.11c-.07 0-.14-.02-.21-.05-3.17-1.71-6.27-3.56-9.23-5.52a.45.45 0 0 1-.13-.62.45.45 0 0 1 .62-.13c2.94 1.94 6.02 3.79 9.16 5.48.22.12.3.39.18.61-.07.15-.23.23-.39.23zm53.02-1.52c-.05 0-.1-.01-.15-.03a.45.45 0 0 1-.27-.57c1.21-3.39 2.94-6.59 5.13-9.53.15-.2.43-.24.63-.09s.24.43.09.63a35.73 35.73 0 0 0-5.01 9.29c-.07.18-.24.3-.42.3zm69.52-2.85c-.06 0-.12-.01-.17-.04a.456.456 0 0 1-.24-.59c.73-1.71 1.1-3.45 1.1-5.16 0-1.65-.34-3.3-1.02-4.91-.1-.23.01-.49.24-.59.22-.09.49.01.59.24.72 1.71 1.09 3.48 1.09 5.26 0 1.84-.39 3.69-1.17 5.51-.08.17-.24.28-.42.28zm-134.69-3.14c-.09 0-.18-.03-.26-.08-2.93-2.07-5.78-4.29-8.49-6.61a.445.445 0 0 1-.05-.63c.16-.19.44-.21.63-.05 2.69 2.3 5.52 4.51 8.43 6.56.2.14.25.42.11.62a.47.47 0 0 1-.37.19zm72.51-6.18c-.11 0-.21-.04-.3-.12a.444.444 0 0 1-.03-.63c2.36-2.62 5.13-4.98 8.23-7.02a.45.45 0 0 1 .62.13c.14.21.08.48-.13.62-3.03 2-5.75 4.31-8.06 6.87-.09.1-.21.15-.33.15zM43 100.33c-.11 0-.22-.04-.3-.12-2.63-2.4-5.19-4.97-7.61-7.62a.444.444 0 0 1 .03-.63c.18-.17.46-.15.63.03 2.39 2.63 4.93 5.18 7.55 7.56.18.17.2.45.03.63-.09.1-.21.15-.33.15zm144.15-1.44a.47.47 0 0 1-.37-.19c-.57-.81-1.24-1.61-1.98-2.38-1.66-1.73-3.65-3.22-5.91-4.44a.447.447 0 0 1-.18-.61c.12-.22.39-.3.61-.18 2.34 1.27 4.41 2.82 6.13 4.61.77.8 1.47 1.64 2.07 2.48.14.2.09.48-.11.62-.08.07-.17.09-.26.09zm-49.31-4.58c-.16 0-.31-.08-.39-.23a.452.452 0 0 1 .17-.61c3.12-1.73 6.47-3.14 9.97-4.19.23-.07.49.06.56.3.07.24-.06.49-.3.56a49.304 49.304 0 0 0-9.79 4.12c-.07.03-.14.05-.22.05zm38.01-3.87c-.05 0-.11-.01-.16-.03-3.12-1.22-6.6-1.98-10.32-2.27-.25-.02-.43-.23-.41-.48s.23-.44.48-.41c3.81.29 7.37 1.08 10.58 2.33.23.09.34.35.25.58-.07.17-.24.28-.42.28zm-142.8-.38c-.13 0-.25-.05-.34-.16-2.31-2.7-4.54-5.56-6.62-8.49-.14-.2-.1-.48.11-.62s.48-.1.62.11c2.07 2.91 4.28 5.75 6.57 8.43.16.19.14.47-.05.63-.08.06-.18.1-.29.1zm118.13-.82c-.2 0-.39-.14-.44-.35-.05-.24.1-.48.34-.53 3.59-.81 7.2-1.23 10.74-1.24.25 0 .45.2.45.45s-.2.45-.45.45c-3.48.01-7.03.42-10.55 1.22h-.09zM24.43 78.65a.44.44 0 0 1-.37-.2c-1.97-2.94-3.85-6.04-5.6-9.2a.45.45 0 1 1 .79-.43c1.74 3.14 3.61 6.21 5.56 9.14.14.21.08.48-.12.62-.09.05-.18.07-.26.07zm-7.27-12.32c-.16 0-.32-.09-.4-.24-1.63-3.14-3.17-6.42-4.58-9.75-.1-.23.01-.49.24-.59.23-.1.49.01.59.24 1.4 3.3 2.93 6.56 4.55 9.69.11.22.03.49-.19.6-.07.03-.14.05-.21.05zM11.23 53.3c-.18 0-.35-.11-.42-.28-1.3-3.29-2.51-6.71-3.6-10.15a.45.45 0 0 1 .29-.56c.24-.07.49.06.56.29 1.08 3.42 2.28 6.82 3.58 10.09a.446.446 0 0 1-.41.61zM6.61 39.75a.46.46 0 0 1-.43-.32c-.99-3.42-1.88-6.93-2.66-10.45a.446.446 0 0 1 .87-.19c.77 3.5 1.65 6.99 2.64 10.38.07.24-.07.49-.31.55-.03.02-.07.03-.11.03zM3.23 25.83a.45.45 0 0 1-.44-.36c-.69-3.54-1.28-7.12-1.73-10.64a.449.449 0 0 1 .89-.11c.45 3.5 1.02 7.06 1.72 10.58.05.24-.11.48-.35.52-.03 0-.06.01-.09.01zM1.1 11.65c-.23 0-.42-.17-.44-.4C.03 5.24 0 1.32 0 .59V.44C0 .2.2 0 .45 0S.9.2.9.45v.14c0 .72.03 4.6.65 10.56.03.25-.15.47-.4.49-.02.01-.04.01-.05.01z" fill="#fff"/></g></switch></svg>