<svg id="Layer_1" xmlns="http://www.w3.org/2000/svg" viewBox="0 0 519.55 243.21"><style>.st0{fill:#fff}</style><switch><g><path class="st0" d="M87.46 241.41c-.21 0-.41-.14-.48-.35-1.55-4.86-2.93-9.73-4.1-14.46a.504.504 0 1 1 .98-.24c1.17 4.71 2.54 9.55 4.08 14.4a.51.51 0 0 1-.32.63c-.06.02-.11.02-.16.02zm-5.24-19.29c-.23 0-.44-.16-.49-.39-1.11-5-2.02-9.97-2.69-14.79a.49.49 0 0 1 .43-.56c.27-.04.53.15.56.43.67 4.79 1.57 9.74 2.67 14.71.06.27-.11.54-.38.6-.03-.01-.07 0-.1 0zm-3.3-19.72c-.25 0-.47-.19-.5-.45-.56-5.13-.86-10.18-.9-15.02 0-.28.22-.5.5-.5.27-.01.5.22.5.5.02 2.06.08 4.15.19 6.27.05 0 .1 0 .15.02 4.97 1.34 9.93 1.73 14.66 1.14.28-.04.52.16.56.43a.51.51 0 0 1-.43.56c-4.81.6-9.84.21-14.88-1.13.15 2.51.37 5.05.65 7.61.03.27-.17.52-.44.55-.02.02-.04.02-.06.02zm19.57-8c-.22 0-.42-.15-.48-.37-.07-.27.08-.54.35-.61 4.73-1.29 9.11-3.58 13-6.79.21-.18.53-.15.7.07.18.21.15.53-.07.7-4.01 3.3-8.51 5.66-13.38 6.99-.03 0-.08.01-.12.01zm-24.5-1.75c-.06 0-.12-.01-.18-.03-4.4-1.7-8.85-4.14-13.23-7.24a.499.499 0 0 1-.12-.7c.16-.23.47-.28.7-.12 4.31 3.06 8.69 5.46 13.01 7.13.26.1.39.39.29.65-.08.19-.27.31-.47.31zm41.33-8.57c-.12 0-.24-.04-.34-.13-.2-.19-.21-.5-.02-.71 3.35-3.59 6-7.78 7.89-12.44a.501.501 0 0 1 .93.37c-1.94 4.78-4.66 9.07-8.09 12.75-.11.1-.24.16-.37.16zm-58.43-1.64a.51.51 0 0 1-.31-.11c-3-2.43-6.02-5.22-8.96-8.28-.66-.69-1.31-1.39-1.95-2.1a.505.505 0 0 1 .04-.71c.21-.19.52-.17.71.04.63.71 1.28 1.4 1.93 2.08 2.91 3.04 5.9 5.79 8.87 8.2.21.17.25.49.07.7-.11.12-.25.18-.4.18zm21.18 0h-.02a.496.496 0 0 1-.48-.52c.16-5.21.64-10.25 1.43-14.99.04-.27.3-.46.58-.41.27.04.46.3.41.58-.78 4.69-1.26 9.69-1.41 14.85-.02.28-.24.49-.51.49zM42.8 168.31c-.15 0-.29-.06-.39-.19-3-3.72-5.89-7.88-8.6-12.36a.504.504 0 0 1 .17-.69c.23-.14.54-.07.69.17 2.68 4.44 5.55 8.56 8.52 12.25.17.21.14.53-.08.7-.09.08-.2.12-.31.12zm82.1-1.56c-.04 0-.09-.01-.13-.02a.496.496 0 0 1-.35-.61c.96-3.53 1.45-7.15 1.45-10.75 0-1.31-.07-2.64-.2-3.93a.503.503 0 0 1 1-.1c.13 1.33.2 2.69.2 4.03 0 3.69-.5 7.39-1.49 11.01-.05.22-.26.37-.48.37zm-44.46-4.14c-.04 0-.07 0-.11-.01a.503.503 0 0 1-.38-.6c1.15-5.21 2.71-10.03 4.64-14.34.11-.25.41-.36.66-.25.25.11.37.41.25.66-1.9 4.25-3.43 9.01-4.57 14.15-.05.23-.26.39-.49.39zm-48.7-10.94a.49.49 0 0 1-.44-.26c-2.32-4.18-4.55-8.73-6.64-13.5-.11-.25 0-.55.26-.66.26-.11.55.01.66.26 2.07 4.75 4.29 9.26 6.6 13.42a.497.497 0 0 1-.44.74zm93.62-4.71a.51.51 0 0 1-.49-.39 37.83 37.83 0 0 0-2.16-6.5c-1.15-2.63-2.54-4.89-4.12-6.7a.506.506 0 0 1 .05-.71c.21-.18.52-.16.71.05 1.65 1.89 3.09 4.24 4.28 6.96.94 2.14 1.68 4.39 2.22 6.67.06.27-.1.54-.37.6-.05.01-.09.02-.12.02zm-38.08-3.07a.494.494 0 0 1-.43-.74c2.76-4.96 5.97-8.89 9.55-11.69.22-.17.53-.13.7.08.17.22.13.53-.09.7-3.47 2.72-6.6 6.55-9.29 11.39-.1.17-.27.26-.44.26zm-64.1-10.29c-.2 0-.38-.12-.46-.31a216.43 216.43 0 0 1-5.15-14.14.5.5 0 0 1 .95-.31c1.6 4.9 3.33 9.63 5.13 14.07.1.26-.02.55-.28.65-.07.02-.13.04-.19.04zm92.04-3.34a.53.53 0 0 1-.27-.08c-2.21-1.41-4.61-2.13-7.14-2.13h-.01c-2.19 0-4.44.54-6.67 1.6a.504.504 0 0 1-.43-.91c2.37-1.13 4.76-1.7 7.1-1.7h.01c2.72 0 5.31.77 7.68 2.29.23.15.3.46.15.69-.09.16-.26.24-.42.24zm-98.69-15.54c-.21 0-.41-.14-.48-.35-1.41-4.63-2.76-9.51-4.01-14.5-.07-.27.1-.54.36-.61.27-.06.54.1.61.36 1.24 4.98 2.58 9.84 3.99 14.45a.5.5 0 0 1-.33.62c-.05.03-.1.03-.14.03zm-5.17-19.33a.51.51 0 0 1-.49-.39c-1.1-4.73-2.14-9.68-3.09-14.71a.499.499 0 0 1 .98-.18c.95 5.02 1.99 9.96 3.08 14.67.06.27-.1.54-.37.6-.04.01-.08.01-.11.01zM7.37 75.77c-.24 0-.45-.17-.49-.41-.85-4.83-1.63-9.82-2.34-14.85a.49.49 0 0 1 .43-.56c.27-.04.53.15.56.43.7 5.02 1.48 10 2.33 14.82.05.27-.13.53-.41.58-.02-.01-.05-.01-.08-.01zm-3-19.79c-.25 0-.46-.18-.5-.44-.63-4.9-1.19-9.93-1.68-14.94a.503.503 0 0 1 1-.1c.49 5.01 1.05 10.03 1.68 14.91.04.27-.16.52-.43.56-.02 0-.05.01-.07.01zM2.24 36.06c-.26 0-.48-.2-.5-.46-.44-4.99-.8-10.04-1.08-15-.02-.28.2-.51.47-.53.27-.03.51.19.53.47.28 4.96.64 9.99 1.07 14.98.02.28-.18.52-.45.54h-.04zm-1.34-20c-.27 0-.49-.21-.5-.48C.02 7.19 0 1.72 0 .71V.5C0 .22.23 0 .5 0c.28 0 .5.23.5.5v.21c0 1.01.02 6.46.4 14.82.01.28-.2.51-.48.52 0 .01-.01.01-.02.01zM332.53 243.21a.498.498 0 0 1-.12-.98c.06-.01 5.71-1.51 14.5-4.17a.5.5 0 0 1 .62.33.5.5 0 0 1-.33.62c-8.8 2.67-14.47 4.17-14.53 4.18-.06.02-.1.02-.14.02zm19.31-5.65c-.21 0-.41-.14-.48-.35-.08-.26.07-.54.33-.63 4.81-1.5 9.62-3.06 14.3-4.64.27-.09.55.05.63.31.09.26-.05.55-.31.63-4.69 1.58-9.51 3.14-14.32 4.64-.05.04-.11.04-.15.04zm19.05-6.26c-.21 0-.4-.13-.47-.34-.09-.26.05-.55.31-.64 4.82-1.67 9.58-3.39 14.13-5.11.26-.1.55.03.64.29.1.26-.03.55-.29.64-4.56 1.72-9.32 3.44-14.15 5.12-.06.04-.12.04-.17.04zm18.82-6.9c-.2 0-.39-.12-.47-.32-.1-.26.03-.55.28-.65 4.83-1.88 9.51-3.79 13.91-5.68.25-.11.55.01.66.26.11.25-.01.55-.26.66-4.41 1.89-9.09 3.81-13.94 5.69-.06.03-.12.04-.18.04zm18.5-7.7a.502.502 0 0 1-.21-.96c4.8-2.15 9.36-4.32 13.54-6.45.25-.12.55-.03.67.22.13.25.03.55-.22.67-4.2 2.14-8.78 4.32-13.59 6.47-.05.04-.12.05-.19.05zm18.01-8.78c-.18 0-.35-.1-.44-.26a.506.506 0 0 1 .2-.68c4.73-2.54 9.07-5.11 12.9-7.62a.498.498 0 0 1 .55.83c-3.85 2.53-8.21 5.11-12.97 7.66-.08.05-.16.07-.24.07zm17.07-10.47a.5.5 0 0 1-.29-.91c4.54-3.26 8.35-6.52 11.3-9.69.19-.2.5-.21.71-.03.2.19.21.5.03.71-3 3.22-6.85 6.53-11.45 9.82-.1.07-.2.1-.3.1zm14.57-13.59a.507.507 0 0 1-.41-.8c3.33-4.5 5.02-8.95 5.02-13.21v-.2c0-.28.22-.5.49-.51.26-.04.5.22.51.49v.21c0 4.48-1.75 9.13-5.21 13.81-.09.14-.24.21-.4.21zm4.33-18.63c-.21 0-.41-.14-.48-.35-1.25-4.03-4.09-8.01-8.44-11.83a.495.495 0 0 1-.04-.71c.18-.21.5-.23.71-.04 4.49 3.95 7.42 8.08 8.74 12.28.08.26-.07.54-.33.63-.06.01-.11.02-.16.02zm-12.49-15.17c-.1 0-.21-.03-.29-.1-3.54-2.57-7.85-5.13-12.82-7.59a.5.5 0 1 1 .44-.9c5.01 2.49 9.38 5.07 12.96 7.68.22.16.27.48.11.7a.49.49 0 0 1-.4.21zm-17.41-9.77c-.07 0-.14-.01-.21-.04-1.41-.64-2.9-1.28-4.42-1.92-3.31-1.38-6.46-2.74-9.35-4.02a.494.494 0 0 1-.25-.66c.11-.25.41-.36.66-.25 2.88 1.28 6.02 2.63 9.33 4.01 1.53.64 3.03 1.29 4.45 1.93.25.11.36.41.25.66-.09.18-.27.29-.46.29zm-18.32-8c-.07 0-.14-.01-.21-.05-5.21-2.41-9.73-4.67-13.43-6.74a.494.494 0 0 1-.19-.68c.13-.24.44-.33.68-.19 3.69 2.06 8.18 4.31 13.37 6.71.25.12.36.41.24.66a.53.53 0 0 1-.46.29zm105.08-7.6c-.05 0-.1-.01-.16-.03-2.36-.78-5.2-1.6-8.45-2.44a.498.498 0 0 1-.36-.61c.07-.27.34-.43.61-.36 3.27.85 6.13 1.68 8.51 2.46a.5.5 0 0 1 .32.63.48.48 0 0 1-.47.35zm-122.79-1.67a.47.47 0 0 1-.27-.08c-6.31-3.96-9.38-7.14-9.38-9.74 0-.61.17-1.19.51-1.71a.5.5 0 0 1 .69-.15c.23.15.3.46.15.69-.24.37-.35.75-.35 1.17 0 1.51 1.54 4.27 8.91 8.89.23.15.3.46.16.69-.09.16-.26.24-.42.24zm109.46-1.98c-.04 0-.08 0-.12-.01-4.41-1.05-9.34-2.12-14.66-3.17a.495.495 0 0 1-.39-.59c.05-.27.32-.45.59-.39 5.33 1.05 10.28 2.12 14.7 3.17.27.06.43.33.37.6a.52.52 0 0 1-.49.39zm-19.59-4.12c-.03 0-.06 0-.09-.01-4.78-.9-9.75-1.76-14.78-2.57-.27-.04-.46-.3-.41-.57s.29-.46.57-.41c5.03.81 10.01 1.68 14.8 2.58.27.05.45.31.4.58-.05.23-.26.4-.49.4zm-19.74-3.35c-.03 0-.05 0-.08-.01-4.98-.76-9.98-1.47-14.86-2.09a.503.503 0 0 1-.43-.56.51.51 0 0 1 .56-.43c4.89.63 9.9 1.33 14.88 2.1.27.04.46.3.42.57-.04.24-.25.42-.49.42zm-19.84-2.71h-.06a503.16 503.16 0 0 0-14.92-1.56.488.488 0 0 1-.45-.54c.02-.27.27-.48.54-.45 4.72.41 9.75.94 14.95 1.56.27.03.47.28.44.56-.04.24-.25.43-.5.43zm-54.8-1.1a.51.51 0 0 1-.48-.36.5.5 0 0 1 .33-.62c3.31-1 8.37-1.55 15.01-1.64.3 0 .5.22.51.49 0 .28-.22.5-.49.51-6.55.09-11.51.63-14.74 1.6a.59.59 0 0 1-.14.02zm34.88-.87h-.04c-5.48-.41-10.51-.66-14.97-.73a.49.49 0 0 1-.49-.51c0-.28.25-.5.51-.49 4.47.08 9.53.33 15.02.74.28.02.48.26.46.54a.49.49 0 0 1-.49.45z"/></g></switch></svg>