<svg xmlns="http://www.w3.org/2000/svg" viewBox="0 0 202.29 464.33"><switch><g><path d="M201.61 464.33c-.28 0-.5-.22-.5-.5 0-2.44-.01-4.87-.03-7.28 0-.28.22-.5.5-.5.27 0 .5.22.5.5.02 2.41.03 4.84.03 7.29 0 .27-.22.49-.5.49zm-.07-12.29a.5.5 0 0 1-.5-.49c-.06-5.02-.16-10.06-.3-14.98a.49.49 0 0 1 .49-.51h.01a.5.5 0 0 1 .5.49c.14 4.93.24 9.98.3 15a.5.5 0 0 1-.5.49zm-.45-19.99c-.27 0-.49-.21-.5-.48-.16-5.01-.37-10.05-.61-14.97-.01-.28.2-.51.47-.52.31-.04.51.2.52.47.24 4.93.45 9.98.61 14.99.01.28-.21.51-.48.52 0-.01 0-.01-.01-.01zm-.86-19.97c-.26 0-.49-.21-.5-.47-.27-4.95-.58-9.99-.93-14.96-.02-.28.19-.51.46-.53.25-.02.51.19.53.46.35 4.98.66 10.01.93 14.97.01.28-.2.51-.47.53h-.02zm-1.3-19.95c-.26 0-.48-.2-.5-.46-.38-4.95-.8-9.98-1.26-14.93-.03-.27.18-.52.45-.54.27-.02.52.18.54.45.46 4.96.88 9.99 1.26 14.95.02.28-.19.52-.46.54 0-.01-.02-.01-.03-.01zm-1.74-19.92c-.25 0-.47-.19-.5-.45-.49-4.95-1.02-9.96-1.59-14.9-.03-.27.17-.52.44-.55.27-.03.52.17.55.44.57 4.94 1.1 9.96 1.59 14.92.03.27-.17.52-.45.55 0-.01-.02-.01-.04-.01zm-2.17-19.87c-.25 0-.46-.19-.5-.44-.59-4.9-1.23-9.9-1.9-14.87a.49.49 0 0 1 .43-.56c.28-.05.53.15.56.43.67 4.97 1.31 9.98 1.9 14.88a.51.51 0 0 1-.44.56c-.01-.01-.03 0-.05 0zm-2.57-19.82c-.25 0-.46-.18-.49-.43-.69-4.91-1.43-9.89-2.19-14.83-.04-.27.14-.53.42-.57.27-.04.53.14.57.42.76 4.94 1.5 9.93 2.19 14.84a.49.49 0 0 1-.43.56c-.03.01-.05.01-.07.01zm-2.97-19.76c-.24 0-.45-.18-.49-.42-.76-4.79-1.58-9.76-2.44-14.79-.05-.27.14-.53.41-.58.27-.05.53.14.58.41.86 5.03 1.68 10.01 2.44 14.8.04.27-.14.53-.42.57-.02.01-.05.01-.08.01zm-3.29-19.72c-.24 0-.45-.17-.49-.41-.83-4.77-1.73-9.73-2.66-14.75a.499.499 0 0 1 .98-.18c.93 5.03 1.83 9.99 2.66 14.76.05.27-.13.53-.41.58h-.08zm-3.58-19.68c-.24 0-.45-.17-.49-.41-.92-4.89-1.86-9.79-2.83-14.72a.5.5 0 1 1 .98-.2c.97 4.93 1.91 9.84 2.83 14.73.05.27-.13.53-.4.58-.03.01-.06.02-.09.02zm-3.79-19.64c-.23 0-.44-.17-.49-.4-.96-4.87-1.95-9.77-2.95-14.7-.05-.27.12-.53.39-.59.26-.06.53.12.59.39 1 4.93 1.99 9.83 2.95 14.7.05.27-.12.53-.39.59-.04.01-.07.01-.1.01zm-3.95-19.6c-.23 0-.44-.16-.49-.4-.87-4.23-1.74-8.49-2.63-12.79l-.4-1.9c-.06-.27.12-.54.39-.59a.5.5 0 0 1 .59.39l.4 1.9c.89 4.3 1.77 8.56 2.63 12.79.05.27-.12.53-.39.59-.03.01-.07.01-.1.01zm-4.08-19.57c-.23 0-.44-.16-.49-.39-1.09-4.92-2.26-9.82-3.48-14.58-.07-.27.09-.54.36-.61.27-.07.54.09.61.36 1.22 4.77 2.39 9.68 3.48 14.61.06.27-.11.54-.38.6-.03.01-.07.01-.1.01zm-4.75-19.43c-.22 0-.42-.15-.48-.37-1.31-4.88-2.7-9.73-4.13-14.4-.08-.26.07-.54.33-.63a.5.5 0 0 1 .62.33c1.44 4.69 2.83 9.55 4.15 14.44a.5.5 0 0 1-.35.61c-.05.01-.1.02-.14.02zm-5.64-19.19a.5.5 0 0 1-.48-.35c-1.55-4.83-3.19-9.6-4.87-14.17a.501.501 0 0 1 .94-.34c1.68 4.58 3.33 9.36 4.88 14.21a.51.51 0 0 1-.32.63c-.05.01-.1.02-.15.02zm-93.3-15.27c-1.17 0-2.35-.02-3.51-.07-.28-.01-.49-.24-.48-.52s.25-.5.52-.48c4.82.19 9.82-.02 14.89-.62.28-.03.52.16.56.44a.51.51 0 0 1-.44.56c-3.91.46-7.79.69-11.54.69zm-8.47-.41h-.05c-5.12-.5-10.1-1.48-14.78-2.9a.5.5 0 0 1-.33-.62.5.5 0 0 1 .62-.33c4.62 1.4 9.53 2.37 14.59 2.87.27.03.48.27.45.55-.03.24-.25.43-.5.43zm24.9-.98a.498.498 0 0 1-.08-.99c4.74-.78 9.63-1.91 14.55-3.35a.501.501 0 0 1 .28.96c-4.96 1.45-9.89 2.58-14.67 3.37-.02.01-.05.01-.08.01zm70.24-2.21c-.2 0-.39-.12-.47-.32a313.87 313.87 0 0 0-5.71-13.85c-.11-.25 0-.55.25-.66.25-.11.55 0 .66.26 1.97 4.45 3.89 9.12 5.73 13.89.1.26-.03.55-.29.65-.05.02-.11.03-.17.03zm-114.55-1.31c-.06 0-.12-.01-.18-.03a65.485 65.485 0 0 1-13.37-6.97.49.49 0 0 1-.13-.69.49.49 0 0 1 .69-.13c4.04 2.75 8.47 5.06 13.16 6.86.26.1.39.39.29.65-.07.19-.26.31-.46.31zm63.69-1.33c-.21 0-.41-.13-.47-.34a.5.5 0 0 1 .32-.63c4.77-1.58 9.45-3.4 13.91-5.42.25-.11.55 0 .66.25.11.25 0 .55-.25.66-4.49 2.03-9.2 3.87-14 5.46-.06.01-.12.02-.17.02zm18.47-7.58a.505.505 0 0 1-.23-.95c4.47-2.22 8.82-4.71 12.95-7.39.23-.15.54-.09.69.15a.5.5 0 0 1-.15.69c-4.16 2.7-8.55 5.21-13.05 7.45-.06.03-.14.05-.21.05zm-99.45-.98a.51.51 0 0 1-.31-.11 60.426 60.426 0 0 1-10.48-10.85.498.498 0 0 1 .1-.7c.22-.17.53-.12.7.1 2.95 3.94 6.42 7.53 10.31 10.67.22.17.25.49.08.7a.51.51 0 0 1-.4.19zm124.05-7.23c-.19 0-.37-.11-.45-.29-.79-1.69-1.59-3.37-2.4-5.03-1.42 1.1-2.87 2.17-4.33 3.2a.5.5 0 0 1-.7-.12.499.499 0 0 1 .12-.7c1.51-1.06 2.99-2.17 4.46-3.3-1.26-2.55-2.55-5.04-3.85-7.45a.506.506 0 0 1 .2-.68c.24-.13.55-.04.68.2 1.27 2.36 2.53 4.8 3.77 7.3 2.19-1.73 4.33-3.52 6.39-5.38.2-.19.52-.17.71.04.18.21.17.52-.04.71-2.13 1.92-4.34 3.77-6.6 5.55.84 1.72 1.68 3.47 2.5 5.23.12.25.01.55-.24.66-.07.05-.15.06-.22.06zM8.72 130.97c-.17 0-.33-.08-.43-.24-2.7-4.34-4.78-8.97-6.19-13.76-.08-.26.07-.54.34-.62.26-.08.54.07.62.34 1.38 4.7 3.43 9.25 6.08 13.51.15.23.07.54-.16.69a.42.42 0 0 1-.26.08zm145.14-7.12c-.13 0-.26-.05-.36-.15-.19-.2-.19-.51.01-.71 3.53-3.43 6.92-7.13 10.09-11 .17-.21.49-.24.7-.07.21.17.25.49.07.7-3.19 3.9-6.62 7.63-10.17 11.08-.09.11-.22.15-.34.15zm-17-3.01c-.17 0-.34-.09-.43-.25-2.53-4.46-5.18-8.74-7.87-12.73a.498.498 0 0 1 .14-.69c.23-.15.54-.1.69.14 2.7 4.01 5.36 8.31 7.9 12.79a.494.494 0 0 1-.43.74zM1.41 112.48a.51.51 0 0 1-.49-.41c-.61-3.14-.92-6.31-.92-9.42 0-1.9.12-3.8.34-5.65a.5.5 0 0 1 .56-.44c.27.03.47.28.44.56-.23 1.8-.34 3.67-.34 5.53 0 3.05.3 6.16.9 9.24.05.27-.13.53-.4.59h-.09zm165.67-3.59c-.11 0-.21-.03-.3-.1a.507.507 0 0 1-.1-.7c2.96-3.9 5.79-8.05 8.41-12.35a.502.502 0 1 1 .86.52c-2.63 4.33-5.48 8.51-8.46 12.44-.11.12-.26.19-.41.19zm-40.96-4.91c-.16 0-.31-.07-.41-.21-2.99-4.18-6.11-8.12-9.27-11.72-.18-.21-.16-.52.05-.71s.52-.16.71.05c3.18 3.62 6.32 7.59 9.33 11.79a.5.5 0 0 1-.12.7c-.09.07-.19.1-.29.1zM1.73 92.64c-.04 0-.08 0-.12-.01a.502.502 0 0 1-.37-.6c1.22-5.02 3.3-9.66 6.2-13.76.16-.23.47-.28.7-.12.23.16.28.47.12.7-2.82 4-4.85 8.52-6.04 13.42-.06.21-.26.37-.49.37zm176.32-.46c-.08 0-.17-.02-.25-.06a.497.497 0 0 1-.19-.68c2.4-4.25 4.67-8.74 6.74-13.35.11-.25.41-.36.66-.25.25.11.36.41.25.66-2.08 4.64-4.36 9.16-6.78 13.44-.09.15-.26.24-.43.24zm-64.6-3.65a.48.48 0 0 1-.36-.16c-3.54-3.73-7.21-7.14-10.93-10.15a.494.494 0 0 1-.07-.7c.17-.22.49-.25.7-.08 3.75 3.03 7.47 6.48 11.03 10.23.19.2.18.52-.02.71a.52.52 0 0 1-.35.15zM98.5 75.3c-.1 0-.21-.03-.29-.1-4.13-3-8.41-5.6-12.72-7.72a.5.5 0 1 1 .44-.9c4.37 2.15 8.7 4.77 12.87 7.81.22.16.27.48.11.7-.1.14-.26.21-.41.21zm-87.51-.15a.501.501 0 0 1-.37-.84c3.34-3.64 7.4-6.69 12.06-9.08.25-.13.55-.03.67.22.13.25.03.55-.22.67-4.56 2.33-8.52 5.31-11.77 8.86-.1.12-.24.17-.37.17zm175.8-.96a.5.5 0 0 1-.46-.69c1.88-4.52 3.61-9.25 5.16-14.05.08-.26.37-.41.63-.32.26.08.41.37.32.63-1.56 4.83-3.3 9.58-5.19 14.13a.5.5 0 0 1-.46.3zM81.15 65.47c-.06 0-.13-.01-.19-.04-4.62-1.92-9.4-3.36-14.22-4.29a.504.504 0 1 1 .19-.99c4.88.94 9.73 2.41 14.41 4.35.26.11.38.4.27.65a.47.47 0 0 1-.46.32zm-53.69-1.33a.503.503 0 0 1-.18-.97c3.15-1.22 6.56-2.19 10.14-2.87 1.49-.28 3.01-.53 4.5-.74.27-.04.53.15.56.43a.49.49 0 0 1-.43.56c-1.47.2-2.97.45-4.45.73-3.52.67-6.87 1.62-9.97 2.82-.05.03-.11.04-.17.04zm34.45-3.77h-.06a73.42 73.42 0 0 0-9.05-.55h-.02c-1.9 0-3.85.07-5.79.22a.503.503 0 0 1-.08-1c1.96-.15 3.93-.22 5.86-.22h.02c3.07 0 6.16.19 9.17.56.27.03.47.28.44.56a.48.48 0 0 1-.49.43zm131.52-5.05c-.05 0-.09-.01-.14-.02a.505.505 0 0 1-.34-.62c1.39-4.72 2.63-9.6 3.7-14.52.06-.27.33-.44.59-.38.27.06.44.32.38.59-1.07 4.94-2.32 9.84-3.71 14.59-.06.22-.26.36-.48.36zm4.71-19.45c-.03 0-.06 0-.1-.01a.504.504 0 0 1-.4-.59c.94-4.89 1.72-9.88 2.31-14.81.03-.27.29-.47.56-.44.27.03.47.28.44.56-.6 4.96-1.38 9.96-2.32 14.88-.04.24-.25.41-.49.41zM201 16.04h-.05a.504.504 0 0 1-.45-.55c.71-7.42.79-12.53.79-14.38v-.6c0-.28.21-.5.49-.51h.01c.27 0 .5.22.5.49v.62c0 1.86-.08 7-.79 14.47-.03.26-.25.46-.5.46z" fill="#fff"/></g></switch></svg>