<svg xmlns="http://www.w3.org/2000/svg" viewBox="0 0 87.55 29.16"><switch><g><path d="M18.21 7.88c-2.19 0-3.82 1.32-4.78 2.88V6.69L9.01 9.42v17.32c0 .94.54 2.38 2.31 2.38.97 0 2.1-.92 2.1-2.38V14.83l5.18-3.13v16.98h4.41V12.47c.01-3.04-2.05-4.59-4.8-4.59M2.6 7.64C1.36 7.64.29 8.67.29 10.1v18.58h4.62V10.1c0-1.47-1.05-2.46-2.31-2.46M2.59 5.2c1.45 0 2.61-1.16 2.61-2.6C5.2 1.17 4.04 0 2.59 0 1.16 0 0 1.17 0 2.59 0 4.04 1.16 5.2 2.59 5.2m31.68 11.51c-2.77-1.16-3.56-1.93-3.56-3.05 0-1.11.99-2.08 2.35-2.08 1.48 0 2.61.66 3.38 1.42l1.85-3.37c-1.42-1.11-3.08-1.94-5.73-1.94-3.38 0-6.43 2.43-6.43 6.01 0 3 2.16 4.97 5.33 6.15 2.53.94 3.2 1.66 3.2 3.16 0 1.06-.8 2.04-2.29 2.04-1.33 0-2.29-.85-3.08-1.6-.88-.83-2.43-.84-3.14-.05-.61.67-.84 1.82.06 3.03.84 1.12 2.96 2.69 6.16 2.69 3.46 0 6.79-2.28 6.79-6.35 0-3.36-1.59-4.68-4.89-6.06m14.05-8.68V2.76L43.69 5.5v2.53h-2.32c-1.1 0-1.98.82-1.98 1.9 0 1.03.85 1.84 1.98 1.84h2.32v16.91h4.63V11.77h3.7V8.03h-3.7zm18.47-1.09c-1.35 0-2.14 1.04-2.32 2.35-.65-.68-1.77-1.66-3.79-1.66-4.51 0-7.67 4.23-7.67 10.53 0 6.42 2.97 10.52 7.67 10.52 1.89 0 3.11-1.06 3.93-2.11v2.11h4.58V9.3c0-1.15-.77-2.36-2.4-2.36M61.3 24.59c-2.22 0-3.71-2.33-3.71-6.43s1.42-6.44 3.71-6.44c2.03 0 3.54 2.03 3.54 6.44-.01 4.42-1.8 6.43-3.54 6.43m21.29-6.71l4.96-9.86h-4.98L79.56 14l-3-5.98h-4.99l4.96 9.86-5.43 10.8h4.98l3.48-6.9 3.1 6.16c.65 1.14 1.93 1.56 3.07.92s1.4-2.08.76-3.23l-3.9-7.75z"/></g></switch></svg>