<svg xmlns="http://www.w3.org/2000/svg" viewBox="0 0 177.4 56.19"><switch><g><path d="M.45 56.19c-.03 0-.06 0-.09-.01a.453.453 0 01-.35-.53c.01-.04.94-4.48 3.39-10.31.1-.23.36-.34.59-.24.23.1.33.36.24.59C1.81 51.44.9 55.79.89 55.83c-.05.22-.23.36-.44.36zM5.28 42.7c-.06 0-.13-.01-.19-.04a.452.452 0 01-.21-.6c1.62-3.36 3.48-6.49 5.51-9.3.15-.2.42-.25.62-.1s.25.42.1.62c-2 2.77-3.83 5.85-5.43 9.17-.07.15-.23.25-.4.25zm120.7-3.99a76.2 76.2 0 01-7.01-.33c-.25-.02-.43-.24-.4-.49s.25-.42.49-.4c3.65.33 7.23.41 10.66.22a.447.447 0 01.05.89c-1.25.07-2.52.11-3.79.11zm7.31-.39c-.23 0-.42-.17-.44-.4-.03-.25.15-.47.4-.49 3.62-.39 7.12-1.1 10.42-2.09.24-.07.49.06.56.3.07.24-.06.49-.3.56-3.35 1.01-6.92 1.72-10.59 2.12h-.05zm-17.83-.34h-.06c-3.43-.46-6.99-1.14-10.58-2.04a.447.447 0 01-.33-.54c.06-.24.3-.38.54-.33 3.56.89 7.09 1.56 10.49 2.02.25.03.42.26.38.5-.03.23-.22.39-.44.39zm31.73-2.92a.451.451 0 01-.16-.87c3.36-1.26 6.55-2.87 9.48-4.78a.45.45 0 01.62.13c.13.21.08.48-.13.62a49.568 49.568 0 01-9.65 4.86c-.06.04-.11.04-.16.04zm-45.73-.02c-.04 0-.08-.01-.12-.02-3.33-.94-6.77-2.08-10.22-3.39a.451.451 0 01-.26-.58c.09-.23.35-.35.58-.26 3.43 1.29 6.84 2.43 10.15 3.36.24.07.38.31.31.55-.06.21-.24.34-.44.34zm-88.51-4.4c-.1 0-.2-.03-.29-.1a.455.455 0 01-.06-.63c2.4-2.88 5.04-5.38 7.86-7.44a.45.45 0 11.53.73c-2.75 2.02-5.34 4.47-7.7 7.29-.08.09-.21.15-.34.15zm75-.29c-.06 0-.11-.01-.17-.03-3.21-1.31-6.52-2.79-9.82-4.39a.462.462 0 01-.21-.6c.11-.22.38-.31.6-.21 3.29 1.6 6.57 3.07 9.77 4.37.23.09.34.35.25.58-.08.18-.25.28-.42.28zm71.72-2.17a.454.454 0 01-.28-.81c2.82-2.15 5.39-4.63 7.64-7.36.16-.19.44-.22.63-.06s.22.44.06.63a47.207 47.207 0 01-7.78 7.5c-.08.07-.17.1-.27.1zm-84.72-3.8c-.07 0-.13-.02-.2-.05-3.33-1.66-6.63-3.1-9.79-4.27a.44.44 0 01-.26-.57.44.44 0 01.57-.26 99.24 99.24 0 019.88 4.31c.22.11.31.38.2.6-.08.15-.24.24-.4.24zM23.71 21.3a.44.44 0 01-.38-.22.44.44 0 01.15-.61c3.11-1.86 6.46-3.27 9.97-4.18.24-.06.48.08.55.32.06.24-.08.48-.32.55-3.42.89-6.7 2.26-9.73 4.08-.08.04-.16.06-.24.06zm38.02-2.37c-.04 0-.09-.01-.14-.02-3.55-1.14-7.04-1.96-10.36-2.46a.458.458 0 01-.38-.51.45.45 0 01.51-.38c3.37.5 6.9 1.33 10.5 2.49.23.08.36.33.29.56-.06.19-.23.32-.42.32zm107.82-1.03c-.09 0-.18-.03-.26-.08a.448.448 0 01-.11-.62c2.04-2.9 3.74-6.04 5.05-9.33a.446.446 0 11.83.33 47.262 47.262 0 01-5.15 9.51c-.08.13-.22.19-.36.19zm-132.5-1.46a.45.45 0 01-.07-.89c3.42-.56 7.05-.69 10.8-.39.25.02.43.23.41.48-.02.25-.24.42-.48.41-3.68-.29-7.24-.16-10.58.38-.03 0-.05.01-.08.01zm138.8-11.32c-.04 0-.09-.01-.13-.02a.434.434 0 01-.29-.56c.43-1.37.8-2.78 1.09-4.18.05-.24.29-.4.53-.35.24.05.4.29.35.53-.3 1.43-.67 2.86-1.11 4.26-.07.19-.25.32-.44.32z" fill="#fff"/></g></switch></svg>