<svg xmlns="http://www.w3.org/2000/svg" viewBox="0 0 382.55 130.85"><switch><g><path d="M26.7 129.57c-3.75-.45-7.27-1.27-10.44-2.44a.441.441 0 00-.57.27c-.08.23.03.49.27.57 3.24 1.19 6.83 2.03 10.65 2.49h.05c.22 0 .42-.17.44-.39a.458.458 0 00-.4-.5zm74.66-36.95a88.313 88.313 0 01-7.13 8.1c-.17.18-.17.46 0 .63.09.09.2.13.32.13.11 0 .23-.04.32-.13 2.6-2.62 5.02-5.37 7.2-8.18.15-.19.12-.48-.08-.63a.447.447 0 00-.63.08zM13.77 80.57c-2.57 2.95-4.81 5.85-6.67 8.62-.14.21-.08.48.12.62.08.05.16.08.25.08.14 0 .29-.07.37-.2 1.83-2.74 4.05-5.61 6.6-8.53.16-.19.14-.47-.04-.63a.436.436 0 00-.63.04zm-.8 45.16c-3.53-1.73-6.34-3.89-8.37-6.45a.445.445 0 00-.63-.07c-.19.15-.23.43-.07.63 2.11 2.66 5.03 4.91 8.67 6.69a.439.439 0 00.6-.2c.12-.22.03-.49-.2-.6zm78.67-22.51a97.984 97.984 0 01-8.29 6.92c-.2.15-.24.43-.09.63.09.12.22.18.36.18.09 0 .19-.03.27-.09 2.94-2.2 5.75-4.55 8.36-6.99.18-.17.19-.45.02-.63a.463.463 0 00-.63-.02zM41 129.23c-2.83.48-5.45.72-7.78.72-.97 0-1.96-.03-2.94-.08-.24-.03-.46.18-.47.42-.01.25.18.46.42.47 1 .05 2 .08 2.99.08 2.38 0 5.05-.25 7.93-.73.24-.04.41-.27.37-.52a.457.457 0 00-.52-.36zM.89 108.49c0-.8.05-1.62.15-2.45a.45.45 0 00-.39-.5.45.45 0 00-.5.39c-.1.87-.15 1.72-.15 2.56 0 2.96.64 5.74 1.91 8.24.08.16.24.25.4.25a.449.449 0 00.4-.65C1.5 113.94.9 111.31.89 108.49zm79.54 3.77c-2.93 2.04-6.01 3.97-9.16 5.74-.22.12-.29.39-.17.61.08.15.23.23.39.23.07 0 .15-.02.22-.06 3.18-1.78 6.29-3.73 9.24-5.79.2-.14.25-.42.11-.62a.461.461 0 00-.63-.11zm-12.33 7.45c-3.22 1.67-6.53 3.19-9.83 4.5-.23.09-.34.35-.25.58a.457.457 0 00.59.25c3.33-1.33 6.67-2.86 9.91-4.54.22-.11.3-.38.19-.6a.472.472 0 00-.61-.19zm-13.21 5.78c-3.55 1.27-7.03 2.29-10.36 3.04-.24.05-.39.29-.34.53.05.21.23.35.44.35.03 0 .07 0 .1-.01 3.37-.75 6.89-1.79 10.47-3.07a.45.45 0 00.27-.57.46.46 0 00-.58-.27zm-19.21-64.5a.448.448 0 00-.63-.09c-2.9 2.19-5.74 4.5-8.44 6.87a.445.445 0 00.3.78c.1 0 .21-.04.29-.11 2.68-2.35 5.5-4.65 8.39-6.82.2-.15.24-.43.09-.63zM74.46 4.53c3.66.78 7.17 1.74 10.42 2.85.05.02.1.02.15.02a.447.447 0 00.14-.87c-3.29-1.13-6.83-2.1-10.52-2.88a.44.44 0 00-.53.35c-.06.24.1.47.34.53zm1.5 34.31a.453.453 0 00.58.25c3.3-1.29 6.72-2.53 10.18-3.69a.45.45 0 00.28-.57.45.45 0 00-.57-.28 222.88 222.88 0 00-10.22 3.7c-.23.1-.34.36-.25.59zM88.25 8.63c3.5 1.4 6.74 3.02 9.62 4.82.07.05.16.07.24.07a.451.451 0 00.24-.83c-2.93-1.83-6.21-3.48-9.76-4.9-.24-.08-.5.03-.59.26s.02.49.25.58zM1.16 102.87c.04.01.08.01.11.01.2 0 .38-.13.43-.33.81-3.09 2.23-6.39 4.24-9.82.12-.21.05-.49-.16-.61a.443.443 0 00-.61.16c-2.05 3.5-3.5 6.87-4.33 10.04-.06.24.08.49.32.55zM108.62 22.8c.09.11.22.17.35.17.1 0 .2-.03.28-.1.19-.16.22-.44.07-.63-2.22-2.74-4.89-5.26-7.95-7.5a.45.45 0 10-.53.73c2.99 2.18 5.61 4.65 7.78 7.33zM89.59 33.99c.06.19.24.31.43.31.04 0 .09-.01.14-.02 3.37-1.07 6.87-2.09 10.39-3.04.24-.06.38-.31.32-.55a.451.451 0 00-.55-.32 245.9 245.9 0 00-10.43 3.05c-.25.09-.38.34-.3.57zM16.53 78.62c.12 0 .24-.05.33-.14 1.35-1.45 2.79-2.93 4.3-4.42 1.1-1.08 2.23-2.16 3.37-3.21.18-.17.19-.45.03-.63a.454.454 0 00-.63-.03c-1.14 1.06-2.28 2.14-3.39 3.22-1.52 1.49-2.98 2.99-4.33 4.45-.17.18-.16.46.02.63.08.09.19.13.3.13zm21.7-19.05c.09 0 .18-.03.26-.08 2.89-2.08 5.92-4.09 9-6 .21-.13.27-.41.15-.62a.454.454 0 00-.62-.15c-3.1 1.92-6.14 3.95-9.05 6.03-.2.14-.25.42-.1.62.09.13.22.2.36.2zm11.74-8.11c.08.14.23.22.39.22.08 0 .16-.02.23-.06 3.06-1.8 6.25-3.54 9.5-5.18.22-.11.31-.38.2-.6a.449.449 0 00-.6-.2c-3.26 1.65-6.47 3.4-9.54 5.21-.24.13-.31.4-.18.61zM60.18 2.48c3.65.29 7.26.75 10.74 1.36.03 0 .05.01.08.01a.449.449 0 00.08-.89c-3.51-.62-7.15-1.08-10.82-1.37a.447.447 0 00-.48.41c-.03.24.16.46.4.48zm2.53 42.15a.45.45 0 00.59.21c3.19-1.53 6.51-3.02 9.88-4.41.23-.09.34-.36.24-.58a.437.437 0 00-.58-.24c-3.38 1.4-6.73 2.89-9.93 4.43-.21.1-.31.37-.2.59zm196.02-25.62h-10.86c-.25 0-.45.2-.45.45s.2.45.45.45h10.86c.25 0 .45-.2.45-.45s-.21-.45-.45-.45zm28.97.01h-10.86c-.25 0-.45.2-.45.45s.2.45.45.45h10.86c.25 0 .45-.2.45-.45s-.21-.45-.45-.45zm-14.49-.01h-10.86c-.25 0-.45.2-.45.45s.2.45.45.45h10.86c.25 0 .45-.2.45-.45s-.2-.45-.45-.45zm-57.94 0h-10.88c-.25 0-.45.2-.45.45s.2.45.45.45h10.88c.25 0 .45-.2.45-.45s-.21-.45-.45-.45zm28.97 0h-10.86c-.25 0-.45.2-.45.45s.2.45.45.45h10.86c.25 0 .45-.2.45-.45s-.2-.45-.45-.45zm-14.48 0h-10.87c-.25 0-.45.2-.45.45s.2.45.45.45h10.87c.25 0 .45-.2.45-.45s-.21-.45-.45-.45zM109.7 80.33a.445.445 0 00-.6.19c-1.62 3.14-3.5 6.24-5.6 9.21a.448.448 0 00.37.7c.14 0 .28-.07.37-.19 2.12-3 4.03-6.13 5.66-9.31.1-.22.02-.49-.2-.6zm221.45-61.31h-10.86c-.25 0-.45.2-.45.45s.2.45.45.45h10.86c.25 0 .45-.2.45-.45s-.2-.45-.45-.45zm-14.48 0h-10.86c-.25 0-.45.2-.45.45s.2.45.45.45h10.86c.25 0 .45-.2.45-.45s-.2-.45-.45-.45zm-14.48 0h-10.87c-.25 0-.44.2-.44.45s.2.45.45.45h10.86c.25 0 .45-.2.45-.45s-.21-.45-.45-.45zm43.45 0h-10.86c-.25 0-.45.2-.45.45s.2.45.45.45h10.86c.25 0 .45-.2.45-.45s-.21-.45-.45-.45zM114.92 66.87a.442.442 0 00-.55.31c-.97 3.43-2.22 6.83-3.7 10.11a.448.448 0 00.4.63c.17 0 .33-.1.41-.26a72.15 72.15 0 003.75-10.23.46.46 0 00-.31-.56zm13.71-42.54c-3.62.6-7.21 1.25-10.69 1.94a.45.45 0 00.09.89c.03 0 .06 0 .09-.01 3.46-.69 7.05-1.34 10.66-1.94a.446.446 0 10-.15-.88zm-11.3 28.32c-.24-.03-.46.17-.48.41-.27 3.59-.81 7.17-1.6 10.64a.454.454 0 00.44.55c.2 0 .39-.14.44-.35.8-3.51 1.34-7.14 1.62-10.77.01-.25-.18-.47-.42-.48zm-1.65-16.99a.447.447 0 00.43-.58c-.73-2.41-1.68-4.73-2.85-6.92.44-.1.89-.19 1.33-.29.24-.05.4-.29.34-.53a.439.439 0 00-.53-.34c-.53.11-1.06.23-1.59.34-.42-.74-.86-1.46-1.33-2.16a.45.45 0 00-.62-.13.45.45 0 00-.13.62c.4.61.79 1.24 1.16 1.87-2.74.61-5.45 1.25-8.08 1.92-.24.06-.38.3-.32.54.06.24.31.38.54.32 2.71-.69 5.49-1.35 8.31-1.97 1.19 2.2 2.17 4.54 2.9 6.97.07.21.24.34.44.34zm27.29-13.38c-3.64.45-7.26.95-10.76 1.48a.45.45 0 00.07.89c.02 0 .05 0 .07-.01 3.49-.54 7.1-1.03 10.73-1.48a.443.443 0 10-.11-.88zm-26.5 15.99c-.24.05-.4.29-.35.53.61 2.96.92 6.12.92 9.41 0 .42 0 .84-.02 1.27-.01.25.19.45.44.46h.01c.24 0 .44-.19.45-.44.01-.43.02-.86.02-1.29 0-3.35-.32-6.57-.94-9.59a.45.45 0 00-.53-.35zm69.82-19.08c-3.66.09-7.31.23-10.85.39a.45.45 0 00.02.9h.02c3.54-.17 7.18-.3 10.83-.39.25-.01.44-.21.44-.46a.475.475 0 00-.46-.44zm-14.47.58c-3.65.2-7.29.44-10.84.71-.25.02-.43.23-.41.48.02.23.21.41.45.41h.04c3.54-.28 7.18-.51 10.82-.71.25-.01.44-.22.42-.47a.455.455 0 00-.48-.42zm-14.45 1.01c-3.65.32-7.29.68-10.81 1.08a.44.44 0 00-.39.49c.03.23.22.4.44.4h.05a382 382 0 0110.78-1.07c.25-.02.43-.24.41-.48a.437.437 0 00-.48-.42zm43.39-1.77c-3.66 0-7.31.04-10.86.1-.25 0-.44.21-.44.46 0 .24.2.44.45.44h.01c3.54-.07 7.19-.1 10.84-.1.25 0 .45-.2.45-.45s-.2-.45-.45-.45zM51.35 3.36c.77-.01 1.41-.53 1.6-1.24 1.01.02 2.23.05 3.64.12h.02c.24 0 .43-.19.45-.43a.447.447 0 00-.42-.47c-1.42-.07-2.67-.1-3.68-.12-.21-.7-.86-1.23-1.63-1.22-.93.01-1.68.76-1.67 1.69 0 .93.76 1.68 1.69 1.67zm329.03 9.53c-2.97.07-5.2-.38-6.59-.37-1.42.02-6.18.18-7.65-.05-1.24-.19-1.96.37-3.81.56-1.99.21-4.29 1.21-4.52 1.31-.15.07-.37 0-.42-.14-.09-.25-.18-.64-.76-.66 0 0-.5-.01-2.33 0-1.74.02-1.89 1.57-1.92 5.47h-3.14c-.25 0-.45.2-.45.45s.2.45.45.45h3.13c0 4.23.73 5.57 1.66 5.57h2.6c.7-.02.6-.84.73-1.12.07-.15.33-.28.55-.15 2.55 1.49 5.03.82 7.19.43 1.74-.32 2.32-.22 3.31.03 1.15.3 2.17-.44 1.94-1.63 1.78.3 2.64-1.89 2.27-2.5l.6-.03c1.34-.08 2.19-2.88.73-3.61-1-.45-1.03-.65-1.72-.81 1.27-.13 1.75 0 2.18-.03.95-.07 2.29-.21 3.51-.06.69.09.76-.16 2.78-.04 2.52.15 2.51-3.13-.32-3.07z" fill="#fff"/></g></switch></svg>