<svg version="1.1" id="Layer_1" xmlns="http://www.w3.org/2000/svg" x="0" y="0" viewBox="0 0 26.64 26.64" xml:space="preserve"><style>.st0{fill:#fff}</style><switch><g><path class="st0" d="M16.12 7.34h-5.6c-1.69 0-3.07 1.38-3.07 3.07v5.81c0 1.69 1.38 3.07 3.07 3.07h5.6c1.69 0 3.07-1.38 3.07-3.07v-5.81c0-1.69-1.38-3.07-3.07-3.07zm-2.8 10.23c-2.35 0-4.25-1.9-4.25-4.25s1.9-4.25 4.25-4.25 4.25 1.9 4.25 4.25-1.91 4.25-4.25 4.25z"/><path class="st0" d="M13.32 14.35c.26 0 .48-.09.66-.28.18-.18.28-.41.28-.66V11.9a.87.87 0 00-.28-.66.924.924 0 00-.66-.28.87.87 0 00-.66.28c-.18.18-.28.41-.28.66v1.51c0 .26.09.48.28.66s.4.28.66.28z"/><path class="st0" d="M14.96 12.9a.176.176 0 00-.13-.06c-.05 0-.1.02-.13.06-.04.04-.06.08-.06.13v.38c0 .36-.13.67-.39.93s-.57.39-.93.39c-.36 0-.67-.13-.93-.39a1.27 1.27 0 01-.39-.93v-.38c0-.05-.02-.1-.06-.13a.176.176 0 00-.13-.06c-.05 0-.1.02-.13.06-.04.04-.06.08-.06.13v.38c0 .43.14.81.43 1.13.29.32.65.5 1.07.55v.39h-.75c-.05 0-.1.02-.13.06-.04.04-.06.08-.06.13s.02.1.06.13c.04.04.08.06.13.06h1.88c.05 0 .1-.02.13-.06.04-.04.06-.08.06-.13s-.02-.1-.06-.13a.176.176 0 00-.13-.06h-.75v-.39c.43-.05.78-.23 1.07-.55.29-.32.43-.7.43-1.13v-.38c.01-.05-.01-.09-.04-.13z"/><path class="st0" d="M16.76 20.64H9.87c-2.14 0-3.88-1.74-3.88-3.88V9.87c0-2.14 1.74-3.88 3.88-3.88h6.89c2.14 0 3.88 1.74 3.88 3.88v6.89c0 2.14-1.74 3.88-3.88 3.88zM9.87 6.34c-1.95 0-3.54 1.59-3.54 3.54v6.89c0 1.95 1.59 3.53 3.54 3.53h6.89c1.95 0 3.54-1.59 3.54-3.53v-6.9c0-1.95-1.59-3.54-3.54-3.54H9.87z"/><path class="st0" d="M17.02 22.1H9.61c-2.8 0-5.08-2.28-5.08-5.08V9.61c0-2.8 2.28-5.08 5.08-5.08h7.41c2.8 0 5.08 2.28 5.08 5.08v7.41c0 2.8-2.28 5.08-5.08 5.08zM9.61 4.88a4.74 4.74 0 00-4.73 4.73v7.41c0 2.61 2.12 4.73 4.73 4.73h7.41c2.61 0 4.73-2.12 4.73-4.73V9.61c0-2.61-2.12-4.73-4.73-4.73H9.61z"/><path class="st0" d="M17.28 23.56H9.36a6.29 6.29 0 01-6.28-6.28V9.36a6.29 6.29 0 016.28-6.28h7.92a6.29 6.29 0 016.28 6.28v7.92c-.01 3.46-2.82 6.28-6.28 6.28zM9.36 3.43c-3.27 0-5.93 2.66-5.93 5.93v7.92c0 3.27 2.66 5.93 5.93 5.93h7.92c3.27 0 5.93-2.66 5.93-5.93V9.36c0-3.27-2.66-5.93-5.93-5.93H9.36z"/><path class="st0" d="M17.88 0H8.75C3.93 0 0 3.93 0 8.75v9.13c0 4.83 3.93 8.75 8.75 8.75h9.13c4.83 0 8.75-3.93 8.75-8.75V8.75C26.64 3.93 22.71 0 17.88 0zm-.34 24.59H9.1c-3.89 0-7.05-3.16-7.05-7.05V9.1c0-3.89 3.16-7.05 7.05-7.05h8.44c3.89 0 7.05 3.16 7.05 7.05v8.44c-.01 3.88-3.17 7.05-7.05 7.05z"/></g></switch></svg>