<svg xmlns="http://www.w3.org/2000/svg" viewBox="0 0 225.67 431.86"><switch><g><path d="M38.87 431.86c-1.8 0-3.77-.58-5.85-1.73a.506.506 0 01-.2-.68c.13-.24.44-.33.68-.2 5.04 2.78 8.98 1.98 12.35-2.55.16-.22.48-.27.7-.1.22.17.27.48.1.7-2.27 3.07-4.81 4.56-7.78 4.56zm-9.7-4.5c-.11 0-.22-.04-.32-.11-3.08-2.54-6.56-6.23-10.34-10.97a.495.495 0 01.08-.7c.22-.17.53-.14.7.08 3.73 4.69 7.16 8.33 10.19 10.82.21.17.24.49.07.7-.1.11-.24.18-.38.18zm19.61-4.14c-.07 0-.15-.02-.21-.05a.513.513 0 01-.24-.67c1.66-3.47 3.19-8.09 4.7-14.13.07-.27.34-.43.61-.36.27.07.43.34.36.61-1.52 6.1-3.08 10.79-4.76 14.31a.5.5 0 01-.46.29zM15.86 412.5c-.15 0-.3-.07-.4-.2-2.66-3.57-5.54-7.72-8.56-12.35a.498.498 0 01.83-.55c3.01 4.61 5.88 8.74 8.53 12.3.17.22.12.54-.1.7-.09.07-.2.1-.3.1zm38.8-8.37c-.04 0-.07 0-.11-.01a.503.503 0 01-.38-.6c.9-4.07 1.82-8.75 2.89-14.72a.499.499 0 01.98.18c-1.08 5.98-2 10.67-2.9 14.76-.05.23-.25.39-.48.39zm-50.05-8.16c-.17 0-.33-.08-.42-.23-1.33-2.1-2.7-4.3-4.11-6.6a.504.504 0 01.17-.69c.24-.14.54-.07.69.17 1.41 2.3 2.77 4.49 4.1 6.59a.5.5 0 01-.15.69.61.61 0 01-.28.07zm53.82-11.51c-.03 0-.06 0-.09-.01a.514.514 0 01-.41-.58c.55-3.17 1.11-6.44 1.68-9.8l.85-5a.5.5 0 01.58-.41c.27.05.46.31.41.58l-.85 4.99c-.57 3.36-1.13 6.64-1.68 9.81-.04.25-.26.42-.49.42zm143.08-13.82a.5.5 0 01-.5-.49.49.49 0 01.49-.51c5.68-.17 10.37-1.5 13.95-3.95.23-.16.54-.1.69.13.16.23.1.54-.13.69-3.74 2.56-8.61 3.95-14.49 4.12 0 .01 0 .01-.01.01zm-4.99-.12h-.04c-4.42-.33-9.41-1.23-14.83-2.67a.496.496 0 11.26-.96c5.36 1.43 10.29 2.32 14.64 2.64.28.02.48.26.46.54-.01.25-.23.45-.49.45zm-19.54-4.05c-.05 0-.1-.01-.15-.02-4.4-1.37-9.16-3.09-14.14-5.12-.26-.1-.38-.4-.27-.65.1-.26.4-.38.65-.27 4.95 2.02 9.68 3.73 14.06 5.09.26.08.41.36.33.63-.07.21-.26.34-.48.34zm-115.17-1.74c-.03 0-.06 0-.09-.01a.514.514 0 01-.41-.58c.98-5.64 1.83-10.34 2.67-14.78.05-.27.32-.45.58-.4.27.05.45.31.4.58-.84 4.44-1.69 9.14-2.67 14.77-.03.25-.24.42-.48.42zm157.62-1.46a.505.505 0 01-.38-.83c2.81-3.33 4.59-7.87 5.29-13.5.03-.27.27-.47.56-.43.27.03.47.28.43.56-.72 5.83-2.58 10.54-5.52 14.02-.1.12-.24.18-.38.18zm-61.15-3.84c-.07 0-.13-.01-.2-.04-4.31-1.87-8.9-4-13.62-6.33a.5.5 0 11.44-.9c4.71 2.33 9.28 4.45 13.58 6.31a.5.5 0 01-.2.96zm-18.07-8.57c-.08 0-.15-.02-.23-.05-4.24-2.16-8.7-4.54-13.25-7.06a.506.506 0 01-.2-.68c.13-.24.44-.33.68-.2 4.55 2.52 8.99 4.89 13.22 7.04.25.13.34.43.22.67-.08.19-.26.28-.44.28zm-74.78-5.82c-.03 0-.06 0-.1-.01a.495.495 0 01-.39-.59c1.03-5.24 2.04-10.05 3.09-14.71a.503.503 0 01.98.22c-1.05 4.64-2.06 9.44-3.09 14.68a.51.51 0 01-.49.41zm159.74-.51c-.01 0-.01 0 0 0-.29 0-.5-.23-.5-.51.01-.33.01-.65.01-.98 0-4.13-.45-8.79-1.35-13.85-.05-.27.13-.53.41-.58.26-.05.53.13.58.41.9 5.11 1.36 9.83 1.36 14.02 0 .34 0 .67-.01 1-.01.27-.23.49-.5.49zm-102.54-3.19c-.09 0-.17-.02-.25-.07-4.25-2.52-8.46-5.32-12.51-8.32a.496.496 0 01-.1-.7c.16-.22.48-.27.7-.1 4.02 2.98 8.2 5.76 12.42 8.26.24.14.32.45.18.69-.1.15-.27.24-.44.24zm-16.42-11.32a.51.51 0 01-.31-.11c-3.85-3.06-7.66-6.4-11.32-9.91a.495.495 0 01-.01-.71c.19-.2.51-.21.71-.01 3.63 3.49 7.42 6.8 11.25 9.85.22.17.25.49.08.7-.11.12-.25.19-.4.19zm-36.56-4.55c-.04 0-.08 0-.12-.01a.497.497 0 01-.37-.6c1.21-5.07 2.48-9.96 3.77-14.55a.502.502 0 11.97.27c-1.29 4.58-2.56 9.46-3.76 14.51-.06.23-.26.38-.49.38zm153.2-.78c-.23 0-.44-.16-.49-.39-.99-4.5-2.3-9.36-3.91-14.45-.08-.26.06-.54.33-.63.26-.08.54.06.63.33 1.62 5.12 2.94 10.01 3.93 14.53.06.27-.11.54-.38.6-.04.01-.08.01-.11.01zm-131.47-8.07c-.13 0-.26-.05-.36-.15a181.33 181.33 0 01-10.07-11.15.493.493 0 01.06-.7c.21-.18.53-.15.7.06 3.23 3.89 6.6 7.62 10.01 11.09.19.2.19.51-.01.71-.08.1-.21.14-.33.14zm-16.56-10.49a.59.59 0 01-.14-.02.514.514 0 01-.34-.62c.61-2.05 1.25-4.07 1.89-6.06-2.5-3.24-4.96-6.63-7.33-10.11a.5.5 0 01.13-.7c.23-.15.54-.1.69.13 2.23 3.27 4.54 6.46 6.88 9.52.8-2.42 1.61-4.78 2.45-7.07a.501.501 0 01.94.34c-.9 2.48-1.79 5.05-2.65 7.69.41.53.82 1.06 1.23 1.58.17.22.13.53-.08.7-.22.17-.53.13-.7-.08-.27-.35-.55-.7-.82-1.05-.57 1.77-1.13 3.57-1.67 5.39a.51.51 0 01-.48.36zm142.54-.68c-.21 0-.4-.13-.47-.34-1.53-4.48-3.29-9.2-5.24-14.04-.1-.26.02-.55.28-.65.26-.1.55.02.65.28 1.96 4.85 3.73 9.6 5.26 14.09.09.26-.05.54-.31.63-.06.02-.12.03-.17.03zM81.28 287.21c-.06 0-.12-.01-.18-.03a.498.498 0 01-.28-.65c1.88-4.83 3.88-9.47 5.97-13.81a.5.5 0 11.9.44c-2.07 4.31-4.07 8.93-5.93 13.73a.53.53 0 01-.48.32zm128.92-.45c-.2 0-.38-.12-.46-.31-1.84-4.39-3.84-8.87-6.09-13.71a.49.49 0 01.24-.66c.25-.11.55-.01.66.24 2.26 4.85 4.26 9.35 6.11 13.74a.503.503 0 01-.46.7zm-143.66-1.38c-.16 0-.32-.08-.42-.23-2.67-4.1-5.3-8.42-7.82-12.83a.494.494 0 01.19-.68c.24-.14.54-.05.68.19 2.51 4.4 5.13 8.7 7.79 12.78.15.23.09.54-.15.69a.53.53 0 01-.27.08zm22.92-16.41c-.08 0-.16-.02-.23-.06a.49.49 0 01-.21-.67c1.43-2.77 2.94-5.48 4.47-8.04 1.02-1.7 2.05-3.37 3.08-4.96a.5.5 0 01.69-.15c.23.15.3.46.15.69a156.99 156.99 0 00-3.06 4.94c-1.52 2.55-3.02 5.24-4.44 7.99-.09.16-.27.26-.45.26zm112.51-.47c-.19 0-.37-.11-.45-.29l-.17-.36c-1.03-2.18-3.35-6.72-7.26-12.6a.498.498 0 01.83-.55c3.95 5.93 6.29 10.52 7.33 12.73l.17.36c.12.25.01.55-.24.67-.06.02-.14.04-.21.04zm-145.67-.29a.49.49 0 01-.44-.26c-2.35-4.3-4.65-8.8-6.86-13.38a.5.5 0 11.9-.44c2.2 4.56 4.5 9.05 6.83 13.33.13.24.04.55-.2.68a.39.39 0 01-.23.07zm43.46-16.37c-.1 0-.2-.03-.28-.09a.51.51 0 01-.13-.7c3.04-4.39 6.16-8.38 9.27-11.85.19-.21.5-.22.71-.04.21.18.22.5.04.71-3.09 3.44-6.18 7.39-9.19 11.75-.11.14-.26.22-.42.22zm91.89-.47c-.15 0-.31-.07-.4-.21-3.03-4.18-6.25-8.04-9.54-11.49-.19-.2-.18-.52.02-.71.2-.19.51-.18.71.02 3.33 3.48 6.57 7.38 9.63 11.59.16.22.11.54-.11.7-.11.06-.21.1-.31.1zm-144.33-1.04c-.19 0-.37-.11-.45-.29a337.69 337.69 0 01-6.01-13.78c-.1-.26.02-.55.27-.65.25-.1.55.02.65.27 1.92 4.69 3.94 9.31 5.99 13.74.12.25.01.55-.24.66-.07.04-.14.05-.21.05zm65.11-13.92a.47.47 0 01-.35-.15.513.513 0 010-.71c3.84-3.83 7.8-7 11.75-9.44.24-.15.54-.07.69.16.14.24.07.54-.16.69-3.89 2.4-7.78 5.53-11.57 9.3-.1.1-.23.15-.36.15zm66.07-.1c-.12 0-.25-.04-.34-.14-3.88-3.63-7.85-6.67-11.81-9.04a.502.502 0 11.52-.86c4.02 2.41 8.05 5.49 11.98 9.17a.504.504 0 01-.35.87zm-139.05-4.38c-.2 0-.39-.12-.46-.32-1.8-4.56-3.57-9.3-5.25-14.08-.09-.26.05-.55.31-.64.26-.09.55.04.64.31 1.68 4.77 3.44 9.5 5.24 14.05.1.26-.02.55-.28.65-.08.02-.14.03-.2.03zm122.75-7.1c-.07 0-.15-.02-.21-.05-4.72-2.25-9.49-3.58-14.18-3.96a.497.497 0 01-.46-.54.51.51 0 01.54-.46c4.81.39 9.7 1.75 14.53 4.06.25.12.35.42.24.67-.09.18-.27.28-.46.28zm-33.73-.2a.5.5 0 01-.22-.95c4.78-2.3 9.68-3.62 14.57-3.91.28-.01.51.19.53.47.02.28-.19.51-.47.53-4.76.29-9.54 1.57-14.2 3.81-.06.04-.14.05-.21.05zm-95.9-11.51c-.21 0-.4-.13-.47-.34-1.57-4.65-3.12-9.47-4.58-14.32a.5.5 0 01.33-.62c.27-.08.54.07.62.33 1.46 4.84 3 9.65 4.58 14.29.09.26-.05.55-.31.63-.06.02-.12.03-.17.03zm-6-19.1c-.22 0-.42-.14-.48-.36a540.68 540.68 0 01-3.98-14.47c-.07-.27.09-.54.36-.61.27-.07.54.09.61.36a503.5 503.5 0 003.97 14.44.501.501 0 01-.48.64zm-5.21-19.29a.49.49 0 01-.48-.38c-1.19-4.78-2.36-9.7-3.45-14.63a.503.503 0 01.98-.22c1.09 4.92 2.25 9.83 3.45 14.61.07.27-.1.54-.36.61-.06.01-.1.01-.14.01zm-4.52-19.5c-.23 0-.44-.16-.49-.4a650.35 650.35 0 01-2.97-14.74.499.499 0 01.98-.18c.94 4.95 1.93 9.9 2.96 14.71.06.27-.11.54-.38.59-.03.01-.06.02-.1.02zm-3.87-19.65c-.24 0-.45-.17-.49-.41-.88-4.86-1.73-9.85-2.52-14.82-.04-.27.14-.53.42-.57.28-.05.53.14.57.42.79 4.97 1.64 9.95 2.52 14.8.05.27-.13.53-.4.58h-.1zm-3.29-19.75c-.24 0-.46-.18-.49-.42-.74-4.88-1.45-9.89-2.11-14.89-.04-.27.16-.52.43-.56.27-.04.52.16.56.43a719.1 719.1 0 002.11 14.87c.04.27-.15.53-.42.57-.03-.01-.05 0-.08 0zM6.94 95.98c-.25 0-.46-.19-.5-.44-.61-4.92-1.19-9.95-1.72-14.94-.03-.27.17-.52.44-.55.28-.03.52.17.55.44.53 4.98 1.1 10 1.72 14.92.04.29-.16.54-.43.57h-.06zm-2.23-19.9c-.25 0-.47-.19-.5-.45-.49-4.96-.95-10.01-1.35-14.98-.02-.27.18-.52.46-.54.29-.02.52.18.54.46.4 4.97.85 10 1.35 14.96.03.27-.17.52-.45.55-.02-.01-.03 0-.05 0zM2.97 56.11c-.26 0-.48-.2-.5-.46-.37-5-.7-10.05-.98-15.02-.02-.28.2-.51.47-.53.27-.02.51.2.53.47.28 4.96.61 10 .98 15 .02.28-.19.52-.46.54h-.04zM1.73 36.1c-.26 0-.49-.21-.5-.48-.25-5.08-.45-10.14-.6-15.04a.49.49 0 01.49-.51c.25 0 .51.21.51.49.14 4.89.35 9.95.6 15.02.01.28-.2.51-.47.52h-.03zM1 16.05c-.27 0-.49-.22-.5-.49C.38 10.38.36 6.4.36 3.99.36 1.71.38.5.38.5.39.22.64 0 .89 0c.28 0 .5.23.49.51 0 0-.02 1.21-.02 3.48 0 2.41.02 6.38.14 11.56.01.28-.21.5-.49.51 0-.01-.01-.01-.01-.01z" fill="#fff"/></g></switch></svg>