<svg xmlns="http://www.w3.org/2000/svg" viewBox="0 0 157.11 300.48"><switch><g><path d="M27.13 300.48c-2.26 0-4.77-1.24-7.69-3.79a.436.436 0 01-.04-.63c.16-.19.44-.21.63-.04 3.65 3.19 6.66 4.25 9.1 3.13.23-.1.49 0 .59.22.1.22 0 .49-.22.59-.74.35-1.54.52-2.37.52zm4.89-2.7c-.1 0-.2-.03-.28-.1a.455.455 0 01-.07-.63c1.57-1.96 2.97-5.1 4.28-9.58a.44.44 0 01.55-.3c.24.07.37.32.3.56-1.34 4.59-2.8 7.83-4.44 9.89-.08.1-.21.16-.34.16zm-14.85-3.46c-.12 0-.24-.05-.32-.14-2.06-2.17-4.36-4.98-6.82-8.35a.45.45 0 11.73-.53c2.44 3.34 4.71 6.12 6.75 8.26.17.18.16.46-.02.63-.1.09-.21.13-.32.13zm20.14-9.73c-.04 0-.07 0-.11-.01a.447.447 0 01-.33-.54c.72-2.89 1.43-6.22 2.23-10.49.04-.24.28-.4.52-.36.24.05.4.28.36.52-.81 4.29-1.52 7.63-2.24 10.54-.05.2-.23.34-.43.34zm-29-1.49a.47.47 0 01-.37-.19c-1.84-2.65-3.83-5.67-5.9-8.99a.451.451 0 01.14-.62c.21-.13.49-.07.62.14 2.07 3.3 4.05 6.31 5.88 8.95.14.2.09.48-.11.62-.08.06-.17.09-.26.09zM.54 271.08c-.15 0-.3-.08-.38-.21l-.09-.14a.454.454 0 01.15-.62.44.44 0 01.61.15l.09.14c.13.21.06.49-.15.62-.07.04-.15.06-.23.06zm39.65-.53c-.03 0-.05 0-.08-.01a.452.452 0 01-.36-.52c.56-3.14 1.13-6.46 1.71-9.9l.12-.69c.04-.24.27-.41.52-.37.24.04.41.27.37.52l-.12.69c-.59 3.45-1.15 6.76-1.72 9.91-.04.22-.23.37-.44.37zm99.1-12.62c-1.28 0-2.65-.08-4.07-.24a.454.454 0 01-.4-.49c.03-.25.25-.42.49-.4 1.39.15 2.73.23 3.97.23h.02c2.4 0 4.58-.28 6.47-.84.24-.07.49.06.56.3.07.24-.06.49-.3.56-1.97.58-4.23.88-6.72.88h-.02zm-7.56-.76c-.03 0-.05 0-.08-.01-3.17-.58-6.68-1.51-10.43-2.75a.45.45 0 01-.28-.57.45.45 0 01.57-.28c3.71 1.23 7.18 2.15 10.31 2.72.24.04.4.28.36.52-.05.22-.24.37-.45.37zm-89.1-.74c-.02 0-.05 0-.08-.01a.454.454 0 01-.37-.52c.49-2.86 1.15-6.64 1.88-10.59.04-.24.28-.41.52-.36.24.04.4.28.36.52-.73 3.94-1.38 7.72-1.87 10.58-.04.23-.23.38-.44.38zm106.56-.75c-.16 0-.31-.08-.39-.22a.446.446 0 01.17-.61c2.94-1.69 5.01-4.4 6.16-8.05.07-.24.32-.37.56-.29.24.07.37.32.29.56-1.21 3.88-3.42 6.76-6.56 8.56-.08.03-.15.05-.23.05zm-31.21-2.42c-.05 0-.1-.01-.15-.03-3.12-1.14-6.47-2.51-9.96-4.08-.23-.1-.33-.37-.23-.59s.37-.33.59-.23c3.47 1.55 6.8 2.92 9.9 4.05.23.08.35.34.27.57-.06.19-.23.31-.42.31zm-13.18-5.56c-.06 0-.13-.01-.19-.04-3.07-1.44-6.31-3.05-9.63-4.79a.445.445 0 11.41-.79c3.31 1.73 6.53 3.33 9.59 4.77.22.11.32.37.21.6a.42.42 0 01-.39.25zm51.54-3.82h-.07a.458.458 0 01-.38-.51c.22-1.46.33-3.06.33-4.75 0-1.81-.13-3.77-.37-5.84a.45.45 0 01.39-.5c.23-.03.47.15.5.39.25 2.1.38 4.1.38 5.94 0 1.74-.11 3.38-.34 4.88-.04.23-.23.39-.44.39zm-111.18-1.55c-.03 0-.06 0-.08-.01a.457.457 0 01-.36-.52c.73-3.79 1.43-7.23 2.16-10.54.05-.24.29-.4.53-.34.24.05.39.29.34.53-.73 3.3-1.43 6.74-2.15 10.51-.04.22-.23.37-.44.37zm46.87-1.08c-.07 0-.14-.02-.21-.05-1.46-.79-2.96-1.61-4.49-2.46a91.13 91.13 0 01-4.85-2.89.451.451 0 01-.14-.62c.13-.21.41-.27.62-.14 1.57 1 3.19 1.96 4.81 2.87 1.52.85 3.01 1.67 4.47 2.45a.447.447 0 01-.21.84zm-12.29-7.3c-.09 0-.18-.03-.25-.08-2.9-1.99-5.78-4.19-8.54-6.54a.445.445 0 01-.05-.63c.16-.19.44-.21.63-.05 2.74 2.32 5.58 4.51 8.46 6.48a.45.45 0 01-.25.82zm76.03-4.32c-.21 0-.4-.15-.44-.37-.55-3.2-1.38-6.7-2.44-10.4-.07-.24.07-.49.31-.55.24-.07.49.07.55.31 1.08 3.74 1.91 7.27 2.47 10.5.04.24-.12.47-.36.52-.04-.01-.07-.01-.09-.01zm-107.66-1.32c-.03 0-.07 0-.1-.01a.447.447 0 01-.33-.54c.84-3.63 1.73-7.14 2.63-10.44a.446.446 0 11.86.24c-.9 3.28-1.78 6.78-2.62 10.4-.06.21-.24.35-.44.35zm20.44-3.24c-.11 0-.21-.04-.3-.12-2.6-2.35-5.17-4.9-7.63-7.58-.17-.18-.16-.46.03-.63s.46-.16.63.03c2.45 2.66 5 5.19 7.57 7.52.18.17.2.45.03.63-.09.1-.21.15-.33.15zm83.73-9.32a.45.45 0 01-.43-.31c-1.01-3.2-2.21-6.6-3.57-10.1-.09-.23.03-.49.26-.58.23-.09.49.03.58.26 1.36 3.52 2.57 6.94 3.59 10.16a.45.45 0 01-.29.56c-.05.01-.1.01-.14.01zm-93.72-.89c-.12 0-.25-.05-.34-.15-1.54-1.77-3.07-3.62-4.56-5.53-.52 1.61-1.02 3.27-1.52 4.95-.07.24-.31.37-.55.3a.447.447 0 01-.3-.56c.55-1.89 1.12-3.74 1.71-5.55-.51-.66-1.01-1.33-1.51-2-.15-.2-.11-.48.09-.63s.48-.11.63.09c.38.5.75 1.01 1.13 1.5.41-1.25.83-2.47 1.26-3.67.08-.23.34-.36.57-.27.23.08.35.34.27.57-.49 1.37-.97 2.78-1.44 4.22 1.6 2.07 3.25 4.07 4.91 5.97.16.19.14.47-.04.63-.1.09-.21.13-.31.13zm-8.82-11.26a.47.47 0 01-.37-.19 162.41 162.41 0 01-5.91-8.99.454.454 0 01.15-.62c.21-.13.49-.06.62.15 1.89 3.09 3.87 6.1 5.88 8.94.14.2.09.48-.11.62-.08.07-.17.09-.26.09zm97.64-1.31a.43.43 0 01-.41-.28c-1.3-3.2-2.69-6.42-4.25-9.85-.1-.22 0-.49.22-.59.23-.1.49 0 .59.22 1.57 3.44 2.96 6.68 4.27 9.88.09.23-.02.49-.25.58a.38.38 0 01-.17.04zm-91.14-1.42a.451.451 0 01-.42-.61c1.32-3.46 2.73-6.8 4.21-9.91a.45.45 0 11.81.39c-1.46 3.09-2.87 6.41-4.18 9.85-.07.17-.24.28-.42.28zM42 191.56a.47.47 0 01-.39-.22c-1.77-3.03-3.51-6.2-5.17-9.44a.445.445 0 01.19-.6c.22-.12.49-.03.6.19 1.65 3.22 3.38 6.38 5.15 9.4.12.21.05.49-.16.61-.06.05-.14.06-.22.06zm99.61-2.39c-.17 0-.33-.1-.41-.26l-1.19-2.53c-.97-2.04-2.33-4.49-3.84-6.9a.451.451 0 01.14-.62c.21-.13.49-.07.62.14 1.53 2.43 2.91 4.91 3.89 6.99l1.2 2.53c.1.22.01.49-.21.59-.07.05-.14.06-.2.06zm-79.6-1.4c-.07 0-.14-.02-.2-.05a.436.436 0 01-.19-.6 108.444 108.444 0 015.37-9.34c.13-.21.41-.27.62-.14.21.13.27.41.14.62-.65 1.02-1.3 2.07-1.95 3.16-1.16 1.94-2.29 4-3.37 6.11-.1.15-.25.24-.42.24zm-26.77-8.82c-.17 0-.32-.09-.4-.25-1.54-3.14-3.06-6.42-4.51-9.77-.1-.23.01-.49.23-.59.23-.1.49 0 .59.23 1.45 3.33 2.96 6.61 4.5 9.73.11.22.02.49-.2.6-.08.03-.15.05-.21.05zm99.34-2.24a.47.47 0 01-.37-.19 79.596 79.596 0 00-6.62-8.38.444.444 0 01.03-.63c.18-.17.46-.15.63.03 2.34 2.57 4.59 5.42 6.69 8.47.14.2.09.48-.11.62a.49.49 0 01-.25.08zm-65.24-1.22c-.09 0-.18-.03-.25-.08a.46.46 0 01-.12-.62c2.17-3.16 4.4-6.02 6.64-8.5.17-.18.45-.2.63-.03s.2.45.03.63c-2.21 2.45-4.42 5.28-6.56 8.41a.47.47 0 01-.37.19zm-40.01-9.59c-.17 0-.34-.1-.41-.28-1.35-3.23-2.67-6.6-3.93-10.02-.09-.23.03-.49.26-.57.23-.09.49.03.57.26 1.26 3.4 2.58 6.76 3.92 9.98.1.23-.01.49-.24.58-.05.04-.11.05-.17.05zm96.12-.21c-.11 0-.23-.04-.31-.13-2.7-2.67-5.47-4.93-8.24-6.72a.44.44 0 01-.13-.62.44.44 0 01.62-.13c2.82 1.82 5.64 4.12 8.38 6.83.18.17.18.46 0 .63-.09.1-.21.14-.32.14zm-47.04-1.24c-.12 0-.23-.04-.32-.13a.453.453 0 010-.63c2.77-2.74 5.62-5 8.48-6.71a.44.44 0 01.61.15c.13.21.06.49-.15.61-2.79 1.67-5.59 3.88-8.31 6.57-.09.09-.2.14-.31.14zm35.64-7.34c-.07 0-.14-.02-.21-.05-3.33-1.74-6.69-2.82-10-3.22a.443.443 0 01-.39-.5c.03-.25.25-.43.5-.39 3.42.41 6.88 1.53 10.31 3.32.22.11.3.38.19.6-.09.15-.24.24-.4.24zm-24.09-.97c-.17 0-.33-.1-.41-.26-.1-.22 0-.49.22-.59 3.45-1.58 7-2.43 10.54-2.51.27 0 .45.19.46.44.01.25-.19.45-.44.46-3.42.08-6.84.9-10.19 2.43-.05.02-.12.03-.18.03zm-65.77-3.6c-.18 0-.36-.11-.42-.3-1.18-3.31-2.33-6.75-3.42-10.21a.445.445 0 11.85-.27c1.09 3.46 2.24 6.88 3.41 10.18a.45.45 0 01-.27.57c-.05.02-.1.03-.15.03zm-4.48-13.62c-.19 0-.37-.12-.43-.32-1.02-3.36-2.02-6.83-2.96-10.33-.06-.24.08-.48.31-.55.24-.07.48.08.55.31.94 3.49 1.94 6.96 2.96 10.31.07.24-.06.49-.3.56-.05.01-.09.02-.13.02zm-3.88-13.77c-.2 0-.38-.13-.43-.33-.88-3.4-1.75-6.92-2.56-10.45-.06-.24.09-.48.34-.54.24-.06.48.09.54.34.81 3.53 1.67 7.03 2.56 10.43.06.24-.08.48-.32.55-.05-.01-.09 0-.13 0zm-3.35-13.93c-.21 0-.39-.14-.44-.35-.76-3.45-1.5-7-2.2-10.54-.05-.24.11-.48.35-.52.24-.05.48.11.52.35.69 3.53 1.43 7.07 2.19 10.51.05.24-.1.48-.34.53-.01.01-.05.02-.08.02zM9.62 97.17a.45.45 0 01-.44-.36c-.65-3.46-1.28-7.03-1.86-10.6a.45.45 0 01.37-.51c.24-.04.47.13.51.37.59 3.57 1.21 7.13 1.86 10.58.05.24-.11.48-.36.52h-.08zM7.19 83.05c-.22 0-.41-.16-.44-.38-.55-3.48-1.07-7.07-1.56-10.65-.03-.24.14-.47.38-.5.25-.03.47.14.5.38.48 3.58 1.01 7.15 1.55 10.63a.45.45 0 01-.37.51c-.01.01-.04.01-.06.01zM5.17 68.86c-.22 0-.41-.16-.44-.39-.45-3.51-.88-7.11-1.27-10.69-.03-.25.15-.47.4-.49.25-.02.47.15.49.4.39 3.57.81 7.16 1.26 10.67.03.25-.14.47-.39.5h-.05zM3.53 54.62c-.23 0-.42-.17-.44-.4-.36-3.55-.7-7.16-.99-10.72-.02-.25.16-.46.41-.48.25-.02.46.16.48.41.29 3.55.63 7.16.99 10.7.03.25-.15.47-.4.49-.02-.01-.04 0-.05 0zM2.25 40.33c-.23 0-.43-.18-.45-.41-.27-3.57-.52-7.18-.72-10.75a.44.44 0 01.42-.47c.24-.02.46.17.47.42.2 3.56.45 7.17.72 10.73.02.25-.17.46-.41.48h-.03zm-.91-14.32c-.24 0-.43-.19-.45-.42C.7 21.97.56 18.35.45 14.82c-.01-.25.19-.45.43-.46.24 0 .45.19.46.43.11 3.52.26 7.13.44 10.75.02.25-.17.46-.42.47h-.02zM.8 11.67c-.24 0-.44-.19-.45-.44-.08-3.76-.1-6.62-.1-8.36C.25 1.28.26.44.26.44.26.19.47.03.72 0c.25 0 .44.21.44.46 0 0-.01.84-.01 2.42 0 1.74.02 4.59.1 8.34.01.25-.19.45-.44.46 0-.01-.01-.01-.01-.01z" fill="#fff"/></g></switch></svg>