<svg xmlns="http://www.w3.org/2000/svg" viewBox="0 0 243.02 577.8"><switch><g><path d="M130.77 577.8c-1.23 0-2.48-.05-3.71-.14a.441.441 0 01-.41-.48c.02-.25.23-.43.48-.41 3.52.27 7.09.14 10.54-.38a.449.449 0 11.13.89c-2.31.34-4.67.52-7.03.52zm-7.23-.54h-.07c-3.43-.5-6.96-1.37-10.49-2.57a.45.45 0 01-.28-.57.45.45 0 01.57-.28c3.48 1.19 6.96 2.04 10.33 2.54.24.04.41.26.38.51a.45.45 0 01-.44.37zm17.68-.65c-.2 0-.39-.14-.44-.35-.06-.24.09-.48.34-.54 3.35-.78 6.69-1.95 9.92-3.5.22-.11.49-.01.6.21.11.22.01.49-.21.6-3.29 1.57-6.69 2.77-10.1 3.56-.04.02-.07.02-.11.02zm-31.45-3.14c-.06 0-.11-.01-.17-.03-3.18-1.27-6.45-2.85-9.71-4.68a.444.444 0 01-.17-.61c.12-.22.39-.29.61-.17 3.23 1.81 6.46 3.37 9.61 4.63.23.09.34.35.25.58-.07.17-.24.28-.42.28zm44.63-2.04c-.16 0-.31-.08-.39-.23a.452.452 0 01.17-.61c2.95-1.66 5.89-3.68 8.73-6 .19-.16.47-.13.63.06s.13.47-.06.63c-2.88 2.35-5.86 4.4-8.86 6.09-.07.04-.14.06-.22.06zM97.03 567a.39.39 0 01-.23-.07c-2.92-1.79-5.92-3.82-8.91-6.05a.448.448 0 01-.09-.63c.15-.2.43-.24.63-.09 2.97 2.21 5.94 4.23 8.84 6 .21.13.28.4.15.62a.47.47 0 01-.39.22zm68.88-3.94c-.12 0-.24-.05-.33-.15a.444.444 0 01.03-.63c2.52-2.27 5.03-4.83 7.46-7.62.16-.19.45-.21.63-.04.19.16.21.44.04.63a88.94 88.94 0 01-7.53 7.7c-.08.08-.19.11-.3.11zm-80.6-4.26c-.1 0-.19-.03-.28-.1-2.7-2.12-5.47-4.46-8.22-6.94a.444.444 0 01-.03-.63c.17-.18.45-.2.63-.03 2.74 2.47 5.49 4.79 8.18 6.9.19.15.23.43.08.63-.1.11-.23.17-.36.17zm90.4-6.13a.446.446 0 01-.34-.73c2.15-2.64 4.29-5.53 6.36-8.6.14-.21.42-.26.62-.12s.26.42.12.62c-2.09 3.09-4.25 6-6.41 8.66-.09.11-.22.17-.35.17zm-101.23-3.21c-.11 0-.22-.04-.31-.12-.94-.88-1.9-1.79-2.85-2.72-1.65-1.61-3.27-3.2-4.85-4.78a.444.444 0 010-.63c.17-.17.46-.17.63 0 1.58 1.58 3.19 3.17 4.84 4.77.95.93 1.9 1.83 2.84 2.71a.444.444 0 01-.3.77zm109.58-8.41a.42.42 0 01-.24-.07.44.44 0 01-.13-.62c1.85-2.88 3.7-5.98 5.49-9.21.12-.22.39-.3.61-.17.22.12.29.39.17.61-1.8 3.24-3.66 6.36-5.52 9.25-.09.14-.23.21-.38.21zm-119.79-1.62c-.12 0-.23-.04-.32-.13-2.55-2.58-5.06-5.19-7.46-7.73a.444.444 0 01.02-.63c.18-.17.46-.16.63.02 2.4 2.54 4.9 5.13 7.45 7.71.17.18.17.46 0 .63-.1.09-.21.13-.32.13zm-9.9-10.33a.47.47 0 01-.33-.14c-2.47-2.66-4.89-5.34-7.21-7.97a.444.444 0 01.04-.63c.19-.16.47-.14.63.04 2.31 2.62 4.72 5.3 7.19 7.95a.444.444 0 01-.32.75zm136.91-.43c-.07 0-.14-.02-.21-.05a.438.438 0 01-.18-.6c1.62-3.04 3.23-6.27 4.8-9.6.1-.22.37-.32.59-.21.22.1.32.37.21.59-1.57 3.34-3.19 6.58-4.82 9.64-.08.15-.23.23-.39.23zM44.82 518.44c-.13 0-.25-.05-.34-.16-2.38-2.76-4.7-5.54-6.89-8.24a.439.439 0 01.07-.63c.19-.16.47-.13.63.07 2.18 2.7 4.5 5.47 6.87 8.22.16.19.14.47-.05.63-.08.07-.19.11-.29.11zm152.77-2.64c-.06 0-.13-.01-.18-.04a.434.434 0 01-.22-.59c1.42-3.14 2.85-6.46 4.24-9.86a.446.446 0 11.83.33c-1.39 3.41-2.83 6.74-4.25 9.89-.09.18-.25.27-.42.27zM35.7 507.41c-.13 0-.26-.06-.35-.17-2.27-2.87-4.46-5.75-6.5-8.56a.45.45 0 01.1-.63c.2-.15.48-.1.62.1 2.04 2.8 4.22 5.67 6.48 8.53.15.19.12.48-.07.63a.42.42 0 01-.28.1zm167.47-4.81a.446.446 0 01-.41-.61c1.28-3.24 2.55-6.62 3.78-10.05a.45.45 0 01.57-.27c.23.08.35.34.27.57a370.57 370.57 0 01-3.79 10.08c-.08.17-.24.28-.42.28zm-176.04-6.64a.47.47 0 01-.37-.19c-2.12-2.99-4.13-6-6-8.92a.453.453 0 01.14-.62c.21-.13.49-.07.62.14 1.86 2.92 3.87 5.91 5.97 8.89a.448.448 0 01-.36.7zm181.02-6.8c-.05 0-.1-.01-.15-.03a.441.441 0 01-.27-.57c1.14-3.28 2.29-6.71 3.4-10.19.08-.23.33-.36.56-.29.24.08.36.33.29.56-1.12 3.49-2.26 6.93-3.41 10.21-.06.2-.23.31-.42.31zm-188.9-5.14c-.15 0-.3-.08-.38-.21a174.8 174.8 0 01-5.34-9.34.436.436 0 01.19-.6c.22-.12.49-.03.6.18 1.62 3.04 3.4 6.17 5.32 9.29.13.21.06.49-.15.62-.08.04-.16.06-.24.06zm193.39-8.48c-.04 0-.09-.01-.13-.02a.434.434 0 01-.29-.56c1.04-3.36 2.08-6.81 3.07-10.27.07-.24.32-.37.55-.31.24.07.38.32.31.55-.99 3.46-2.03 6.92-3.08 10.29-.07.2-.24.32-.43.32zm-200.36-4.01a.45.45 0 01-.4-.25c-1.66-3.3-3.16-6.6-4.46-9.79a.446.446 0 11.83-.33c1.3 3.18 2.79 6.45 4.44 9.73.11.22.02.49-.2.6-.08.02-.15.04-.21.04zm204.41-9.71c-.04 0-.08 0-.12-.02a.442.442 0 01-.31-.55c.95-3.39 1.89-6.89 2.8-10.39.06-.24.3-.38.54-.32.24.06.38.31.32.54-.91 3.51-1.85 7.01-2.81 10.41-.05.2-.23.33-.42.33zM6.52 458.44c-.18 0-.35-.11-.42-.29a108.24 108.24 0 01-3.27-10.26c-.06-.24.08-.48.32-.55.24-.06.48.08.55.32.87 3.32 1.96 6.75 3.25 10.17a.451.451 0 01-.43.61zm213.86-10.49c-.04 0-.07 0-.11-.01a.441.441 0 01-.32-.54c.87-3.42 1.72-6.94 2.55-10.44.06-.24.29-.39.54-.33.24.06.39.3.33.54-.83 3.51-1.69 7.03-2.55 10.46-.06.18-.24.32-.44.32zM2.42 444.74c-.21 0-.39-.14-.44-.35A84.86 84.86 0 01.3 433.74c-.02-.25.16-.46.4-.49.24-.02.46.16.49.41.31 3.43.87 6.98 1.66 10.53.05.24-.1.48-.34.53-.02.02-.06.02-.09.02zm221.32-10.73c-.03 0-.07 0-.1-.01a.438.438 0 01-.33-.54c.78-3.41 1.57-6.94 2.33-10.5.05-.24.28-.4.53-.34.24.05.4.29.34.53-.76 3.56-1.55 7.1-2.33 10.51-.05.21-.23.35-.44.35zM.52 430.59a.45.45 0 01-.45-.43 71.195 71.195 0 01.34-10.78c.03-.25.25-.43.49-.4.25.03.42.25.4.49a69.337 69.337 0 00-.34 10.64c.01.25-.18.46-.43.47 0 .01-.01.01-.01.01zM226.82 420c-.03 0-.06 0-.09-.01a.453.453 0 01-.35-.53c.72-3.43 1.43-6.97 2.13-10.54.05-.24.29-.4.53-.35.24.05.4.28.35.52-.7 3.57-1.42 7.12-2.13 10.55-.05.22-.24.36-.44.36zM1.34 416.33c-.02 0-.05 0-.07-.01a.45.45 0 01-.37-.51 68.76 68.76 0 012.57-10.48.45.45 0 01.57-.28c.23.08.36.33.28.57a67.83 67.83 0 00-2.54 10.34c-.04.22-.23.37-.44.37zm228.28-10.39c-.03 0-.06 0-.08-.01a.457.457 0 01-.36-.52c.66-3.48 1.32-7.04 1.95-10.58.04-.24.28-.4.52-.36.24.04.41.28.36.52-.63 3.54-1.29 7.1-1.95 10.59a.45.45 0 01-.44.36zM5.1 402.56c-.05 0-.11-.01-.16-.03a.46.46 0 01-.26-.58c1.27-3.26 2.82-6.54 4.61-9.75.12-.22.39-.29.61-.17.22.12.29.39.17.61-1.77 3.17-3.31 6.41-4.56 9.64-.06.17-.23.28-.41.28zm227.09-10.73c-.03 0-.05 0-.08-.01a.44.44 0 01-.36-.52c.63-3.6 1.22-7.15 1.78-10.61a.45.45 0 01.51-.37c.24.04.41.27.37.51-.56 3.47-1.15 7.01-1.78 10.62-.03.23-.22.38-.44.38zm-220.7-2.05a.39.39 0 01-.23-.07.452.452 0 01-.15-.62c1.8-2.92 3.86-5.9 6.14-8.85.15-.2.43-.23.63-.08.2.15.23.43.08.63-2.26 2.93-4.31 5.88-6.09 8.78-.08.14-.23.21-.38.21zm8.34-11.61a.446.446 0 01-.34-.73c2.14-2.61 4.47-5.25 7.13-8.06.17-.18.45-.19.63-.02s.19.45.02.63c-2.64 2.8-4.96 5.42-7.09 8.02-.09.11-.22.16-.35.16zm214.71-.49c-.02 0-.05 0-.07-.01a.45.45 0 01-.37-.51c.57-3.64 1.11-7.2 1.62-10.64.04-.25.28-.41.51-.38.25.04.41.26.38.51-.5 3.45-1.04 7-1.62 10.65a.46.46 0 01-.45.38zM29.42 367.55c-.11 0-.23-.04-.31-.13a.444.444 0 01-.01-.63c2.68-2.74 5.36-5.36 7.64-7.57.18-.17.46-.17.63.01.17.18.17.46-.01.63-2.27 2.2-4.95 4.81-7.62 7.55-.09.09-.2.14-.32.14zm207.25-4.06h-.06a.458.458 0 01-.38-.51c.53-3.7 1.01-7.26 1.46-10.67.03-.25.26-.42.5-.38.25.03.42.26.38.5-.45 3.41-.94 6.97-1.47 10.67-.02.23-.21.39-.43.39zm-197.05-5.98c-.12 0-.23-.05-.32-.14a.444.444 0 01.01-.63l1.02-.99c2.16-2.08 4.44-4.23 6.78-6.4.18-.17.46-.16.63.03.17.18.16.46-.03.63-2.34 2.16-4.62 4.31-6.77 6.39l-1.02.99c-.07.07-.18.12-.3.12zm198.98-8.25h-.06a.449.449 0 01-.39-.5c.49-3.8.92-7.38 1.31-10.69.03-.25.25-.42.5-.39.25.03.42.25.39.5-.39 3.32-.82 6.9-1.31 10.7-.03.22-.22.38-.44.38zm-188.54-1.55c-.12 0-.24-.05-.33-.15a.444.444 0 01.03-.63c2.53-2.3 5.23-4.71 8.02-7.15.19-.16.47-.14.63.04.16.19.14.47-.04.63-2.78 2.44-5.48 4.84-8.01 7.14-.08.08-.19.12-.3.12zm10.71-9.49c-.13 0-.25-.05-.34-.15a.453.453 0 01.04-.63c2.57-2.22 5.24-4.51 8.17-6.98.19-.16.47-.14.63.05.16.19.14.47-.05.63-2.93 2.47-5.59 4.75-8.16 6.97-.08.07-.18.11-.29.11zM240.32 335h-.05a.44.44 0 01-.39-.49c.42-3.69.8-7.3 1.15-10.73.03-.25.25-.43.49-.4.25.02.42.24.4.49-.34 3.43-.73 7.04-1.15 10.74-.03.22-.23.39-.45.39zm-168.65-6.06a.446.446 0 01-.28-.79c2.73-2.29 5.48-4.58 8.26-6.87.19-.16.47-.13.63.06.16.19.13.47-.06.63-2.77 2.29-5.52 4.58-8.25 6.87-.09.06-.2.1-.3.1zm170.15-8.25h-.04a.436.436 0 01-.4-.49c.52-5.42.75-8.45.75-8.48.02-.23.21-.41.45-.41h.02c.24.01.43.21.43.45 0 .04-.24 3.21-.75 8.53-.04.23-.23.4-.46.4zm-159.12-.9c-.13 0-.26-.06-.35-.16a.446.446 0 01.06-.63c2.75-2.27 5.52-4.54 8.3-6.82.19-.16.47-.13.63.06.16.19.13.47-.06.63-2.78 2.28-5.55 4.55-8.3 6.82-.08.06-.18.1-.28.1zm11.07-9.09c-.13 0-.26-.06-.35-.16a.446.446 0 01.06-.63c2.76-2.26 5.53-4.53 8.29-6.82.19-.16.47-.13.63.06.16.19.13.47-.06.63-2.77 2.28-5.54 4.55-8.3 6.82-.07.06-.17.1-.27.1zm11.06-9.1a.446.446 0 01-.28-.79c2.75-2.27 5.5-4.56 8.25-6.87.19-.16.47-.13.63.06.16.19.13.47-.06.63-2.75 2.3-5.5 4.59-8.25 6.87-.09.06-.19.1-.29.1zm10.99-9.18c-.13 0-.25-.05-.34-.16a.445.445 0 01.05-.63c2.73-2.3 5.45-4.62 8.17-6.96.19-.16.47-.14.63.05.16.19.14.47-.05.63-2.71 2.34-5.44 4.66-8.17 6.97-.08.07-.19.1-.29.1zm10.88-9.31c-.12 0-.25-.05-.34-.15a.453.453 0 01.04-.63c2.77-2.41 5.48-4.8 8.04-7.1.18-.17.47-.15.63.03s.15.47-.03.63c-2.57 2.31-5.27 4.7-8.05 7.11-.08.08-.19.11-.29.11zm10.7-9.51c-.12 0-.24-.05-.33-.15a.444.444 0 01.03-.63c2.71-2.47 5.36-4.92 7.87-7.29.18-.17.46-.16.63.02.17.18.16.46-.02.63-2.51 2.38-5.16 4.83-7.88 7.3-.09.09-.2.12-.3.12zm10.46-9.76c-.12 0-.23-.05-.32-.14a.444.444 0 01.01-.63c2.63-2.52 5.2-5.05 7.64-7.52.18-.17.46-.18.63 0 .18.17.18.46 0 .63a461.08 461.08 0 01-7.66 7.54c-.08.08-.19.12-.3.12zm10.16-10.08c-.11 0-.23-.04-.31-.13a.444.444 0 01-.01-.63c1.92-1.97 3.81-3.96 5.62-5.9.59-.63 1.17-1.26 1.75-1.89.17-.18.45-.19.63-.03.18.17.19.45.03.63-.58.63-1.17 1.26-1.75 1.89-1.81 1.95-3.71 3.94-5.63 5.91-.1.1-.21.15-.33.15zm9.79-10.44c-.11 0-.21-.04-.3-.12a.444.444 0 01-.03-.63 333.8 333.8 0 007.06-8.06c.16-.19.44-.21.63-.05.19.16.21.44.05.63-2.22 2.63-4.54 5.27-7.08 8.08-.09.1-.21.15-.33.15zm9.36-10.81a.446.446 0 01-.34-.73c2.34-2.84 4.57-5.67 6.62-8.42.15-.2.43-.24.63-.09s.24.43.09.63c-2.06 2.76-4.3 5.6-6.65 8.45-.09.1-.22.16-.35.16zm8.75-11.31a.437.437 0 01-.36-.7c2.14-2.96 4.16-5.94 6-8.86.13-.21.41-.27.62-.14.21.13.27.41.14.62-1.86 2.93-3.89 5.93-6.03 8.9-.1.11-.23.18-.37.18zm7.9-11.93c-.08 0-.16-.02-.23-.06a.442.442 0 01-.15-.61c1.87-3.11 3.61-6.25 5.18-9.36.11-.22.38-.31.6-.2.22.11.31.38.2.6-1.58 3.12-3.33 6.29-5.21 9.42-.1.14-.24.21-.39.21zm6.76-12.6c-.06 0-.13-.01-.19-.04a.45.45 0 01-.21-.6c1.53-3.26 2.93-6.57 4.14-9.86.09-.23.34-.35.58-.26.23.09.35.34.26.57-1.22 3.31-2.62 6.65-4.17 9.93-.08.17-.24.26-.41.26zm5.34-13.27c-.05 0-.09-.01-.14-.02a.45.45 0 01-.28-.57c1.13-3.39 2.12-6.85 2.91-10.29.06-.24.29-.4.54-.33.24.06.39.3.33.54-.8 3.46-1.79 6.95-2.94 10.37-.06.18-.23.3-.42.3zm3.68-13.83c-.03 0-.06 0-.09-.01a.448.448 0 01-.35-.53c.69-3.48 1.22-7.03 1.58-10.57.02-.25.25-.43.49-.4.25.02.42.24.4.49-.36 3.56-.9 7.15-1.59 10.65-.04.22-.23.37-.44.37zm1.89-14.17h-.03a.456.456 0 01-.42-.48 115.968 115.968 0 00.25-10.68c0-.25.19-.45.44-.46.21-.02.45.19.46.44a117.733 117.733 0 01-.25 10.77c-.02.23-.22.41-.45.41zm.12-14.3c-.24 0-.43-.19-.45-.42-.18-3.55-.5-7.14-.96-10.65-.03-.25.14-.47.39-.5.24-.04.47.14.5.39.46 3.54.79 7.15.96 10.73.01.25-.18.46-.42.47 0-.02-.01-.02-.02-.02zm-1.47-14.23c-.22 0-.41-.16-.44-.38-.55-3.53-1.26-7.06-2.08-10.49-.06-.24.09-.48.33-.54.25-.06.48.09.54.33.83 3.46 1.54 7.01 2.1 10.56a.45.45 0 01-.37.51c-.03.01-.06.01-.08.01zm-67.65-7.33c-3.6 0-7.12-.29-10.48-.86-.24-.04-.41-.27-.37-.52s.27-.41.52-.37c3.31.56 6.78.84 10.33.84h.28c.24-.03.45.2.45.44s-.2.45-.44.45l-.29.02zm3.85-.1c-.24 0-.43-.18-.45-.42-.01-.25.18-.46.42-.47 3.43-.19 6.99-.64 10.58-1.33.24-.05.48.11.52.35s-.11.48-.35.52c-3.63.7-7.23 1.15-10.7 1.35h-.02zm-17.76-1.46c-.03 0-.07 0-.1-.01-3.57-.84-7.01-2.03-10.21-3.53a.438.438 0 01-.21-.59c.1-.22.37-.32.59-.21 3.15 1.48 6.52 2.64 10.03 3.47.24.06.39.3.33.54-.04.2-.23.33-.43.33zm31.9-.63c-.2 0-.39-.14-.44-.35-.06-.24.09-.48.33-.54 2.7-.63 5.46-1.41 8.23-2.32.68-.22 1.36-.45 2.02-.68.23-.08.49.04.57.27a.45.45 0 01-.27.57c-.67.24-1.35.47-2.04.69-2.79.91-5.58 1.7-8.3 2.34-.03.01-.06.02-.1.02zm13.66-4.25c-.18 0-.35-.11-.42-.29-.09-.23.02-.49.26-.58 3.34-1.29 6.62-2.76 9.73-4.36a.445.445 0 11.41.79 105 105 0 01-9.82 4.4c-.05.03-.11.04-.16.04zm33.03-.23c-.2 0-.38-.13-.43-.33-.93-3.46-2.02-6.89-3.22-10.2a.45.45 0 01.27-.57c.23-.08.49.04.57.27 1.21 3.33 2.3 6.79 3.24 10.27.06.24-.08.48-.32.55-.04.01-.08.01-.11.01zm-91.89-.03c-.07 0-.15-.02-.22-.06a46.932 46.932 0 01-8.75-6.35.454.454 0 01-.03-.63c.17-.18.45-.19.63-.03 2.58 2.38 5.46 4.48 8.58 6.23.22.12.29.39.17.61a.42.42 0 01-.38.23zm71.78-5.81c-.16 0-.31-.08-.39-.23a.452.452 0 01.17-.61 98.53 98.53 0 009-5.72c.2-.14.48-.1.62.1s.1.48-.1.62a96.904 96.904 0 01-9.08 5.78c-.07.04-.14.06-.22.06zm-82.97-3.01a.47.47 0 01-.33-.14 43.895 43.895 0 01-6.3-8.79.447.447 0 01.18-.61c.22-.12.49-.04.61.18 1.68 3.09 3.75 5.99 6.17 8.61.17.18.16.46-.03.63a.46.46 0 01-.3.12zm98.57-4.73c-.18 0-.35-.11-.42-.28-.24-.6-.48-1.2-.73-1.79-.75.62-1.51 1.23-2.28 1.82-.2.15-.48.12-.63-.08-.15-.2-.12-.48.08-.63.83-.64 1.65-1.3 2.46-1.98-1.03-2.42-2.14-4.8-3.31-7.09a.449.449 0 01.2-.6c.22-.11.49-.02.6.2 1.14 2.23 2.22 4.54 3.22 6.9 1.67-1.42 3.3-2.9 4.87-4.43.18-.17.46-.17.63.01.17.18.17.46-.01.63a94.307 94.307 0 01-5.13 4.65c.29.68.57 1.37.84 2.06.09.23-.02.49-.25.58-.03.02-.08.03-.14.03zM96.28 92.11c-.17 0-.34-.1-.41-.27-1.47-3.38-2.47-6.88-2.97-10.41-.03-.24.14-.47.38-.5.25-.04.47.14.5.38.48 3.45 1.46 6.87 2.9 10.17.1.23 0 .49-.23.59-.05.03-.11.04-.17.04zm113.28-2.55a.444.444 0 01-.33-.75 99.15 99.15 0 006.94-8.12c.15-.2.43-.23.63-.08.2.15.23.43.08.63-2.2 2.87-4.56 5.63-7 8.19-.08.08-.2.13-.32.13zm-12.99-3.21c-.16 0-.31-.08-.39-.23-1.74-3.16-3.63-6.21-5.62-9.08-.14-.2-.09-.48.11-.62s.48-.09.62.11c2.01 2.9 3.92 5.98 5.67 9.16.12.22.04.49-.18.61-.06.03-.13.05-.21.05zm22.09-7.82a.437.437 0 01-.36-.7c2.03-2.85 3.97-5.87 5.77-9 .12-.21.4-.29.61-.16.21.12.29.4.17.61-1.81 3.15-3.77 6.2-5.82 9.07-.1.11-.23.18-.37.18zm-125.64-.27a.45.45 0 01-.45-.43c-.02-.49-.03-.98-.03-1.47 0-3.21.44-6.33 1.29-9.28.07-.24.31-.37.55-.3.24.07.37.32.3.55-.84 2.87-1.26 5.91-1.26 9.03 0 .48.01.96.03 1.44.01.25-.18.46-.43.47.01-.01.01-.01 0-.01zm95.81-3.93a.44.44 0 01-.36-.18c-2.17-2.89-4.5-5.63-6.9-8.14a.444.444 0 01.01-.63c.18-.17.46-.17.63.01a89.02 89.02 0 016.97 8.22c.15.2.11.48-.09.63a.41.41 0 01-.26.09zm37.36-7.96c-.07 0-.14-.02-.21-.05a.447.447 0 01-.18-.61c1.65-3.08 3.21-6.33 4.63-9.65.1-.23.36-.33.59-.23.23.1.33.36.24.59-1.43 3.34-3 6.61-4.66 9.71a.5.5 0 01-.41.24zm-130.72-2.1c-.06 0-.12-.01-.17-.04a.456.456 0 01-.24-.59 29.47 29.47 0 015.99-9.03c.17-.18.46-.18.63-.01.18.17.18.46.01.63a28.635 28.635 0 00-5.81 8.75c-.07.19-.24.29-.41.29zm83.89-.65c-.11 0-.22-.04-.31-.12-2.61-2.5-5.37-4.79-8.2-6.81a.437.437 0 01-.1-.62c.14-.2.42-.25.62-.1 2.86 2.05 5.65 4.37 8.29 6.89.18.17.19.45.01.63-.08.08-.2.13-.31.13zm-11.21-8.87a.42.42 0 01-.24-.07c-3.02-1.94-6.17-3.64-9.38-5.03-.23-.1-.33-.36-.23-.59.1-.23.36-.33.59-.23 3.25 1.42 6.45 3.13 9.51 5.1.21.13.27.41.13.62-.09.13-.23.2-.38.2zm64.05-1.37c-.05 0-.11-.01-.17-.03a.446.446 0 01-.25-.58c1.29-3.25 2.49-6.65 3.55-10.1.07-.24.32-.37.56-.29.24.07.37.32.29.56-1.07 3.47-2.28 6.89-3.58 10.17-.05.16-.22.27-.4.27zm-128.19-.41c-.13 0-.26-.06-.35-.17a.439.439 0 01.07-.63c2.72-2.2 5.89-3.99 9.42-5.33.23-.09.49.03.58.26.09.23-.03.49-.26.58-3.44 1.31-6.53 3.05-9.18 5.19-.09.07-.19.1-.28.1zm51.38-4.62c-.05 0-.1-.01-.16-.03a62.152 62.152 0 00-10.26-2.83.447.447 0 11.16-.88c3.52.65 7.02 1.62 10.4 2.87.23.09.35.34.26.57-.04.19-.22.3-.4.3zM116.7 46.6c-.2 0-.38-.13-.43-.33-.07-.24.07-.48.31-.55 1.24-.35 2.53-.65 3.84-.9 2.27-.43 4.56-.76 6.8-.97.25-.03.46.16.49.4.02.25-.16.46-.4.49-2.21.21-4.47.53-6.72.96-1.28.24-2.55.54-3.76.88-.05.01-.09.02-.13.02zm24.83-1.65h-.06c-3.47-.44-7.03-.59-10.63-.44-.25.03-.45-.18-.46-.43s.18-.46.43-.46c3.65-.15 7.25.01 10.78.45.25.03.42.25.39.5-.03.22-.23.38-.45.38zm95.25-5.14c-.04 0-.08-.01-.12-.02a.442.442 0 01-.31-.55c.96-3.39 1.82-6.89 2.56-10.41a.46.46 0 01.53-.35c.24.05.4.29.35.53-.74 3.54-1.6 7.06-2.57 10.47-.06.2-.24.33-.44.33zm3.26-13.95c-.03 0-.05 0-.08-.01a.457.457 0 01-.36-.52c.65-3.52 1.19-7.08 1.6-10.6.03-.25.25-.42.5-.39.25.03.42.25.39.5-.41 3.54-.96 7.13-1.61 10.66a.45.45 0 01-.44.36zm1.98-14.2h-.04a.436.436 0 01-.4-.49c.49-5.3.55-8.94.55-10.27V.45c0-.25.19-.45.44-.46.27.01.45.19.46.44v.46c0 1.33-.05 5.01-.55 10.35-.03.24-.23.42-.46.42z" fill="#fff"/></g></switch></svg>