<svg xmlns="http://www.w3.org/2000/svg" viewBox="0 0 101.64 594.11"><switch><g><path d="M101.07 594.11h-.01a.495.495 0 01-.49-.51c0-.03.07-3.5.07-9.57 0-1.63 0-3.44-.02-5.43 0-.28.22-.5.5-.5.27 0 .5.22.5.5.01 1.99.02 3.81.02 5.44 0 6.09-.07 9.56-.07 9.59 0 .26-.23.48-.5.48zm.01-20.03a.5.5 0 01-.5-.49c-.06-4.89-.15-9.94-.28-15.02-.01-.28.21-.5.49-.51.3.03.51.21.51.49.13 5.08.23 10.13.28 15.03 0 .27-.22.5-.5.5zm-.42-20.02c-.27 0-.49-.21-.5-.48-.15-4.96-.34-10.01-.56-15-.01-.28.2-.51.48-.52.27-.01.51.2.52.48.22 5 .41 10.05.56 15.02.01.28-.21.51-.48.52-.01-.02-.02-.02-.02-.02zm-.79-20.01c-.26 0-.49-.21-.5-.48-.24-5.02-.52-10.07-.83-14.99-.02-.28.19-.51.47-.53.27-.03.51.19.53.47.3 4.93.58 9.98.83 15 .01.28-.2.51-.47.52-.02.01-.02.01-.03.01zm-1.15-20c-.26 0-.48-.2-.5-.47-.33-4.98-.7-10.02-1.1-14.97-.02-.28.18-.52.46-.54.28-.02.52.18.54.46.4 4.95.77 10 1.1 14.98.02.28-.19.51-.47.53-.01.01-.02.01-.03.01zm-1.52-19.96c-.26 0-.47-.2-.5-.46-.43-5.04-.9-10.07-1.4-14.94a.503.503 0 011-.1c.5 4.88.97 9.91 1.4 14.96.02.28-.18.52-.46.54h-.04zm-1.92-19.93c-.25 0-.47-.19-.5-.45a922.65 922.65 0 00-1.72-14.91.51.51 0 01.43-.56c.26-.04.52.16.56.43.6 4.86 1.19 9.88 1.73 14.93.03.28-.17.52-.44.55-.02.01-.04.01-.06.01zm-2.36-19.88c-.25 0-.46-.18-.5-.44-.66-5.04-1.36-10.04-2.09-14.86-.04-.27.15-.53.42-.57.27-.04.53.15.57.42.73 4.83 1.43 9.84 2.09 14.88.04.27-.16.52-.43.56-.01.01-.03.01-.06.01zm-2.84-19.81c-.24 0-.45-.18-.49-.42a622.08 622.08 0 00-2.5-14.79.499.499 0 01.98-.18c.87 4.79 1.71 9.78 2.5 14.82.04.27-.14.53-.42.57h-.07zm-3.42-19.74c-.24 0-.45-.17-.49-.41-.95-5.01-1.95-9.96-2.98-14.7-.06-.27.11-.54.38-.59.27-.06.54.11.59.38 1.03 4.75 2.04 9.71 2.98 14.73.05.27-.13.53-.4.58-.02.01-.05.01-.08.01zm-4.06-19.6a.51.51 0 01-.49-.39c-1.13-4.97-2.32-9.87-3.54-14.57-.07-.27.09-.54.36-.61.27-.07.54.09.61.36 1.23 4.71 2.42 9.63 3.55 14.6.06.27-.11.54-.38.6-.04.01-.08.01-.11.01zm-4.84-19.42c-.22 0-.42-.15-.48-.37-1.35-4.93-2.77-9.77-4.23-14.38-.08-.26.06-.54.33-.63.26-.09.54.06.63.33 1.46 4.63 2.89 9.48 4.24 14.42.07.27-.08.54-.35.61-.05.02-.1.02-.14.02zm-29.14-2.05c-2.18 0-4.42-.57-6.67-1.69a.488.488 0 01-.22-.67c.12-.25.42-.35.67-.22 4.71 2.35 9.28 2.07 13.57-.84.23-.16.54-.1.69.13s.1.54-.13.69c-2.54 1.72-5.2 2.6-7.91 2.6zm-10.61-4.36a.51.51 0 01-.31-.11c-3.3-2.64-6.64-6.47-9.94-11.37a.498.498 0 01.83-.55c3.24 4.82 6.52 8.57 9.74 11.15.22.17.25.49.08.7-.11.12-.25.18-.4.18zm21.98-1.4c-.12 0-.25-.04-.34-.14a.504.504 0 01-.02-.71c2.78-2.96 5.47-7.12 8-12.37a.5.5 0 11.9.44c-2.57 5.35-5.32 9.59-8.17 12.62-.11.1-.24.16-.37.16zm11.99-11.35c-.21 0-.4-.13-.47-.34-1.63-4.89-3.34-9.63-5.08-14.1-.1-.26.03-.55.28-.65.26-.1.55.03.65.28.93 2.37 1.84 4.82 2.74 7.33 1.57-3.85 3.09-8.22 4.54-12.98a.5.5 0 01.62-.33.5.5 0 01.33.62c-1.59 5.22-3.27 9.97-5 14.1.63 1.78 1.25 3.58 1.86 5.41.09.26-.05.55-.32.63-.05.02-.1.03-.15.03zm-46.49-2.73c-.17 0-.34-.09-.43-.24-2.36-3.95-4.69-8.46-6.93-13.38-.11-.25 0-.55.25-.66.25-.11.55 0 .66.25 2.22 4.89 4.53 9.36 6.87 13.28.14.24.06.54-.17.69-.07.03-.16.06-.25.06zm39.53-16.03c-.2 0-.38-.12-.46-.31-1.97-4.77-4.05-9.36-6.17-13.64a.5.5 0 11.9-.44c2.13 4.3 4.22 8.91 6.2 13.7.11.25-.02.55-.27.65-.07.03-.13.04-.2.04zm-48.43-1.89c-.2 0-.38-.12-.46-.31-1.87-4.45-3.66-9.19-5.32-14.08-.09-.26.05-.55.31-.63.26-.09.55.05.63.31 1.65 4.88 3.43 9.59 5.29 14.02.11.25-.01.55-.27.65-.05.02-.12.04-.18.04zm59.93-3.96a.502.502 0 01-.48-.64c1.25-4.47 2.46-9.35 3.61-14.51a.503.503 0 01.98.22c-1.15 5.18-2.37 10.07-3.63 14.56-.06.23-.27.37-.48.37zm-19.95-12.27c-.18 0-.36-.1-.44-.27-2.4-4.63-4.76-9.08-7.02-13.24a.506.506 0 01.2-.68c.24-.13.55-.04.68.2 2.27 4.16 4.63 8.62 7.03 13.26.13.25.03.55-.21.67-.09.04-.17.06-.24.06zm-46.85-2.59c-.21 0-.41-.14-.48-.35-1.51-4.79-2.88-9.66-4.08-14.48-.07-.27.1-.54.36-.61.27-.07.54.1.61.36 1.19 4.8 2.56 9.66 4.06 14.42.08.26-.06.54-.33.63a.32.32 0 01-.14.03zm71.47-4.55c-.03 0-.07 0-.1-.01a.507.507 0 01-.39-.59c.97-4.63 1.91-9.58 2.8-14.7.05-.27.31-.45.58-.41.27.05.45.31.41.58a439.67 439.67 0 01-2.81 14.73c-.05.23-.26.4-.49.4zm-34.06-10.49a.49.49 0 01-.44-.26c-2.56-4.63-5.07-9-7.45-13a.513.513 0 01.17-.69c.24-.14.54-.06.69.17 2.38 4.01 4.89 8.39 7.46 13.02.13.24.05.55-.2.68-.06.06-.15.08-.23.08zM4.5 297.76c-.23 0-.44-.16-.49-.39-1.16-5.15-2.09-10.13-2.76-14.8a.5.5 0 11.99-.15c.67 4.65 1.59 9.6 2.74 14.73.06.27-.11.54-.38.6-.03 0-.07.01-.1.01zm80.33-4.88c-.03 0-.05 0-.08-.01a.49.49 0 01-.41-.57c.78-4.71 1.54-9.69 2.25-14.8.04-.27.3-.46.56-.43.27.04.46.29.43.56-.72 5.12-1.48 10.11-2.26 14.83-.04.24-.25.42-.49.42zm-47.74-8.13c-.17 0-.33-.08-.43-.24-2.85-4.65-5.59-8.87-8.14-12.56a.5.5 0 01.13-.7.5.5 0 01.7.13c2.57 3.7 5.32 7.94 8.17 12.6.14.24.07.54-.17.69-.08.05-.17.08-.26.08zm-35.97-6.73c-.25 0-.47-.19-.5-.45-.41-3.8-.62-7.31-.62-10.41 0-1.67.06-3.24.18-4.67.02-.28.26-.48.54-.46.27.02.48.26.46.54-.12 1.4-.18 2.94-.18 4.58 0 3.07.21 6.54.62 10.31.03.27-.17.52-.44.55-.03.01-.04.01-.06.01zm86.65-4.91h-.07a.503.503 0 01-.43-.56c.63-4.73 1.26-9.73 1.85-14.86.03-.27.29-.47.55-.44.27.03.47.28.44.55-.6 5.14-1.22 10.15-1.86 14.88-.02.25-.24.43-.48.43zm-61.74-5.01c-.15 0-.3-.07-.4-.2-3.55-4.81-6.81-8.62-9.68-11.31a.504.504 0 01-.02-.71c.19-.2.51-.21.71-.02 2.91 2.73 6.21 6.58 9.8 11.44.16.22.12.54-.11.7-.1.07-.2.1-.3.1zm-24.58-10c-.04 0-.08 0-.12-.02a.498.498 0 01-.36-.61c1.14-4.52 3.24-6.81 6.26-6.81 1.59 0 3.43.68 5.46 2.01a.498.498 0 01-.55.83c-5.2-3.42-8.62-2.05-10.2 4.21a.5.5 0 01-.49.39zm88.73-4.83h-.06a.502.502 0 01-.44-.55c.53-4.81 1.05-9.82 1.54-14.9.03-.28.29-.47.55-.45.28.03.48.27.45.55-.49 5.09-1.01 10.11-1.54 14.92-.03.24-.24.43-.5.43zm2.02-19.89h-.05a.494.494 0 01-.45-.54c.45-4.81.88-9.84 1.29-14.93a.51.51 0 01.54-.46c.28.02.48.26.46.54-.41 5.1-.85 10.13-1.29 14.94-.03.26-.25.45-.5.45zm1.68-19.92h-.04a.504.504 0 01-.46-.54c.38-4.9.74-9.93 1.08-14.95.02-.27.24-.48.53-.47.28.02.48.26.46.53-.34 5.02-.71 10.05-1.09 14.96 0 .27-.22.47-.48.47zm1.42-19.94h-.03a.509.509 0 01-.47-.53c.32-4.87.62-9.85.91-14.96.02-.27.23-.48.53-.47.28.02.49.25.47.53-.29 5.11-.59 10.1-.91 14.97-.02.26-.24.46-.5.46zm1.19-19.96h-.03a.49.49 0 01-.47-.53c.27-4.88.52-9.87.76-14.97.01-.28.25-.49.52-.48.28.01.49.25.48.52-.24 5.1-.49 10.09-.76 14.98-.02.28-.24.48-.5.48zm.99-19.96h-.02a.502.502 0 01-.48-.52c.22-4.89.43-9.89.63-14.98.01-.27.21-.5.52-.48.28.01.49.24.48.52-.2 5.09-.41 10.09-.63 14.98-.01.27-.23.48-.5.48zm.82-19.98h-.02a.496.496 0 01-.48-.52c.18-4.9.35-9.9.51-14.98.01-.28.25-.47.52-.48.28.01.49.24.48.52-.16 5.09-.33 10.08-.51 14.99-.01.26-.24.47-.5.47zm.66-19.99h-.01a.508.508 0 01-.49-.51c.15-4.91.28-9.91.41-14.99.01-.28.19-.48.51-.49.28.01.49.24.49.51-.13 5.08-.26 10.08-.41 14.99a.5.5 0 01-.5.49zm.53-19.98h-.01a.508.508 0 01-.49-.51c.11-4.92.22-9.91.31-14.99a.5.5 0 01.5-.49h.01c.28.01.5.23.49.51-.1 5.08-.2 10.08-.31 15-.01.26-.23.48-.5.48zm.4-20c-.29 0-.5-.23-.5-.51.08-4.92.16-9.92.23-14.99 0-.28.2-.49.51-.49.28 0 .5.23.49.51-.07 5.07-.14 10.07-.23 15 0 .27-.23.48-.5.48zm.29-19.99c-.28 0-.5-.23-.5-.51.06-4.93.11-9.93.15-14.99 0-.27.23-.5.5-.5.28 0 .5.23.5.5-.04 5.07-.09 10.07-.15 15 0 .28-.22.5-.5.5zm.2-19.99s-.01 0 0 0c-.28 0-.5-.23-.5-.5.04-4.93.06-9.93.08-15 0-.28.22-.5.5-.5s.5.23.5.5c-.02 5.07-.05 10.07-.08 15-.01.27-.23.5-.5.5zm.09-20c-.28 0-.5-.23-.5-.5.01-4.18.02-8.4.02-12.67 0-.28.22-.5.5-.5s.5.22.5.5c0 4.27 0 8.49-.02 12.67 0 .27-.22.5-.5.5z" fill="#fff"/></g></switch></svg>